<?xml version="1.0" encoding="utf-8" standalone="no"?>
<!DOCTYPE svg PUBLIC "-//W3C//DTD SVG 1.1//EN"
  "http://www.w3.org/Graphics/SVG/1.1/DTD/svg11.dtd">
<svg xmlns:xlink="http://www.w3.org/1999/xlink" width="931.848051pt" height="279.135469pt" viewBox="0 0 931.848051 279.135469" xmlns="http://www.w3.org/2000/svg" version="1.1">
 <metadata>
  <rdf:RDF xmlns:dc="http://purl.org/dc/elements/1.1/" xmlns:cc="http://creativecommons.org/ns#" xmlns:rdf="http://www.w3.org/1999/02/22-rdf-syntax-ns#">
   <cc:Work>
    <dc:type rdf:resource="http://purl.org/dc/dcmitype/StillImage"/>
    <dc:date>2026-06-06T01:28:10.252968</dc:date>
    <dc:format>image/svg+xml</dc:format>
    <dc:creator>
     <cc:Agent>
      <dc:title>Matplotlib v3.10.9, https://matplotlib.org/</dc:title>
     </cc:Agent>
    </dc:creator>
   </cc:Work>
  </rdf:RDF>
 </metadata>
 <defs>
  <style type="text/css">*{stroke-linejoin: round; stroke-linecap: butt}</style>
 </defs>
 <g id="figure_1">
  <g id="patch_1">
   <path d="M 0 279.135469 
L 931.848051 279.135469 
L 931.848051 0 
L 0 0 
z
" style="fill: #ffffff"/>
  </g>
  <g id="axes_1">
   <g id="patch_2">
    <path d="M 49.589063 242.527656 
L 312.470386 242.527656 
L 312.470386 21.207656 
L 49.589063 21.207656 
z
" style="fill: #ffffff"/>
   </g>
   <g id="matplotlib.axis_1">
    <g id="xtick_1">
     <g id="line2d_1">
      <path d="M 60.765191 242.527656 
L 60.765191 21.207656 
" clip-path="url(#pd2f3e0635e)" style="fill: none; stroke: #cccccc; stroke-width: 0.8; stroke-linecap: round"/>
     </g>
     <g id="text_1">
      <!-- 0 -->
      <g style="fill: #262626" transform="translate(57.984722 256.685469) scale(0.1 -0.1)">
       <defs>
        <path id="ArialMT-30" d="M 266 2259 
Q 266 3072 433 3567 
Q 600 4063 929 4331 
Q 1259 4600 1759 4600 
Q 2128 4600 2406 4451 
Q 2684 4303 2865 4023 
Q 3047 3744 3150 3342 
Q 3253 2941 3253 2259 
Q 3253 1453 3087 958 
Q 2922 463 2592 192 
Q 2263 -78 1759 -78 
Q 1097 -78 719 397 
Q 266 969 266 2259 
z
M 844 2259 
Q 844 1131 1108 757 
Q 1372 384 1759 384 
Q 2147 384 2411 759 
Q 2675 1134 2675 2259 
Q 2675 3391 2411 3762 
Q 2147 4134 1753 4134 
Q 1366 4134 1134 3806 
Q 844 3388 844 2259 
z
" transform="scale(0.015625)"/>
       </defs>
       <use xlink:href="#ArialMT-30"/>
      </g>
     </g>
    </g>
    <g id="xtick_2">
     <g id="line2d_2">
      <path d="M 120.228495 242.527656 
L 120.228495 21.207656 
" clip-path="url(#pd2f3e0635e)" style="fill: none; stroke: #cccccc; stroke-width: 0.8; stroke-linecap: round"/>
     </g>
     <g id="text_2">
      <!-- 1000 -->
      <g style="fill: #262626" transform="translate(109.10662 256.685469) scale(0.1 -0.1)">
       <defs>
        <path id="ArialMT-31" d="M 2384 0 
L 1822 0 
L 1822 3584 
Q 1619 3391 1289 3197 
Q 959 3003 697 2906 
L 697 3450 
Q 1169 3672 1522 3987 
Q 1875 4303 2022 4600 
L 2384 4600 
L 2384 0 
z
" transform="scale(0.015625)"/>
       </defs>
       <use xlink:href="#ArialMT-31"/>
       <use xlink:href="#ArialMT-30" transform="translate(55.615234 0)"/>
       <use xlink:href="#ArialMT-30" transform="translate(111.230469 0)"/>
       <use xlink:href="#ArialMT-30" transform="translate(166.845703 0)"/>
      </g>
     </g>
    </g>
    <g id="xtick_3">
     <g id="line2d_3">
      <path d="M 179.6918 242.527656 
L 179.6918 21.207656 
" clip-path="url(#pd2f3e0635e)" style="fill: none; stroke: #cccccc; stroke-width: 0.8; stroke-linecap: round"/>
     </g>
     <g id="text_3">
      <!-- 2000 -->
      <g style="fill: #262626" transform="translate(168.569925 256.685469) scale(0.1 -0.1)">
       <defs>
        <path id="ArialMT-32" d="M 3222 541 
L 3222 0 
L 194 0 
Q 188 203 259 391 
Q 375 700 629 1000 
Q 884 1300 1366 1694 
Q 2113 2306 2375 2664 
Q 2638 3022 2638 3341 
Q 2638 3675 2398 3904 
Q 2159 4134 1775 4134 
Q 1369 4134 1125 3890 
Q 881 3647 878 3216 
L 300 3275 
Q 359 3922 746 4261 
Q 1134 4600 1788 4600 
Q 2447 4600 2831 4234 
Q 3216 3869 3216 3328 
Q 3216 3053 3103 2787 
Q 2991 2522 2730 2228 
Q 2469 1934 1863 1422 
Q 1356 997 1212 845 
Q 1069 694 975 541 
L 3222 541 
z
" transform="scale(0.015625)"/>
       </defs>
       <use xlink:href="#ArialMT-32"/>
       <use xlink:href="#ArialMT-30" transform="translate(55.615234 0)"/>
       <use xlink:href="#ArialMT-30" transform="translate(111.230469 0)"/>
       <use xlink:href="#ArialMT-30" transform="translate(166.845703 0)"/>
      </g>
     </g>
    </g>
    <g id="xtick_4">
     <g id="line2d_4">
      <path d="M 239.155105 242.527656 
L 239.155105 21.207656 
" clip-path="url(#pd2f3e0635e)" style="fill: none; stroke: #cccccc; stroke-width: 0.8; stroke-linecap: round"/>
     </g>
     <g id="text_4">
      <!-- 3000 -->
      <g style="fill: #262626" transform="translate(228.03323 256.685469) scale(0.1 -0.1)">
       <defs>
        <path id="ArialMT-33" d="M 269 1209 
L 831 1284 
Q 928 806 1161 595 
Q 1394 384 1728 384 
Q 2125 384 2398 659 
Q 2672 934 2672 1341 
Q 2672 1728 2419 1979 
Q 2166 2231 1775 2231 
Q 1616 2231 1378 2169 
L 1441 2663 
Q 1497 2656 1531 2656 
Q 1891 2656 2178 2843 
Q 2466 3031 2466 3422 
Q 2466 3731 2256 3934 
Q 2047 4138 1716 4138 
Q 1388 4138 1169 3931 
Q 950 3725 888 3313 
L 325 3413 
Q 428 3978 793 4289 
Q 1159 4600 1703 4600 
Q 2078 4600 2393 4439 
Q 2709 4278 2876 4000 
Q 3044 3722 3044 3409 
Q 3044 3113 2884 2869 
Q 2725 2625 2413 2481 
Q 2819 2388 3044 2092 
Q 3269 1797 3269 1353 
Q 3269 753 2831 336 
Q 2394 -81 1725 -81 
Q 1122 -81 723 278 
Q 325 638 269 1209 
z
" transform="scale(0.015625)"/>
       </defs>
       <use xlink:href="#ArialMT-33"/>
       <use xlink:href="#ArialMT-30" transform="translate(55.615234 0)"/>
       <use xlink:href="#ArialMT-30" transform="translate(111.230469 0)"/>
       <use xlink:href="#ArialMT-30" transform="translate(166.845703 0)"/>
      </g>
     </g>
    </g>
    <g id="xtick_5">
     <g id="line2d_5">
      <path d="M 298.618409 242.527656 
L 298.618409 21.207656 
" clip-path="url(#pd2f3e0635e)" style="fill: none; stroke: #cccccc; stroke-width: 0.8; stroke-linecap: round"/>
     </g>
     <g id="text_5">
      <!-- 4000 -->
      <g style="fill: #262626" transform="translate(287.496534 256.685469) scale(0.1 -0.1)">
       <defs>
        <path id="ArialMT-34" d="M 2069 0 
L 2069 1097 
L 81 1097 
L 81 1613 
L 2172 4581 
L 2631 4581 
L 2631 1613 
L 3250 1613 
L 3250 1097 
L 2631 1097 
L 2631 0 
L 2069 0 
z
M 2069 1613 
L 2069 3678 
L 634 1613 
L 2069 1613 
z
" transform="scale(0.015625)"/>
       </defs>
       <use xlink:href="#ArialMT-34"/>
       <use xlink:href="#ArialMT-30" transform="translate(55.615234 0)"/>
       <use xlink:href="#ArialMT-30" transform="translate(111.230469 0)"/>
       <use xlink:href="#ArialMT-30" transform="translate(166.845703 0)"/>
      </g>
     </g>
    </g>
    <g id="text_6">
     <!-- Width -->
     <g style="fill: #262626" transform="translate(168.249256 269.830781) scale(0.1 -0.1)">
      <defs>
       <path id="ArialMT-57" d="M 1294 0 
L 78 4581 
L 700 4581 
L 1397 1578 
Q 1509 1106 1591 641 
Q 1766 1375 1797 1488 
L 2669 4581 
L 3400 4581 
L 4056 2263 
Q 4303 1400 4413 641 
Q 4500 1075 4641 1638 
L 5359 4581 
L 5969 4581 
L 4713 0 
L 4128 0 
L 3163 3491 
Q 3041 3928 3019 4028 
Q 2947 3713 2884 3491 
L 1913 0 
L 1294 0 
z
" transform="scale(0.015625)"/>
       <path id="ArialMT-69" d="M 425 3934 
L 425 4581 
L 988 4581 
L 988 3934 
L 425 3934 
z
M 425 0 
L 425 3319 
L 988 3319 
L 988 0 
L 425 0 
z
" transform="scale(0.015625)"/>
       <path id="ArialMT-64" d="M 2575 0 
L 2575 419 
Q 2259 -75 1647 -75 
Q 1250 -75 917 144 
Q 584 363 401 755 
Q 219 1147 219 1656 
Q 219 2153 384 2558 
Q 550 2963 881 3178 
Q 1213 3394 1622 3394 
Q 1922 3394 2156 3267 
Q 2391 3141 2538 2938 
L 2538 4581 
L 3097 4581 
L 3097 0 
L 2575 0 
z
M 797 1656 
Q 797 1019 1065 703 
Q 1334 388 1700 388 
Q 2069 388 2326 689 
Q 2584 991 2584 1609 
Q 2584 2291 2321 2609 
Q 2059 2928 1675 2928 
Q 1300 2928 1048 2622 
Q 797 2316 797 1656 
z
" transform="scale(0.015625)"/>
       <path id="ArialMT-74" d="M 1650 503 
L 1731 6 
Q 1494 -44 1306 -44 
Q 1000 -44 831 53 
Q 663 150 594 308 
Q 525 466 525 972 
L 525 2881 
L 113 2881 
L 113 3319 
L 525 3319 
L 525 4141 
L 1084 4478 
L 1084 3319 
L 1650 3319 
L 1650 2881 
L 1084 2881 
L 1084 941 
Q 1084 700 1114 631 
Q 1144 563 1211 522 
Q 1278 481 1403 481 
Q 1497 481 1650 503 
z
" transform="scale(0.015625)"/>
       <path id="ArialMT-68" d="M 422 0 
L 422 4581 
L 984 4581 
L 984 2938 
Q 1378 3394 1978 3394 
Q 2347 3394 2619 3248 
Q 2891 3103 3008 2847 
Q 3125 2591 3125 2103 
L 3125 0 
L 2563 0 
L 2563 2103 
Q 2563 2525 2380 2717 
Q 2197 2909 1863 2909 
Q 1613 2909 1392 2779 
Q 1172 2650 1078 2428 
Q 984 2206 984 1816 
L 984 0 
L 422 0 
z
" transform="scale(0.015625)"/>
      </defs>
      <use xlink:href="#ArialMT-57"/>
      <use xlink:href="#ArialMT-69" transform="translate(94.384766 0)"/>
      <use xlink:href="#ArialMT-64" transform="translate(116.601562 0)"/>
      <use xlink:href="#ArialMT-74" transform="translate(172.216797 0)"/>
      <use xlink:href="#ArialMT-68" transform="translate(200 0)"/>
     </g>
    </g>
   </g>
   <g id="matplotlib.axis_2">
    <g id="ytick_1">
     <g id="line2d_6">
      <path d="M 49.589063 242.527656 
L 312.470386 242.527656 
" clip-path="url(#pd2f3e0635e)" style="fill: none; stroke: #cccccc; stroke-width: 0.8; stroke-linecap: round"/>
     </g>
     <g id="text_7">
      <!-- 0 -->
      <g style="fill: #262626" transform="translate(37.028125 246.106563) scale(0.1 -0.1)">
       <use xlink:href="#ArialMT-30"/>
      </g>
     </g>
    </g>
    <g id="ytick_2">
     <g id="line2d_7">
      <path d="M 49.589063 198.90577 
L 312.470386 198.90577 
" clip-path="url(#pd2f3e0635e)" style="fill: none; stroke: #cccccc; stroke-width: 0.8; stroke-linecap: round"/>
     </g>
     <g id="text_8">
      <!-- 500 -->
      <g style="fill: #262626" transform="translate(25.90625 202.484677) scale(0.1 -0.1)">
       <defs>
        <path id="ArialMT-35" d="M 266 1200 
L 856 1250 
Q 922 819 1161 601 
Q 1400 384 1738 384 
Q 2144 384 2425 690 
Q 2706 997 2706 1503 
Q 2706 1984 2436 2262 
Q 2166 2541 1728 2541 
Q 1456 2541 1237 2417 
Q 1019 2294 894 2097 
L 366 2166 
L 809 4519 
L 3088 4519 
L 3088 3981 
L 1259 3981 
L 1013 2750 
Q 1425 3038 1878 3038 
Q 2478 3038 2890 2622 
Q 3303 2206 3303 1553 
Q 3303 931 2941 478 
Q 2500 -78 1738 -78 
Q 1113 -78 717 272 
Q 322 622 266 1200 
z
" transform="scale(0.015625)"/>
       </defs>
       <use xlink:href="#ArialMT-35"/>
       <use xlink:href="#ArialMT-30" transform="translate(55.615234 0)"/>
       <use xlink:href="#ArialMT-30" transform="translate(111.230469 0)"/>
      </g>
     </g>
    </g>
    <g id="ytick_3">
     <g id="line2d_8">
      <path d="M 49.589063 155.283885 
L 312.470386 155.283885 
" clip-path="url(#pd2f3e0635e)" style="fill: none; stroke: #cccccc; stroke-width: 0.8; stroke-linecap: round"/>
     </g>
     <g id="text_9">
      <!-- 1000 -->
      <g style="fill: #262626" transform="translate(20.345313 158.862791) scale(0.1 -0.1)">
       <use xlink:href="#ArialMT-31"/>
       <use xlink:href="#ArialMT-30" transform="translate(55.615234 0)"/>
       <use xlink:href="#ArialMT-30" transform="translate(111.230469 0)"/>
       <use xlink:href="#ArialMT-30" transform="translate(166.845703 0)"/>
      </g>
     </g>
    </g>
    <g id="ytick_4">
     <g id="line2d_9">
      <path d="M 49.589063 111.661999 
L 312.470386 111.661999 
" clip-path="url(#pd2f3e0635e)" style="fill: none; stroke: #cccccc; stroke-width: 0.8; stroke-linecap: round"/>
     </g>
     <g id="text_10">
      <!-- 1500 -->
      <g style="fill: #262626" transform="translate(20.345313 115.240905) scale(0.1 -0.1)">
       <use xlink:href="#ArialMT-31"/>
       <use xlink:href="#ArialMT-35" transform="translate(55.615234 0)"/>
       <use xlink:href="#ArialMT-30" transform="translate(111.230469 0)"/>
       <use xlink:href="#ArialMT-30" transform="translate(166.845703 0)"/>
      </g>
     </g>
    </g>
    <g id="ytick_5">
     <g id="line2d_10">
      <path d="M 49.589063 68.040113 
L 312.470386 68.040113 
" clip-path="url(#pd2f3e0635e)" style="fill: none; stroke: #cccccc; stroke-width: 0.8; stroke-linecap: round"/>
     </g>
     <g id="text_11">
      <!-- 2000 -->
      <g style="fill: #262626" transform="translate(20.345313 71.619019) scale(0.1 -0.1)">
       <use xlink:href="#ArialMT-32"/>
       <use xlink:href="#ArialMT-30" transform="translate(55.615234 0)"/>
       <use xlink:href="#ArialMT-30" transform="translate(111.230469 0)"/>
       <use xlink:href="#ArialMT-30" transform="translate(166.845703 0)"/>
      </g>
     </g>
    </g>
    <g id="ytick_6">
     <g id="line2d_11">
      <path d="M 49.589063 24.418227 
L 312.470386 24.418227 
" clip-path="url(#pd2f3e0635e)" style="fill: none; stroke: #cccccc; stroke-width: 0.8; stroke-linecap: round"/>
     </g>
     <g id="text_12">
      <!-- 2500 -->
      <g style="fill: #262626" transform="translate(20.345313 27.997133) scale(0.1 -0.1)">
       <use xlink:href="#ArialMT-32"/>
       <use xlink:href="#ArialMT-35" transform="translate(55.615234 0)"/>
       <use xlink:href="#ArialMT-30" transform="translate(111.230469 0)"/>
       <use xlink:href="#ArialMT-30" transform="translate(166.845703 0)"/>
      </g>
     </g>
    </g>
    <g id="text_13">
     <!-- Frecuencia -->
     <g style="fill: #262626" transform="translate(14.357813 156.599688) rotate(-90) scale(0.1 -0.1)">
      <defs>
       <path id="ArialMT-46" d="M 525 0 
L 525 4581 
L 3616 4581 
L 3616 4041 
L 1131 4041 
L 1131 2622 
L 3281 2622 
L 3281 2081 
L 1131 2081 
L 1131 0 
L 525 0 
z
" transform="scale(0.015625)"/>
       <path id="ArialMT-72" d="M 416 0 
L 416 3319 
L 922 3319 
L 922 2816 
Q 1116 3169 1280 3281 
Q 1444 3394 1641 3394 
Q 1925 3394 2219 3213 
L 2025 2691 
Q 1819 2813 1613 2813 
Q 1428 2813 1281 2702 
Q 1134 2591 1072 2394 
Q 978 2094 978 1738 
L 978 0 
L 416 0 
z
" transform="scale(0.015625)"/>
       <path id="ArialMT-65" d="M 2694 1069 
L 3275 997 
Q 3138 488 2766 206 
Q 2394 -75 1816 -75 
Q 1088 -75 661 373 
Q 234 822 234 1631 
Q 234 2469 665 2931 
Q 1097 3394 1784 3394 
Q 2450 3394 2872 2941 
Q 3294 2488 3294 1666 
Q 3294 1616 3291 1516 
L 816 1516 
Q 847 969 1125 678 
Q 1403 388 1819 388 
Q 2128 388 2347 550 
Q 2566 713 2694 1069 
z
M 847 1978 
L 2700 1978 
Q 2663 2397 2488 2606 
Q 2219 2931 1791 2931 
Q 1403 2931 1139 2672 
Q 875 2413 847 1978 
z
" transform="scale(0.015625)"/>
       <path id="ArialMT-63" d="M 2588 1216 
L 3141 1144 
Q 3050 572 2676 248 
Q 2303 -75 1759 -75 
Q 1078 -75 664 370 
Q 250 816 250 1647 
Q 250 2184 428 2587 
Q 606 2991 970 3192 
Q 1334 3394 1763 3394 
Q 2303 3394 2647 3120 
Q 2991 2847 3088 2344 
L 2541 2259 
Q 2463 2594 2264 2762 
Q 2066 2931 1784 2931 
Q 1359 2931 1093 2626 
Q 828 2322 828 1663 
Q 828 994 1084 691 
Q 1341 388 1753 388 
Q 2084 388 2306 591 
Q 2528 794 2588 1216 
z
" transform="scale(0.015625)"/>
       <path id="ArialMT-75" d="M 2597 0 
L 2597 488 
Q 2209 -75 1544 -75 
Q 1250 -75 995 37 
Q 741 150 617 320 
Q 494 491 444 738 
Q 409 903 409 1263 
L 409 3319 
L 972 3319 
L 972 1478 
Q 972 1038 1006 884 
Q 1059 663 1231 536 
Q 1403 409 1656 409 
Q 1909 409 2131 539 
Q 2353 669 2445 892 
Q 2538 1116 2538 1541 
L 2538 3319 
L 3100 3319 
L 3100 0 
L 2597 0 
z
" transform="scale(0.015625)"/>
       <path id="ArialMT-6e" d="M 422 0 
L 422 3319 
L 928 3319 
L 928 2847 
Q 1294 3394 1984 3394 
Q 2284 3394 2536 3286 
Q 2788 3178 2913 3003 
Q 3038 2828 3088 2588 
Q 3119 2431 3119 2041 
L 3119 0 
L 2556 0 
L 2556 2019 
Q 2556 2363 2490 2533 
Q 2425 2703 2258 2804 
Q 2091 2906 1866 2906 
Q 1506 2906 1245 2678 
Q 984 2450 984 1813 
L 984 0 
L 422 0 
z
" transform="scale(0.015625)"/>
       <path id="ArialMT-61" d="M 2588 409 
Q 2275 144 1986 34 
Q 1697 -75 1366 -75 
Q 819 -75 525 192 
Q 231 459 231 875 
Q 231 1119 342 1320 
Q 453 1522 633 1644 
Q 813 1766 1038 1828 
Q 1203 1872 1538 1913 
Q 2219 1994 2541 2106 
Q 2544 2222 2544 2253 
Q 2544 2597 2384 2738 
Q 2169 2928 1744 2928 
Q 1347 2928 1158 2789 
Q 969 2650 878 2297 
L 328 2372 
Q 403 2725 575 2942 
Q 747 3159 1072 3276 
Q 1397 3394 1825 3394 
Q 2250 3394 2515 3294 
Q 2781 3194 2906 3042 
Q 3031 2891 3081 2659 
Q 3109 2516 3109 2141 
L 3109 1391 
Q 3109 606 3145 398 
Q 3181 191 3288 0 
L 2700 0 
Q 2613 175 2588 409 
z
M 2541 1666 
Q 2234 1541 1622 1453 
Q 1275 1403 1131 1340 
Q 988 1278 909 1158 
Q 831 1038 831 891 
Q 831 666 1001 516 
Q 1172 366 1500 366 
Q 1825 366 2078 508 
Q 2331 650 2450 897 
Q 2541 1088 2541 1459 
L 2541 1666 
z
" transform="scale(0.015625)"/>
      </defs>
      <use xlink:href="#ArialMT-46"/>
      <use xlink:href="#ArialMT-72" transform="translate(61.083984 0)"/>
      <use xlink:href="#ArialMT-65" transform="translate(94.384766 0)"/>
      <use xlink:href="#ArialMT-63" transform="translate(150 0)"/>
      <use xlink:href="#ArialMT-75" transform="translate(200 0)"/>
      <use xlink:href="#ArialMT-65" transform="translate(255.615234 0)"/>
      <use xlink:href="#ArialMT-6e" transform="translate(311.230469 0)"/>
      <use xlink:href="#ArialMT-63" transform="translate(366.845703 0)"/>
      <use xlink:href="#ArialMT-69" transform="translate(416.845703 0)"/>
      <use xlink:href="#ArialMT-61" transform="translate(439.0625 0)"/>
     </g>
    </g>
   </g>
   <g id="patch_3">
    <path d="M 61.538214 242.527656 
L 65.521264 242.527656 
L 65.521264 90.025543 
L 61.538214 90.025543 
z
" clip-path="url(#pd2f3e0635e)" style="fill: #4c72b0; stroke: #ffffff; stroke-linejoin: miter"/>
   </g>
   <g id="patch_4">
    <path d="M 65.521264 242.527656 
L 69.504314 242.527656 
L 69.504314 133.909161 
L 65.521264 133.909161 
z
" clip-path="url(#pd2f3e0635e)" style="fill: #4c72b0; stroke: #ffffff; stroke-linejoin: miter"/>
   </g>
   <g id="patch_5">
    <path d="M 69.504314 242.527656 
L 73.487365 242.527656 
L 73.487365 184.423304 
L 69.504314 184.423304 
z
" clip-path="url(#pd2f3e0635e)" style="fill: #4c72b0; stroke: #ffffff; stroke-linejoin: miter"/>
   </g>
   <g id="patch_6">
    <path d="M 73.487365 242.527656 
L 77.470415 242.527656 
L 77.470415 190.966587 
L 73.487365 190.966587 
z
" clip-path="url(#pd2f3e0635e)" style="fill: #4c72b0; stroke: #ffffff; stroke-linejoin: miter"/>
   </g>
   <g id="patch_7">
    <path d="M 77.470415 242.527656 
L 81.453465 242.527656 
L 81.453465 220.193251 
L 77.470415 220.193251 
z
" clip-path="url(#pd2f3e0635e)" style="fill: #4c72b0; stroke: #ffffff; stroke-linejoin: miter"/>
   </g>
   <g id="patch_8">
    <path d="M 81.453465 242.527656 
L 85.436516 242.527656 
L 85.436516 227.521728 
L 81.453465 227.521728 
z
" clip-path="url(#pd2f3e0635e)" style="fill: #4c72b0; stroke: #ffffff; stroke-linejoin: miter"/>
   </g>
   <g id="patch_9">
    <path d="M 85.436516 242.527656 
L 89.419566 242.527656 
L 89.419566 236.333348 
L 85.436516 236.333348 
z
" clip-path="url(#pd2f3e0635e)" style="fill: #4c72b0; stroke: #ffffff; stroke-linejoin: miter"/>
   </g>
   <g id="patch_10">
    <path d="M 89.419566 242.527656 
L 93.402616 242.527656 
L 93.402616 240.346562 
L 89.419566 240.346562 
z
" clip-path="url(#pd2f3e0635e)" style="fill: #4c72b0; stroke: #ffffff; stroke-linejoin: miter"/>
   </g>
   <g id="patch_11">
    <path d="M 93.402616 242.527656 
L 97.385667 242.527656 
L 97.385667 242.004194 
L 93.402616 242.004194 
z
" clip-path="url(#pd2f3e0635e)" style="fill: #4c72b0; stroke: #ffffff; stroke-linejoin: miter"/>
   </g>
   <g id="patch_12">
    <path d="M 97.385667 242.527656 
L 101.368717 242.527656 
L 101.368717 216.616256 
L 97.385667 216.616256 
z
" clip-path="url(#pd2f3e0635e)" style="fill: #4c72b0; stroke: #ffffff; stroke-linejoin: miter"/>
   </g>
   <g id="patch_13">
    <path d="M 101.368717 242.527656 
L 105.351768 242.527656 
L 105.351768 237.903736 
L 101.368717 237.903736 
z
" clip-path="url(#pd2f3e0635e)" style="fill: #4c72b0; stroke: #ffffff; stroke-linejoin: miter"/>
   </g>
   <g id="patch_14">
    <path d="M 105.351768 242.527656 
L 109.334818 242.527656 
L 109.334818 241.480731 
L 105.351768 241.480731 
z
" clip-path="url(#pd2f3e0635e)" style="fill: #4c72b0; stroke: #ffffff; stroke-linejoin: miter"/>
   </g>
   <g id="patch_15">
    <path d="M 109.334818 242.527656 
L 113.317868 242.527656 
L 113.317868 242.353169 
L 109.334818 242.353169 
z
" clip-path="url(#pd2f3e0635e)" style="fill: #4c72b0; stroke: #ffffff; stroke-linejoin: miter"/>
   </g>
   <g id="patch_16">
    <path d="M 113.317868 242.527656 
L 117.300919 242.527656 
L 117.300919 242.527656 
L 113.317868 242.527656 
z
" clip-path="url(#pd2f3e0635e)" style="fill: #4c72b0; stroke: #ffffff; stroke-linejoin: miter"/>
   </g>
   <g id="patch_17">
    <path d="M 117.300919 242.527656 
L 121.283969 242.527656 
L 121.283969 222.636076 
L 117.300919 222.636076 
z
" clip-path="url(#pd2f3e0635e)" style="fill: #4c72b0; stroke: #ffffff; stroke-linejoin: miter"/>
   </g>
   <g id="patch_18">
    <path d="M 121.283969 242.527656 
L 125.267019 242.527656 
L 125.267019 242.004194 
L 121.283969 242.004194 
z
" clip-path="url(#pd2f3e0635e)" style="fill: #4c72b0; stroke: #ffffff; stroke-linejoin: miter"/>
   </g>
   <g id="patch_19">
    <path d="M 125.267019 242.527656 
L 129.25007 242.527656 
L 129.25007 242.527656 
L 125.267019 242.527656 
z
" clip-path="url(#pd2f3e0635e)" style="fill: #4c72b0; stroke: #ffffff; stroke-linejoin: miter"/>
   </g>
   <g id="patch_20">
    <path d="M 129.25007 242.527656 
L 133.23312 242.527656 
L 133.23312 239.735856 
L 129.25007 239.735856 
z
" clip-path="url(#pd2f3e0635e)" style="fill: #4c72b0; stroke: #ffffff; stroke-linejoin: miter"/>
   </g>
   <g id="patch_21">
    <path d="M 133.23312 242.527656 
L 137.21617 242.527656 
L 137.21617 222.374345 
L 133.23312 222.374345 
z
" clip-path="url(#pd2f3e0635e)" style="fill: #4c72b0; stroke: #ffffff; stroke-linejoin: miter"/>
   </g>
   <g id="patch_22">
    <path d="M 137.21617 242.527656 
L 141.199221 242.527656 
L 141.199221 241.306243 
L 137.21617 241.306243 
z
" clip-path="url(#pd2f3e0635e)" style="fill: #4c72b0; stroke: #ffffff; stroke-linejoin: miter"/>
   </g>
   <g id="patch_23">
    <path d="M 141.199221 242.527656 
L 145.182271 242.527656 
L 145.182271 241.219 
L 141.199221 241.219 
z
" clip-path="url(#pd2f3e0635e)" style="fill: #4c72b0; stroke: #ffffff; stroke-linejoin: miter"/>
   </g>
   <g id="patch_24">
    <path d="M 145.182271 242.527656 
L 149.165322 242.527656 
L 149.165322 241.742462 
L 145.182271 241.742462 
z
" clip-path="url(#pd2f3e0635e)" style="fill: #4c72b0; stroke: #ffffff; stroke-linejoin: miter"/>
   </g>
   <g id="patch_25">
    <path d="M 149.165322 242.527656 
L 153.148372 242.527656 
L 153.148372 242.265925 
L 149.165322 242.265925 
z
" clip-path="url(#pd2f3e0635e)" style="fill: #4c72b0; stroke: #ffffff; stroke-linejoin: miter"/>
   </g>
   <g id="patch_26">
    <path d="M 153.148372 242.527656 
L 157.131422 242.527656 
L 157.131422 241.567975 
L 153.148372 241.567975 
z
" clip-path="url(#pd2f3e0635e)" style="fill: #4c72b0; stroke: #ffffff; stroke-linejoin: miter"/>
   </g>
   <g id="patch_27">
    <path d="M 157.131422 242.527656 
L 161.114473 242.527656 
L 161.114473 242.527656 
L 157.131422 242.527656 
z
" clip-path="url(#pd2f3e0635e)" style="fill: #4c72b0; stroke: #ffffff; stroke-linejoin: miter"/>
   </g>
   <g id="patch_28">
    <path d="M 161.114473 242.527656 
L 165.097523 242.527656 
L 165.097523 242.527656 
L 161.114473 242.527656 
z
" clip-path="url(#pd2f3e0635e)" style="fill: #4c72b0; stroke: #ffffff; stroke-linejoin: miter"/>
   </g>
   <g id="patch_29">
    <path d="M 165.097523 242.527656 
L 169.080573 242.527656 
L 169.080573 242.527656 
L 165.097523 242.527656 
z
" clip-path="url(#pd2f3e0635e)" style="fill: #4c72b0; stroke: #ffffff; stroke-linejoin: miter"/>
   </g>
   <g id="patch_30">
    <path d="M 169.080573 242.527656 
L 173.063624 242.527656 
L 173.063624 242.527656 
L 169.080573 242.527656 
z
" clip-path="url(#pd2f3e0635e)" style="fill: #4c72b0; stroke: #ffffff; stroke-linejoin: miter"/>
   </g>
   <g id="patch_31">
    <path d="M 173.063624 242.527656 
L 177.046674 242.527656 
L 177.046674 154.673178 
L 173.063624 154.673178 
z
" clip-path="url(#pd2f3e0635e)" style="fill: #4c72b0; stroke: #ffffff; stroke-linejoin: miter"/>
   </g>
   <g id="patch_32">
    <path d="M 177.046674 242.527656 
L 181.029724 242.527656 
L 181.029724 242.527656 
L 177.046674 242.527656 
z
" clip-path="url(#pd2f3e0635e)" style="fill: #4c72b0; stroke: #ffffff; stroke-linejoin: miter"/>
   </g>
   <g id="patch_33">
    <path d="M 181.029724 242.527656 
L 185.012775 242.527656 
L 185.012775 242.527656 
L 181.029724 242.527656 
z
" clip-path="url(#pd2f3e0635e)" style="fill: #4c72b0; stroke: #ffffff; stroke-linejoin: miter"/>
   </g>
   <g id="patch_34">
    <path d="M 185.012775 242.527656 
L 188.995825 242.527656 
L 188.995825 242.440412 
L 185.012775 242.440412 
z
" clip-path="url(#pd2f3e0635e)" style="fill: #4c72b0; stroke: #ffffff; stroke-linejoin: miter"/>
   </g>
   <g id="patch_35">
    <path d="M 188.995825 242.527656 
L 192.978875 242.527656 
L 192.978875 242.440412 
L 188.995825 242.440412 
z
" clip-path="url(#pd2f3e0635e)" style="fill: #4c72b0; stroke: #ffffff; stroke-linejoin: miter"/>
   </g>
   <g id="patch_36">
    <path d="M 192.978875 242.527656 
L 196.961926 242.527656 
L 196.961926 242.527656 
L 192.978875 242.527656 
z
" clip-path="url(#pd2f3e0635e)" style="fill: #4c72b0; stroke: #ffffff; stroke-linejoin: miter"/>
   </g>
   <g id="patch_37">
    <path d="M 196.961926 242.527656 
L 200.944976 242.527656 
L 200.944976 242.353169 
L 196.961926 242.353169 
z
" clip-path="url(#pd2f3e0635e)" style="fill: #4c72b0; stroke: #ffffff; stroke-linejoin: miter"/>
   </g>
   <g id="patch_38">
    <path d="M 200.944976 242.527656 
L 204.928027 242.527656 
L 204.928027 242.440412 
L 200.944976 242.440412 
z
" clip-path="url(#pd2f3e0635e)" style="fill: #4c72b0; stroke: #ffffff; stroke-linejoin: miter"/>
   </g>
   <g id="patch_39">
    <path d="M 204.928027 242.527656 
L 208.911077 242.527656 
L 208.911077 242.353169 
L 204.928027 242.353169 
z
" clip-path="url(#pd2f3e0635e)" style="fill: #4c72b0; stroke: #ffffff; stroke-linejoin: miter"/>
   </g>
   <g id="patch_40">
    <path d="M 208.911077 242.527656 
L 212.894127 242.527656 
L 212.894127 242.091437 
L 208.911077 242.091437 
z
" clip-path="url(#pd2f3e0635e)" style="fill: #4c72b0; stroke: #ffffff; stroke-linejoin: miter"/>
   </g>
   <g id="patch_41">
    <path d="M 212.894127 242.527656 
L 216.877178 242.527656 
L 216.877178 242.440412 
L 212.894127 242.440412 
z
" clip-path="url(#pd2f3e0635e)" style="fill: #4c72b0; stroke: #ffffff; stroke-linejoin: miter"/>
   </g>
   <g id="patch_42">
    <path d="M 216.877178 242.527656 
L 220.860228 242.527656 
L 220.860228 242.265925 
L 216.877178 242.265925 
z
" clip-path="url(#pd2f3e0635e)" style="fill: #4c72b0; stroke: #ffffff; stroke-linejoin: miter"/>
   </g>
   <g id="patch_43">
    <path d="M 220.860228 242.527656 
L 224.843278 242.527656 
L 224.843278 241.91695 
L 220.860228 241.91695 
z
" clip-path="url(#pd2f3e0635e)" style="fill: #4c72b0; stroke: #ffffff; stroke-linejoin: miter"/>
   </g>
   <g id="patch_44">
    <path d="M 224.843278 242.527656 
L 228.826329 242.527656 
L 228.826329 242.265925 
L 224.843278 242.265925 
z
" clip-path="url(#pd2f3e0635e)" style="fill: #4c72b0; stroke: #ffffff; stroke-linejoin: miter"/>
   </g>
   <g id="patch_45">
    <path d="M 228.826329 242.527656 
L 232.809379 242.527656 
L 232.809379 242.440412 
L 228.826329 242.440412 
z
" clip-path="url(#pd2f3e0635e)" style="fill: #4c72b0; stroke: #ffffff; stroke-linejoin: miter"/>
   </g>
   <g id="patch_46">
    <path d="M 232.809379 242.527656 
L 236.792429 242.527656 
L 236.792429 242.353169 
L 232.809379 242.353169 
z
" clip-path="url(#pd2f3e0635e)" style="fill: #4c72b0; stroke: #ffffff; stroke-linejoin: miter"/>
   </g>
   <g id="patch_47">
    <path d="M 236.792429 242.527656 
L 240.77548 242.527656 
L 240.77548 213.126505 
L 236.792429 213.126505 
z
" clip-path="url(#pd2f3e0635e)" style="fill: #4c72b0; stroke: #ffffff; stroke-linejoin: miter"/>
   </g>
   <g id="patch_48">
    <path d="M 240.77548 242.527656 
L 244.75853 242.527656 
L 244.75853 242.265925 
L 240.77548 242.265925 
z
" clip-path="url(#pd2f3e0635e)" style="fill: #4c72b0; stroke: #ffffff; stroke-linejoin: miter"/>
   </g>
   <g id="patch_49">
    <path d="M 244.75853 242.527656 
L 248.741581 242.527656 
L 248.741581 31.746704 
L 244.75853 31.746704 
z
" clip-path="url(#pd2f3e0635e)" style="fill: #4c72b0; stroke: #ffffff; stroke-linejoin: miter"/>
   </g>
   <g id="patch_50">
    <path d="M 248.741581 242.527656 
L 252.724631 242.527656 
L 252.724631 242.527656 
L 248.741581 242.527656 
z
" clip-path="url(#pd2f3e0635e)" style="fill: #4c72b0; stroke: #ffffff; stroke-linejoin: miter"/>
   </g>
   <g id="patch_51">
    <path d="M 252.724631 242.527656 
L 256.707681 242.527656 
L 256.707681 242.527656 
L 252.724631 242.527656 
z
" clip-path="url(#pd2f3e0635e)" style="fill: #4c72b0; stroke: #ffffff; stroke-linejoin: miter"/>
   </g>
   <g id="patch_52">
    <path d="M 256.707681 242.527656 
L 260.690732 242.527656 
L 260.690732 242.440412 
L 256.707681 242.440412 
z
" clip-path="url(#pd2f3e0635e)" style="fill: #4c72b0; stroke: #ffffff; stroke-linejoin: miter"/>
   </g>
   <g id="patch_53">
    <path d="M 260.690732 242.527656 
L 264.673782 242.527656 
L 264.673782 242.527656 
L 260.690732 242.527656 
z
" clip-path="url(#pd2f3e0635e)" style="fill: #4c72b0; stroke: #ffffff; stroke-linejoin: miter"/>
   </g>
   <g id="patch_54">
    <path d="M 264.673782 242.527656 
L 268.656832 242.527656 
L 268.656832 242.527656 
L 264.673782 242.527656 
z
" clip-path="url(#pd2f3e0635e)" style="fill: #4c72b0; stroke: #ffffff; stroke-linejoin: miter"/>
   </g>
   <g id="patch_55">
    <path d="M 268.656832 242.527656 
L 272.639883 242.527656 
L 272.639883 242.527656 
L 268.656832 242.527656 
z
" clip-path="url(#pd2f3e0635e)" style="fill: #4c72b0; stroke: #ffffff; stroke-linejoin: miter"/>
   </g>
   <g id="patch_56">
    <path d="M 272.639883 242.527656 
L 276.622933 242.527656 
L 276.622933 242.527656 
L 272.639883 242.527656 
z
" clip-path="url(#pd2f3e0635e)" style="fill: #4c72b0; stroke: #ffffff; stroke-linejoin: miter"/>
   </g>
   <g id="patch_57">
    <path d="M 276.622933 242.527656 
L 280.605983 242.527656 
L 280.605983 242.527656 
L 276.622933 242.527656 
z
" clip-path="url(#pd2f3e0635e)" style="fill: #4c72b0; stroke: #ffffff; stroke-linejoin: miter"/>
   </g>
   <g id="patch_58">
    <path d="M 280.605983 242.527656 
L 284.589034 242.527656 
L 284.589034 242.527656 
L 280.605983 242.527656 
z
" clip-path="url(#pd2f3e0635e)" style="fill: #4c72b0; stroke: #ffffff; stroke-linejoin: miter"/>
   </g>
   <g id="patch_59">
    <path d="M 284.589034 242.527656 
L 288.572084 242.527656 
L 288.572084 242.527656 
L 284.589034 242.527656 
z
" clip-path="url(#pd2f3e0635e)" style="fill: #4c72b0; stroke: #ffffff; stroke-linejoin: miter"/>
   </g>
   <g id="patch_60">
    <path d="M 288.572084 242.527656 
L 292.555134 242.527656 
L 292.555134 242.527656 
L 288.572084 242.527656 
z
" clip-path="url(#pd2f3e0635e)" style="fill: #4c72b0; stroke: #ffffff; stroke-linejoin: miter"/>
   </g>
   <g id="patch_61">
    <path d="M 292.555134 242.527656 
L 296.538185 242.527656 
L 296.538185 242.527656 
L 292.555134 242.527656 
z
" clip-path="url(#pd2f3e0635e)" style="fill: #4c72b0; stroke: #ffffff; stroke-linejoin: miter"/>
   </g>
   <g id="patch_62">
    <path d="M 296.538185 242.527656 
L 300.521235 242.527656 
L 300.521235 239.997587 
L 296.538185 239.997587 
z
" clip-path="url(#pd2f3e0635e)" style="fill: #4c72b0; stroke: #ffffff; stroke-linejoin: miter"/>
   </g>
   <g id="patch_63">
    <path d="M 49.589063 242.527656 
L 49.589063 21.207656 
" style="fill: none; stroke: #cccccc; stroke-width: 0.8; stroke-linejoin: miter; stroke-linecap: square"/>
   </g>
   <g id="patch_64">
    <path d="M 312.470386 242.527656 
L 312.470386 21.207656 
" style="fill: none; stroke: #cccccc; stroke-width: 0.8; stroke-linejoin: miter; stroke-linecap: square"/>
   </g>
   <g id="patch_65">
    <path d="M 49.589063 242.527656 
L 312.470386 242.527656 
" style="fill: none; stroke: #cccccc; stroke-width: 0.8; stroke-linejoin: miter; stroke-linecap: square"/>
   </g>
   <g id="patch_66">
    <path d="M 49.589063 21.207656 
L 312.470386 21.207656 
" style="fill: none; stroke: #cccccc; stroke-width: 0.8; stroke-linejoin: miter; stroke-linecap: square"/>
   </g>
   <g id="text_14">
    <!-- Distribución de width (px) -->
    <g style="fill: #262626" transform="translate(119.287068 15.207656) scale(0.11 -0.11)">
     <defs>
      <path id="ArialMT-44" d="M 494 0 
L 494 4581 
L 2072 4581 
Q 2606 4581 2888 4516 
Q 3281 4425 3559 4188 
Q 3922 3881 4101 3404 
Q 4281 2928 4281 2316 
Q 4281 1794 4159 1391 
Q 4038 988 3847 723 
Q 3656 459 3429 307 
Q 3203 156 2883 78 
Q 2563 0 2147 0 
L 494 0 
z
M 1100 541 
L 2078 541 
Q 2531 541 2789 625 
Q 3047 709 3200 863 
Q 3416 1078 3536 1442 
Q 3656 1806 3656 2325 
Q 3656 3044 3420 3430 
Q 3184 3816 2847 3947 
Q 2603 4041 2063 4041 
L 1100 4041 
L 1100 541 
z
" transform="scale(0.015625)"/>
      <path id="ArialMT-73" d="M 197 991 
L 753 1078 
Q 800 744 1014 566 
Q 1228 388 1613 388 
Q 2000 388 2187 545 
Q 2375 703 2375 916 
Q 2375 1106 2209 1216 
Q 2094 1291 1634 1406 
Q 1016 1563 777 1677 
Q 538 1791 414 1992 
Q 291 2194 291 2438 
Q 291 2659 392 2848 
Q 494 3038 669 3163 
Q 800 3259 1026 3326 
Q 1253 3394 1513 3394 
Q 1903 3394 2198 3281 
Q 2494 3169 2634 2976 
Q 2775 2784 2828 2463 
L 2278 2388 
Q 2241 2644 2061 2787 
Q 1881 2931 1553 2931 
Q 1166 2931 1000 2803 
Q 834 2675 834 2503 
Q 834 2394 903 2306 
Q 972 2216 1119 2156 
Q 1203 2125 1616 2013 
Q 2213 1853 2448 1751 
Q 2684 1650 2818 1456 
Q 2953 1263 2953 975 
Q 2953 694 2789 445 
Q 2625 197 2315 61 
Q 2006 -75 1616 -75 
Q 969 -75 630 194 
Q 291 463 197 991 
z
" transform="scale(0.015625)"/>
      <path id="ArialMT-62" d="M 941 0 
L 419 0 
L 419 4581 
L 981 4581 
L 981 2947 
Q 1338 3394 1891 3394 
Q 2197 3394 2470 3270 
Q 2744 3147 2920 2923 
Q 3097 2700 3197 2384 
Q 3297 2069 3297 1709 
Q 3297 856 2875 390 
Q 2453 -75 1863 -75 
Q 1275 -75 941 416 
L 941 0 
z
M 934 1684 
Q 934 1088 1097 822 
Q 1363 388 1816 388 
Q 2184 388 2453 708 
Q 2722 1028 2722 1663 
Q 2722 2313 2464 2622 
Q 2206 2931 1841 2931 
Q 1472 2931 1203 2611 
Q 934 2291 934 1684 
z
" transform="scale(0.015625)"/>
      <path id="ArialMT-f3" d="M 213 1659 
Q 213 2581 725 3025 
Q 1153 3394 1769 3394 
Q 2453 3394 2887 2945 
Q 3322 2497 3322 1706 
Q 3322 1066 3130 698 
Q 2938 331 2570 128 
Q 2203 -75 1769 -75 
Q 1072 -75 642 372 
Q 213 819 213 1659 
z
M 791 1659 
Q 791 1022 1069 705 
Q 1347 388 1769 388 
Q 2188 388 2466 706 
Q 2744 1025 2744 1678 
Q 2744 2294 2464 2611 
Q 2184 2928 1769 2928 
Q 1347 2928 1069 2612 
Q 791 2297 791 1659 
z
M 1454 3731 
L 1869 4606 
L 2607 4606 
L 1919 3731 
L 1454 3731 
z
" transform="scale(0.015625)"/>
      <path id="ArialMT-20" transform="scale(0.015625)"/>
      <path id="ArialMT-77" d="M 1034 0 
L 19 3319 
L 600 3319 
L 1128 1403 
L 1325 691 
Q 1338 744 1497 1375 
L 2025 3319 
L 2603 3319 
L 3100 1394 
L 3266 759 
L 3456 1400 
L 4025 3319 
L 4572 3319 
L 3534 0 
L 2950 0 
L 2422 1988 
L 2294 2553 
L 1622 0 
L 1034 0 
z
" transform="scale(0.015625)"/>
      <path id="ArialMT-28" d="M 1497 -1347 
Q 1031 -759 709 28 
Q 388 816 388 1659 
Q 388 2403 628 3084 
Q 909 3875 1497 4659 
L 1900 4659 
Q 1522 4009 1400 3731 
Q 1209 3300 1100 2831 
Q 966 2247 966 1656 
Q 966 153 1900 -1347 
L 1497 -1347 
z
" transform="scale(0.015625)"/>
      <path id="ArialMT-70" d="M 422 -1272 
L 422 3319 
L 934 3319 
L 934 2888 
Q 1116 3141 1344 3267 
Q 1572 3394 1897 3394 
Q 2322 3394 2647 3175 
Q 2972 2956 3137 2557 
Q 3303 2159 3303 1684 
Q 3303 1175 3120 767 
Q 2938 359 2589 142 
Q 2241 -75 1856 -75 
Q 1575 -75 1351 44 
Q 1128 163 984 344 
L 984 -1272 
L 422 -1272 
z
M 931 1641 
Q 931 1000 1190 694 
Q 1450 388 1819 388 
Q 2194 388 2461 705 
Q 2728 1022 2728 1688 
Q 2728 2322 2467 2637 
Q 2206 2953 1844 2953 
Q 1484 2953 1207 2617 
Q 931 2281 931 1641 
z
" transform="scale(0.015625)"/>
      <path id="ArialMT-78" d="M 47 0 
L 1259 1725 
L 138 3319 
L 841 3319 
L 1350 2541 
Q 1494 2319 1581 2169 
Q 1719 2375 1834 2534 
L 2394 3319 
L 3066 3319 
L 1919 1756 
L 3153 0 
L 2463 0 
L 1781 1031 
L 1600 1309 
L 728 0 
L 47 0 
z
" transform="scale(0.015625)"/>
      <path id="ArialMT-29" d="M 791 -1347 
L 388 -1347 
Q 1322 153 1322 1656 
Q 1322 2244 1188 2822 
Q 1081 3291 891 3722 
Q 769 4003 388 4659 
L 791 4659 
Q 1378 3875 1659 3084 
Q 1900 2403 1900 1659 
Q 1900 816 1576 28 
Q 1253 -759 791 -1347 
z
" transform="scale(0.015625)"/>
     </defs>
     <use xlink:href="#ArialMT-44"/>
     <use xlink:href="#ArialMT-69" transform="translate(72.216797 0)"/>
     <use xlink:href="#ArialMT-73" transform="translate(94.433594 0)"/>
     <use xlink:href="#ArialMT-74" transform="translate(144.433594 0)"/>
     <use xlink:href="#ArialMT-72" transform="translate(172.216797 0)"/>
     <use xlink:href="#ArialMT-69" transform="translate(205.517578 0)"/>
     <use xlink:href="#ArialMT-62" transform="translate(227.734375 0)"/>
     <use xlink:href="#ArialMT-75" transform="translate(283.349609 0)"/>
     <use xlink:href="#ArialMT-63" transform="translate(338.964844 0)"/>
     <use xlink:href="#ArialMT-69" transform="translate(388.964844 0)"/>
     <use xlink:href="#ArialMT-f3" transform="translate(411.181641 0)"/>
     <use xlink:href="#ArialMT-6e" transform="translate(466.796875 0)"/>
     <use xlink:href="#ArialMT-20" transform="translate(522.412109 0)"/>
     <use xlink:href="#ArialMT-64" transform="translate(550.195312 0)"/>
     <use xlink:href="#ArialMT-65" transform="translate(605.810547 0)"/>
     <use xlink:href="#ArialMT-20" transform="translate(661.425781 0)"/>
     <use xlink:href="#ArialMT-77" transform="translate(689.208984 0)"/>
     <use xlink:href="#ArialMT-69" transform="translate(761.425781 0)"/>
     <use xlink:href="#ArialMT-64" transform="translate(783.642578 0)"/>
     <use xlink:href="#ArialMT-74" transform="translate(839.257812 0)"/>
     <use xlink:href="#ArialMT-68" transform="translate(867.041016 0)"/>
     <use xlink:href="#ArialMT-20" transform="translate(922.65625 0)"/>
     <use xlink:href="#ArialMT-28" transform="translate(950.439453 0)"/>
     <use xlink:href="#ArialMT-70" transform="translate(983.740234 0)"/>
     <use xlink:href="#ArialMT-78" transform="translate(1039.355469 0)"/>
     <use xlink:href="#ArialMT-29" transform="translate(1089.355469 0)"/>
    </g>
   </g>
  </g>
  <g id="axes_2">
   <g id="patch_67">
    <path d="M 352.590386 242.527656 
L 615.47171 242.527656 
L 615.47171 21.207656 
L 352.590386 21.207656 
z
" style="fill: #ffffff"/>
   </g>
   <g id="matplotlib.axis_3">
    <g id="xtick_6">
     <g id="line2d_12">
      <path d="M 363.826155 242.527656 
L 363.826155 21.207656 
" clip-path="url(#p5f30df7607)" style="fill: none; stroke: #cccccc; stroke-width: 0.8; stroke-linecap: round"/>
     </g>
     <g id="text_15">
      <!-- 0 -->
      <g style="fill: #262626" transform="translate(361.045686 256.685469) scale(0.1 -0.1)">
       <use xlink:href="#ArialMT-30"/>
      </g>
     </g>
    </g>
    <g id="xtick_7">
     <g id="line2d_13">
      <path d="M 423.274668 242.527656 
L 423.274668 21.207656 
" clip-path="url(#p5f30df7607)" style="fill: none; stroke: #cccccc; stroke-width: 0.8; stroke-linecap: round"/>
     </g>
     <g id="text_16">
      <!-- 1000 -->
      <g style="fill: #262626" transform="translate(412.152793 256.685469) scale(0.1 -0.1)">
       <use xlink:href="#ArialMT-31"/>
       <use xlink:href="#ArialMT-30" transform="translate(55.615234 0)"/>
       <use xlink:href="#ArialMT-30" transform="translate(111.230469 0)"/>
       <use xlink:href="#ArialMT-30" transform="translate(166.845703 0)"/>
      </g>
     </g>
    </g>
    <g id="xtick_8">
     <g id="line2d_14">
      <path d="M 482.723181 242.527656 
L 482.723181 21.207656 
" clip-path="url(#p5f30df7607)" style="fill: none; stroke: #cccccc; stroke-width: 0.8; stroke-linecap: round"/>
     </g>
     <g id="text_17">
      <!-- 2000 -->
      <g style="fill: #262626" transform="translate(471.601306 256.685469) scale(0.1 -0.1)">
       <use xlink:href="#ArialMT-32"/>
       <use xlink:href="#ArialMT-30" transform="translate(55.615234 0)"/>
       <use xlink:href="#ArialMT-30" transform="translate(111.230469 0)"/>
       <use xlink:href="#ArialMT-30" transform="translate(166.845703 0)"/>
      </g>
     </g>
    </g>
    <g id="xtick_9">
     <g id="line2d_15">
      <path d="M 542.171694 242.527656 
L 542.171694 21.207656 
" clip-path="url(#p5f30df7607)" style="fill: none; stroke: #cccccc; stroke-width: 0.8; stroke-linecap: round"/>
     </g>
     <g id="text_18">
      <!-- 3000 -->
      <g style="fill: #262626" transform="translate(531.049819 256.685469) scale(0.1 -0.1)">
       <use xlink:href="#ArialMT-33"/>
       <use xlink:href="#ArialMT-30" transform="translate(55.615234 0)"/>
       <use xlink:href="#ArialMT-30" transform="translate(111.230469 0)"/>
       <use xlink:href="#ArialMT-30" transform="translate(166.845703 0)"/>
      </g>
     </g>
    </g>
    <g id="xtick_10">
     <g id="line2d_16">
      <path d="M 601.620207 242.527656 
L 601.620207 21.207656 
" clip-path="url(#p5f30df7607)" style="fill: none; stroke: #cccccc; stroke-width: 0.8; stroke-linecap: round"/>
     </g>
     <g id="text_19">
      <!-- 4000 -->
      <g style="fill: #262626" transform="translate(590.498332 256.685469) scale(0.1 -0.1)">
       <use xlink:href="#ArialMT-34"/>
       <use xlink:href="#ArialMT-30" transform="translate(55.615234 0)"/>
       <use xlink:href="#ArialMT-30" transform="translate(111.230469 0)"/>
       <use xlink:href="#ArialMT-30" transform="translate(166.845703 0)"/>
      </g>
     </g>
    </g>
    <g id="text_20">
     <!-- Height -->
     <g style="fill: #262626" transform="translate(469.578704 269.830781) scale(0.1 -0.1)">
      <defs>
       <path id="ArialMT-48" d="M 513 0 
L 513 4581 
L 1119 4581 
L 1119 2700 
L 3500 2700 
L 3500 4581 
L 4106 4581 
L 4106 0 
L 3500 0 
L 3500 2159 
L 1119 2159 
L 1119 0 
L 513 0 
z
" transform="scale(0.015625)"/>
       <path id="ArialMT-67" d="M 319 -275 
L 866 -356 
Q 900 -609 1056 -725 
Q 1266 -881 1628 -881 
Q 2019 -881 2231 -725 
Q 2444 -569 2519 -288 
Q 2563 -116 2559 434 
Q 2191 0 1641 0 
Q 956 0 581 494 
Q 206 988 206 1678 
Q 206 2153 378 2554 
Q 550 2956 876 3175 
Q 1203 3394 1644 3394 
Q 2231 3394 2613 2919 
L 2613 3319 
L 3131 3319 
L 3131 450 
Q 3131 -325 2973 -648 
Q 2816 -972 2473 -1159 
Q 2131 -1347 1631 -1347 
Q 1038 -1347 672 -1080 
Q 306 -813 319 -275 
z
M 784 1719 
Q 784 1066 1043 766 
Q 1303 466 1694 466 
Q 2081 466 2343 764 
Q 2606 1063 2606 1700 
Q 2606 2309 2336 2618 
Q 2066 2928 1684 2928 
Q 1309 2928 1046 2623 
Q 784 2319 784 1719 
z
" transform="scale(0.015625)"/>
      </defs>
      <use xlink:href="#ArialMT-48"/>
      <use xlink:href="#ArialMT-65" transform="translate(72.216797 0)"/>
      <use xlink:href="#ArialMT-69" transform="translate(127.832031 0)"/>
      <use xlink:href="#ArialMT-67" transform="translate(150.048828 0)"/>
      <use xlink:href="#ArialMT-68" transform="translate(205.664062 0)"/>
      <use xlink:href="#ArialMT-74" transform="translate(261.279297 0)"/>
     </g>
    </g>
   </g>
   <g id="matplotlib.axis_4">
    <g id="ytick_7">
     <g id="line2d_17">
      <path d="M 352.590386 242.527656 
L 615.47171 242.527656 
" clip-path="url(#p5f30df7607)" style="fill: none; stroke: #cccccc; stroke-width: 0.8; stroke-linecap: round"/>
     </g>
     <g id="text_21">
      <!-- 0 -->
      <g style="fill: #262626" transform="translate(340.029449 246.106563) scale(0.1 -0.1)">
       <use xlink:href="#ArialMT-30"/>
      </g>
     </g>
    </g>
    <g id="ytick_8">
     <g id="line2d_18">
      <path d="M 352.590386 198.86963 
L 615.47171 198.86963 
" clip-path="url(#p5f30df7607)" style="fill: none; stroke: #cccccc; stroke-width: 0.8; stroke-linecap: round"/>
     </g>
     <g id="text_22">
      <!-- 500 -->
      <g style="fill: #262626" transform="translate(328.907574 202.448536) scale(0.1 -0.1)">
       <use xlink:href="#ArialMT-35"/>
       <use xlink:href="#ArialMT-30" transform="translate(55.615234 0)"/>
       <use xlink:href="#ArialMT-30" transform="translate(111.230469 0)"/>
      </g>
     </g>
    </g>
    <g id="ytick_9">
     <g id="line2d_19">
      <path d="M 352.590386 155.211603 
L 615.47171 155.211603 
" clip-path="url(#p5f30df7607)" style="fill: none; stroke: #cccccc; stroke-width: 0.8; stroke-linecap: round"/>
     </g>
     <g id="text_23">
      <!-- 1000 -->
      <g style="fill: #262626" transform="translate(323.346636 158.790509) scale(0.1 -0.1)">
       <use xlink:href="#ArialMT-31"/>
       <use xlink:href="#ArialMT-30" transform="translate(55.615234 0)"/>
       <use xlink:href="#ArialMT-30" transform="translate(111.230469 0)"/>
       <use xlink:href="#ArialMT-30" transform="translate(166.845703 0)"/>
      </g>
     </g>
    </g>
    <g id="ytick_10">
     <g id="line2d_20">
      <path d="M 352.590386 111.553576 
L 615.47171 111.553576 
" clip-path="url(#p5f30df7607)" style="fill: none; stroke: #cccccc; stroke-width: 0.8; stroke-linecap: round"/>
     </g>
     <g id="text_24">
      <!-- 1500 -->
      <g style="fill: #262626" transform="translate(323.346636 115.132483) scale(0.1 -0.1)">
       <use xlink:href="#ArialMT-31"/>
       <use xlink:href="#ArialMT-35" transform="translate(55.615234 0)"/>
       <use xlink:href="#ArialMT-30" transform="translate(111.230469 0)"/>
       <use xlink:href="#ArialMT-30" transform="translate(166.845703 0)"/>
      </g>
     </g>
    </g>
    <g id="ytick_11">
     <g id="line2d_21">
      <path d="M 352.590386 67.89555 
L 615.47171 67.89555 
" clip-path="url(#p5f30df7607)" style="fill: none; stroke: #cccccc; stroke-width: 0.8; stroke-linecap: round"/>
     </g>
     <g id="text_25">
      <!-- 2000 -->
      <g style="fill: #262626" transform="translate(323.346636 71.474456) scale(0.1 -0.1)">
       <use xlink:href="#ArialMT-32"/>
       <use xlink:href="#ArialMT-30" transform="translate(55.615234 0)"/>
       <use xlink:href="#ArialMT-30" transform="translate(111.230469 0)"/>
       <use xlink:href="#ArialMT-30" transform="translate(166.845703 0)"/>
      </g>
     </g>
    </g>
    <g id="ytick_12">
     <g id="line2d_22">
      <path d="M 352.590386 24.237523 
L 615.47171 24.237523 
" clip-path="url(#p5f30df7607)" style="fill: none; stroke: #cccccc; stroke-width: 0.8; stroke-linecap: round"/>
     </g>
     <g id="text_26">
      <!-- 2500 -->
      <g style="fill: #262626" transform="translate(323.346636 27.81643) scale(0.1 -0.1)">
       <use xlink:href="#ArialMT-32"/>
       <use xlink:href="#ArialMT-35" transform="translate(55.615234 0)"/>
       <use xlink:href="#ArialMT-30" transform="translate(111.230469 0)"/>
       <use xlink:href="#ArialMT-30" transform="translate(166.845703 0)"/>
      </g>
     </g>
    </g>
   </g>
   <g id="patch_68">
    <path d="M 364.539537 242.527656 
L 368.522588 242.527656 
L 368.522588 90.161143 
L 364.539537 90.161143 
z
" clip-path="url(#p5f30df7607)" style="fill: #55a868; stroke: #ffffff; stroke-linejoin: miter"/>
   </g>
   <g id="patch_69">
    <path d="M 368.522588 242.527656 
L 372.505638 242.527656 
L 372.505638 124.214404 
L 368.522588 124.214404 
z
" clip-path="url(#p5f30df7607)" style="fill: #55a868; stroke: #ffffff; stroke-linejoin: miter"/>
   </g>
   <g id="patch_70">
    <path d="M 372.505638 242.527656 
L 376.488688 242.527656 
L 376.488688 186.90733 
L 372.505638 186.90733 
z
" clip-path="url(#p5f30df7607)" style="fill: #55a868; stroke: #ffffff; stroke-linejoin: miter"/>
   </g>
   <g id="patch_71">
    <path d="M 376.488688 242.527656 
L 380.471739 242.527656 
L 380.471739 191.185817 
L 376.488688 191.185817 
z
" clip-path="url(#p5f30df7607)" style="fill: #55a868; stroke: #ffffff; stroke-linejoin: miter"/>
   </g>
   <g id="patch_72">
    <path d="M 380.471739 242.527656 
L 384.454789 242.527656 
L 384.454789 221.222539 
L 380.471739 221.222539 
z
" clip-path="url(#p5f30df7607)" style="fill: #55a868; stroke: #ffffff; stroke-linejoin: miter"/>
   </g>
   <g id="patch_73">
    <path d="M 384.454789 242.527656 
L 388.43784 242.527656 
L 388.43784 227.771243 
L 384.454789 227.771243 
z
" clip-path="url(#p5f30df7607)" style="fill: #55a868; stroke: #ffffff; stroke-linejoin: miter"/>
   </g>
   <g id="patch_74">
    <path d="M 388.43784 242.527656 
L 392.42089 242.527656 
L 392.42089 214.761151 
L 388.43784 214.761151 
z
" clip-path="url(#p5f30df7607)" style="fill: #55a868; stroke: #ffffff; stroke-linejoin: miter"/>
   </g>
   <g id="patch_75">
    <path d="M 392.42089 242.527656 
L 396.40394 242.527656 
L 396.40394 241.741812 
L 392.42089 241.741812 
z
" clip-path="url(#p5f30df7607)" style="fill: #55a868; stroke: #ffffff; stroke-linejoin: miter"/>
   </g>
   <g id="patch_76">
    <path d="M 396.40394 242.527656 
L 400.386991 242.527656 
L 400.386991 242.44034 
L 396.40394 242.44034 
z
" clip-path="url(#p5f30df7607)" style="fill: #55a868; stroke: #ffffff; stroke-linejoin: miter"/>
   </g>
   <g id="patch_77">
    <path d="M 400.386991 242.527656 
L 404.370041 242.527656 
L 404.370041 240.781335 
L 400.386991 240.781335 
z
" clip-path="url(#p5f30df7607)" style="fill: #55a868; stroke: #ffffff; stroke-linejoin: miter"/>
   </g>
   <g id="patch_78">
    <path d="M 404.370041 242.527656 
L 408.353091 242.527656 
L 408.353091 222.357648 
L 404.370041 222.357648 
z
" clip-path="url(#p5f30df7607)" style="fill: #55a868; stroke: #ffffff; stroke-linejoin: miter"/>
   </g>
   <g id="patch_79">
    <path d="M 408.353091 242.527656 
L 412.336142 242.527656 
L 412.336142 240.694019 
L 408.353091 240.694019 
z
" clip-path="url(#p5f30df7607)" style="fill: #55a868; stroke: #ffffff; stroke-linejoin: miter"/>
   </g>
   <g id="patch_80">
    <path d="M 412.336142 242.527656 
L 416.319192 242.527656 
L 416.319192 242.178392 
L 412.336142 242.178392 
z
" clip-path="url(#p5f30df7607)" style="fill: #55a868; stroke: #ffffff; stroke-linejoin: miter"/>
   </g>
   <g id="patch_81">
    <path d="M 416.319192 242.527656 
L 420.302242 242.527656 
L 420.302242 242.44034 
L 416.319192 242.44034 
z
" clip-path="url(#p5f30df7607)" style="fill: #55a868; stroke: #ffffff; stroke-linejoin: miter"/>
   </g>
   <g id="patch_82">
    <path d="M 420.302242 242.527656 
L 424.285293 242.527656 
L 424.285293 242.527656 
L 420.302242 242.527656 
z
" clip-path="url(#p5f30df7607)" style="fill: #55a868; stroke: #ffffff; stroke-linejoin: miter"/>
   </g>
   <g id="patch_83">
    <path d="M 424.285293 242.527656 
L 428.268343 242.527656 
L 428.268343 154.600391 
L 424.285293 154.600391 
z
" clip-path="url(#p5f30df7607)" style="fill: #55a868; stroke: #ffffff; stroke-linejoin: miter"/>
   </g>
   <g id="patch_84">
    <path d="M 428.268343 242.527656 
L 432.251394 242.527656 
L 432.251394 242.44034 
L 428.268343 242.44034 
z
" clip-path="url(#p5f30df7607)" style="fill: #55a868; stroke: #ffffff; stroke-linejoin: miter"/>
   </g>
   <g id="patch_85">
    <path d="M 432.251394 242.527656 
L 436.234444 242.527656 
L 436.234444 242.091076 
L 432.251394 242.091076 
z
" clip-path="url(#p5f30df7607)" style="fill: #55a868; stroke: #ffffff; stroke-linejoin: miter"/>
   </g>
   <g id="patch_86">
    <path d="M 436.234444 242.527656 
L 440.217494 242.527656 
L 440.217494 217.904529 
L 436.234444 217.904529 
z
" clip-path="url(#p5f30df7607)" style="fill: #55a868; stroke: #ffffff; stroke-linejoin: miter"/>
   </g>
   <g id="patch_87">
    <path d="M 440.217494 242.527656 
L 444.200545 242.527656 
L 444.200545 241.829128 
L 440.217494 241.829128 
z
" clip-path="url(#p5f30df7607)" style="fill: #55a868; stroke: #ffffff; stroke-linejoin: miter"/>
   </g>
   <g id="patch_88">
    <path d="M 444.200545 242.527656 
L 448.183595 242.527656 
L 448.183595 241.479864 
L 444.200545 241.479864 
z
" clip-path="url(#p5f30df7607)" style="fill: #55a868; stroke: #ffffff; stroke-linejoin: miter"/>
   </g>
   <g id="patch_89">
    <path d="M 448.183595 242.527656 
L 452.166645 242.527656 
L 452.166645 242.353024 
L 448.183595 242.353024 
z
" clip-path="url(#p5f30df7607)" style="fill: #55a868; stroke: #ffffff; stroke-linejoin: miter"/>
   </g>
   <g id="patch_90">
    <path d="M 452.166645 242.527656 
L 456.149696 242.527656 
L 456.149696 242.527656 
L 452.166645 242.527656 
z
" clip-path="url(#p5f30df7607)" style="fill: #55a868; stroke: #ffffff; stroke-linejoin: miter"/>
   </g>
   <g id="patch_91">
    <path d="M 456.149696 242.527656 
L 460.132746 242.527656 
L 460.132746 239.296962 
L 456.149696 239.296962 
z
" clip-path="url(#p5f30df7607)" style="fill: #55a868; stroke: #ffffff; stroke-linejoin: miter"/>
   </g>
   <g id="patch_92">
    <path d="M 460.132746 242.527656 
L 464.115796 242.527656 
L 464.115796 242.527656 
L 460.132746 242.527656 
z
" clip-path="url(#p5f30df7607)" style="fill: #55a868; stroke: #ffffff; stroke-linejoin: miter"/>
   </g>
   <g id="patch_93">
    <path d="M 464.115796 242.527656 
L 468.098847 242.527656 
L 468.098847 242.527656 
L 464.115796 242.527656 
z
" clip-path="url(#p5f30df7607)" style="fill: #55a868; stroke: #ffffff; stroke-linejoin: miter"/>
   </g>
   <g id="patch_94">
    <path d="M 468.098847 242.527656 
L 472.081897 242.527656 
L 472.081897 242.527656 
L 468.098847 242.527656 
z
" clip-path="url(#p5f30df7607)" style="fill: #55a868; stroke: #ffffff; stroke-linejoin: miter"/>
   </g>
   <g id="patch_95">
    <path d="M 472.081897 242.527656 
L 476.064947 242.527656 
L 476.064947 242.527656 
L 472.081897 242.527656 
z
" clip-path="url(#p5f30df7607)" style="fill: #55a868; stroke: #ffffff; stroke-linejoin: miter"/>
   </g>
   <g id="patch_96">
    <path d="M 476.064947 242.527656 
L 480.047998 242.527656 
L 480.047998 242.178392 
L 476.064947 242.178392 
z
" clip-path="url(#p5f30df7607)" style="fill: #55a868; stroke: #ffffff; stroke-linejoin: miter"/>
   </g>
   <g id="patch_97">
    <path d="M 480.047998 242.527656 
L 484.031048 242.527656 
L 484.031048 242.527656 
L 480.047998 242.527656 
z
" clip-path="url(#p5f30df7607)" style="fill: #55a868; stroke: #ffffff; stroke-linejoin: miter"/>
   </g>
   <g id="patch_98">
    <path d="M 484.031048 242.527656 
L 488.014099 242.527656 
L 488.014099 242.527656 
L 484.031048 242.527656 
z
" clip-path="url(#p5f30df7607)" style="fill: #55a868; stroke: #ffffff; stroke-linejoin: miter"/>
   </g>
   <g id="patch_99">
    <path d="M 488.014099 242.527656 
L 491.997149 242.527656 
L 491.997149 242.44034 
L 488.014099 242.44034 
z
" clip-path="url(#p5f30df7607)" style="fill: #55a868; stroke: #ffffff; stroke-linejoin: miter"/>
   </g>
   <g id="patch_100">
    <path d="M 491.997149 242.527656 
L 495.980199 242.527656 
L 495.980199 242.527656 
L 491.997149 242.527656 
z
" clip-path="url(#p5f30df7607)" style="fill: #55a868; stroke: #ffffff; stroke-linejoin: miter"/>
   </g>
   <g id="patch_101">
    <path d="M 495.980199 242.527656 
L 499.96325 242.527656 
L 499.96325 242.527656 
L 495.980199 242.527656 
z
" clip-path="url(#p5f30df7607)" style="fill: #55a868; stroke: #ffffff; stroke-linejoin: miter"/>
   </g>
   <g id="patch_102">
    <path d="M 499.96325 242.527656 
L 503.9463 242.527656 
L 503.9463 242.44034 
L 499.96325 242.44034 
z
" clip-path="url(#p5f30df7607)" style="fill: #55a868; stroke: #ffffff; stroke-linejoin: miter"/>
   </g>
   <g id="patch_103">
    <path d="M 503.9463 242.527656 
L 507.92935 242.527656 
L 507.92935 242.44034 
L 503.9463 242.44034 
z
" clip-path="url(#p5f30df7607)" style="fill: #55a868; stroke: #ffffff; stroke-linejoin: miter"/>
   </g>
   <g id="patch_104">
    <path d="M 507.92935 242.527656 
L 511.912401 242.527656 
L 511.912401 242.265708 
L 507.92935 242.265708 
z
" clip-path="url(#p5f30df7607)" style="fill: #55a868; stroke: #ffffff; stroke-linejoin: miter"/>
   </g>
   <g id="patch_105">
    <path d="M 511.912401 242.527656 
L 515.895451 242.527656 
L 515.895451 242.178392 
L 511.912401 242.178392 
z
" clip-path="url(#p5f30df7607)" style="fill: #55a868; stroke: #ffffff; stroke-linejoin: miter"/>
   </g>
   <g id="patch_106">
    <path d="M 515.895451 242.527656 
L 519.878501 242.527656 
L 519.878501 242.353024 
L 515.895451 242.353024 
z
" clip-path="url(#p5f30df7607)" style="fill: #55a868; stroke: #ffffff; stroke-linejoin: miter"/>
   </g>
   <g id="patch_107">
    <path d="M 519.878501 242.527656 
L 523.861552 242.527656 
L 523.861552 242.265708 
L 519.878501 242.265708 
z
" clip-path="url(#p5f30df7607)" style="fill: #55a868; stroke: #ffffff; stroke-linejoin: miter"/>
   </g>
   <g id="patch_108">
    <path d="M 523.861552 242.527656 
L 527.844602 242.527656 
L 527.844602 242.265708 
L 523.861552 242.265708 
z
" clip-path="url(#p5f30df7607)" style="fill: #55a868; stroke: #ffffff; stroke-linejoin: miter"/>
   </g>
   <g id="patch_109">
    <path d="M 527.844602 242.527656 
L 531.827653 242.527656 
L 531.827653 242.265708 
L 527.844602 242.265708 
z
" clip-path="url(#p5f30df7607)" style="fill: #55a868; stroke: #ffffff; stroke-linejoin: miter"/>
   </g>
   <g id="patch_110">
    <path d="M 531.827653 242.527656 
L 535.810703 242.527656 
L 535.810703 242.091076 
L 531.827653 242.091076 
z
" clip-path="url(#p5f30df7607)" style="fill: #55a868; stroke: #ffffff; stroke-linejoin: miter"/>
   </g>
   <g id="patch_111">
    <path d="M 535.810703 242.527656 
L 539.793753 242.527656 
L 539.793753 242.44034 
L 535.810703 242.44034 
z
" clip-path="url(#p5f30df7607)" style="fill: #55a868; stroke: #ffffff; stroke-linejoin: miter"/>
   </g>
   <g id="patch_112">
    <path d="M 539.793753 242.527656 
L 543.776804 242.527656 
L 543.776804 216.594788 
L 539.793753 216.594788 
z
" clip-path="url(#p5f30df7607)" style="fill: #55a868; stroke: #ffffff; stroke-linejoin: miter"/>
   </g>
   <g id="patch_113">
    <path d="M 543.776804 242.527656 
L 547.759854 242.527656 
L 547.759854 242.527656 
L 543.776804 242.527656 
z
" clip-path="url(#p5f30df7607)" style="fill: #55a868; stroke: #ffffff; stroke-linejoin: miter"/>
   </g>
   <g id="patch_114">
    <path d="M 547.759854 242.527656 
L 551.742904 242.527656 
L 551.742904 31.746704 
L 547.759854 31.746704 
z
" clip-path="url(#p5f30df7607)" style="fill: #55a868; stroke: #ffffff; stroke-linejoin: miter"/>
   </g>
   <g id="patch_115">
    <path d="M 551.742904 242.527656 
L 555.725955 242.527656 
L 555.725955 242.527656 
L 551.742904 242.527656 
z
" clip-path="url(#p5f30df7607)" style="fill: #55a868; stroke: #ffffff; stroke-linejoin: miter"/>
   </g>
   <g id="patch_116">
    <path d="M 555.725955 242.527656 
L 559.709005 242.527656 
L 559.709005 242.527656 
L 555.725955 242.527656 
z
" clip-path="url(#p5f30df7607)" style="fill: #55a868; stroke: #ffffff; stroke-linejoin: miter"/>
   </g>
   <g id="patch_117">
    <path d="M 559.709005 242.527656 
L 563.692055 242.527656 
L 563.692055 242.527656 
L 559.709005 242.527656 
z
" clip-path="url(#p5f30df7607)" style="fill: #55a868; stroke: #ffffff; stroke-linejoin: miter"/>
   </g>
   <g id="patch_118">
    <path d="M 563.692055 242.527656 
L 567.675106 242.527656 
L 567.675106 242.527656 
L 563.692055 242.527656 
z
" clip-path="url(#p5f30df7607)" style="fill: #55a868; stroke: #ffffff; stroke-linejoin: miter"/>
   </g>
   <g id="patch_119">
    <path d="M 567.675106 242.527656 
L 571.658156 242.527656 
L 571.658156 242.527656 
L 567.675106 242.527656 
z
" clip-path="url(#p5f30df7607)" style="fill: #55a868; stroke: #ffffff; stroke-linejoin: miter"/>
   </g>
   <g id="patch_120">
    <path d="M 571.658156 242.527656 
L 575.641206 242.527656 
L 575.641206 242.527656 
L 571.658156 242.527656 
z
" clip-path="url(#p5f30df7607)" style="fill: #55a868; stroke: #ffffff; stroke-linejoin: miter"/>
   </g>
   <g id="patch_121">
    <path d="M 575.641206 242.527656 
L 579.624257 242.527656 
L 579.624257 242.527656 
L 575.641206 242.527656 
z
" clip-path="url(#p5f30df7607)" style="fill: #55a868; stroke: #ffffff; stroke-linejoin: miter"/>
   </g>
   <g id="patch_122">
    <path d="M 579.624257 242.527656 
L 583.607307 242.527656 
L 583.607307 242.527656 
L 579.624257 242.527656 
z
" clip-path="url(#p5f30df7607)" style="fill: #55a868; stroke: #ffffff; stroke-linejoin: miter"/>
   </g>
   <g id="patch_123">
    <path d="M 583.607307 242.527656 
L 587.590358 242.527656 
L 587.590358 242.527656 
L 583.607307 242.527656 
z
" clip-path="url(#p5f30df7607)" style="fill: #55a868; stroke: #ffffff; stroke-linejoin: miter"/>
   </g>
   <g id="patch_124">
    <path d="M 587.590358 242.527656 
L 591.573408 242.527656 
L 591.573408 242.527656 
L 587.590358 242.527656 
z
" clip-path="url(#p5f30df7607)" style="fill: #55a868; stroke: #ffffff; stroke-linejoin: miter"/>
   </g>
   <g id="patch_125">
    <path d="M 591.573408 242.527656 
L 595.556458 242.527656 
L 595.556458 242.527656 
L 591.573408 242.527656 
z
" clip-path="url(#p5f30df7607)" style="fill: #55a868; stroke: #ffffff; stroke-linejoin: miter"/>
   </g>
   <g id="patch_126">
    <path d="M 595.556458 242.527656 
L 599.539509 242.527656 
L 599.539509 242.527656 
L 595.556458 242.527656 
z
" clip-path="url(#p5f30df7607)" style="fill: #55a868; stroke: #ffffff; stroke-linejoin: miter"/>
   </g>
   <g id="patch_127">
    <path d="M 599.539509 242.527656 
L 603.522559 242.527656 
L 603.522559 235.891636 
L 599.539509 235.891636 
z
" clip-path="url(#p5f30df7607)" style="fill: #55a868; stroke: #ffffff; stroke-linejoin: miter"/>
   </g>
   <g id="patch_128">
    <path d="M 352.590386 242.527656 
L 352.590386 21.207656 
" style="fill: none; stroke: #cccccc; stroke-width: 0.8; stroke-linejoin: miter; stroke-linecap: square"/>
   </g>
   <g id="patch_129">
    <path d="M 615.47171 242.527656 
L 615.47171 21.207656 
" style="fill: none; stroke: #cccccc; stroke-width: 0.8; stroke-linejoin: miter; stroke-linecap: square"/>
   </g>
   <g id="patch_130">
    <path d="M 352.590386 242.527656 
L 615.47171 242.527656 
" style="fill: none; stroke: #cccccc; stroke-width: 0.8; stroke-linejoin: miter; stroke-linecap: square"/>
   </g>
   <g id="patch_131">
    <path d="M 352.590386 21.207656 
L 615.47171 21.207656 
" style="fill: none; stroke: #cccccc; stroke-width: 0.8; stroke-linejoin: miter; stroke-linecap: square"/>
   </g>
   <g id="text_27">
    <!-- Distribución de height (px) -->
    <g style="fill: #262626" transform="translate(420.143392 15.207656) scale(0.11 -0.11)">
     <use xlink:href="#ArialMT-44"/>
     <use xlink:href="#ArialMT-69" transform="translate(72.216797 0)"/>
     <use xlink:href="#ArialMT-73" transform="translate(94.433594 0)"/>
     <use xlink:href="#ArialMT-74" transform="translate(144.433594 0)"/>
     <use xlink:href="#ArialMT-72" transform="translate(172.216797 0)"/>
     <use xlink:href="#ArialMT-69" transform="translate(205.517578 0)"/>
     <use xlink:href="#ArialMT-62" transform="translate(227.734375 0)"/>
     <use xlink:href="#ArialMT-75" transform="translate(283.349609 0)"/>
     <use xlink:href="#ArialMT-63" transform="translate(338.964844 0)"/>
     <use xlink:href="#ArialMT-69" transform="translate(388.964844 0)"/>
     <use xlink:href="#ArialMT-f3" transform="translate(411.181641 0)"/>
     <use xlink:href="#ArialMT-6e" transform="translate(466.796875 0)"/>
     <use xlink:href="#ArialMT-20" transform="translate(522.412109 0)"/>
     <use xlink:href="#ArialMT-64" transform="translate(550.195312 0)"/>
     <use xlink:href="#ArialMT-65" transform="translate(605.810547 0)"/>
     <use xlink:href="#ArialMT-20" transform="translate(661.425781 0)"/>
     <use xlink:href="#ArialMT-68" transform="translate(689.208984 0)"/>
     <use xlink:href="#ArialMT-65" transform="translate(744.824219 0)"/>
     <use xlink:href="#ArialMT-69" transform="translate(800.439453 0)"/>
     <use xlink:href="#ArialMT-67" transform="translate(822.65625 0)"/>
     <use xlink:href="#ArialMT-68" transform="translate(878.271484 0)"/>
     <use xlink:href="#ArialMT-74" transform="translate(933.886719 0)"/>
     <use xlink:href="#ArialMT-20" transform="translate(961.669922 0)"/>
     <use xlink:href="#ArialMT-28" transform="translate(989.453125 0)"/>
     <use xlink:href="#ArialMT-70" transform="translate(1022.753906 0)"/>
     <use xlink:href="#ArialMT-78" transform="translate(1078.369141 0)"/>
     <use xlink:href="#ArialMT-29" transform="translate(1128.369141 0)"/>
    </g>
   </g>
  </g>
  <g id="axes_3">
   <g id="patch_132">
    <path d="M 655.59171 242.527656 
L 918.473034 242.527656 
L 918.473034 21.207656 
L 655.59171 21.207656 
z
" style="fill: #ffffff"/>
   </g>
   <g id="matplotlib.axis_5">
    <g id="xtick_11">
     <g id="line2d_23">
      <path d="M 683.040514 242.527656 
L 683.040514 21.207656 
" clip-path="url(#p68d2d1a2ed)" style="fill: none; stroke: #cccccc; stroke-width: 0.8; stroke-linecap: round"/>
     </g>
     <g id="text_28">
      <!-- 0.5 -->
      <g style="fill: #262626" transform="translate(676.090514 256.685469) scale(0.1 -0.1)">
       <defs>
        <path id="ArialMT-2e" d="M 581 0 
L 581 641 
L 1222 641 
L 1222 0 
L 581 0 
z
" transform="scale(0.015625)"/>
       </defs>
       <use xlink:href="#ArialMT-30"/>
       <use xlink:href="#ArialMT-2e" transform="translate(55.615234 0)"/>
       <use xlink:href="#ArialMT-35" transform="translate(83.398438 0)"/>
      </g>
     </g>
    </g>
    <g id="xtick_12">
     <g id="line2d_24">
      <path d="M 716.563019 242.527656 
L 716.563019 21.207656 
" clip-path="url(#p68d2d1a2ed)" style="fill: none; stroke: #cccccc; stroke-width: 0.8; stroke-linecap: round"/>
     </g>
     <g id="text_29">
      <!-- 1.0 -->
      <g style="fill: #262626" transform="translate(709.613019 256.685469) scale(0.1 -0.1)">
       <use xlink:href="#ArialMT-31"/>
       <use xlink:href="#ArialMT-2e" transform="translate(55.615234 0)"/>
       <use xlink:href="#ArialMT-30" transform="translate(83.398438 0)"/>
      </g>
     </g>
    </g>
    <g id="xtick_13">
     <g id="line2d_25">
      <path d="M 750.085525 242.527656 
L 750.085525 21.207656 
" clip-path="url(#p68d2d1a2ed)" style="fill: none; stroke: #cccccc; stroke-width: 0.8; stroke-linecap: round"/>
     </g>
     <g id="text_30">
      <!-- 1.5 -->
      <g style="fill: #262626" transform="translate(743.135525 256.685469) scale(0.1 -0.1)">
       <use xlink:href="#ArialMT-31"/>
       <use xlink:href="#ArialMT-2e" transform="translate(55.615234 0)"/>
       <use xlink:href="#ArialMT-35" transform="translate(83.398438 0)"/>
      </g>
     </g>
    </g>
    <g id="xtick_14">
     <g id="line2d_26">
      <path d="M 783.60803 242.527656 
L 783.60803 21.207656 
" clip-path="url(#p68d2d1a2ed)" style="fill: none; stroke: #cccccc; stroke-width: 0.8; stroke-linecap: round"/>
     </g>
     <g id="text_31">
      <!-- 2.0 -->
      <g style="fill: #262626" transform="translate(776.65803 256.685469) scale(0.1 -0.1)">
       <use xlink:href="#ArialMT-32"/>
       <use xlink:href="#ArialMT-2e" transform="translate(55.615234 0)"/>
       <use xlink:href="#ArialMT-30" transform="translate(83.398438 0)"/>
      </g>
     </g>
    </g>
    <g id="xtick_15">
     <g id="line2d_27">
      <path d="M 817.130535 242.527656 
L 817.130535 21.207656 
" clip-path="url(#p68d2d1a2ed)" style="fill: none; stroke: #cccccc; stroke-width: 0.8; stroke-linecap: round"/>
     </g>
     <g id="text_32">
      <!-- 2.5 -->
      <g style="fill: #262626" transform="translate(810.180535 256.685469) scale(0.1 -0.1)">
       <use xlink:href="#ArialMT-32"/>
       <use xlink:href="#ArialMT-2e" transform="translate(55.615234 0)"/>
       <use xlink:href="#ArialMT-35" transform="translate(83.398438 0)"/>
      </g>
     </g>
    </g>
    <g id="xtick_16">
     <g id="line2d_28">
      <path d="M 850.653041 242.527656 
L 850.653041 21.207656 
" clip-path="url(#p68d2d1a2ed)" style="fill: none; stroke: #cccccc; stroke-width: 0.8; stroke-linecap: round"/>
     </g>
     <g id="text_33">
      <!-- 3.0 -->
      <g style="fill: #262626" transform="translate(843.703041 256.685469) scale(0.1 -0.1)">
       <use xlink:href="#ArialMT-33"/>
       <use xlink:href="#ArialMT-2e" transform="translate(55.615234 0)"/>
       <use xlink:href="#ArialMT-30" transform="translate(83.398438 0)"/>
      </g>
     </g>
    </g>
    <g id="xtick_17">
     <g id="line2d_29">
      <path d="M 884.175546 242.527656 
L 884.175546 21.207656 
" clip-path="url(#p68d2d1a2ed)" style="fill: none; stroke: #cccccc; stroke-width: 0.8; stroke-linecap: round"/>
     </g>
     <g id="text_34">
      <!-- 3.5 -->
      <g style="fill: #262626" transform="translate(877.225546 256.685469) scale(0.1 -0.1)">
       <use xlink:href="#ArialMT-33"/>
       <use xlink:href="#ArialMT-2e" transform="translate(55.615234 0)"/>
       <use xlink:href="#ArialMT-35" transform="translate(83.398438 0)"/>
      </g>
     </g>
    </g>
    <g id="xtick_18">
     <g id="line2d_30">
      <path d="M 917.698051 242.527656 
L 917.698051 21.207656 
" clip-path="url(#p68d2d1a2ed)" style="fill: none; stroke: #cccccc; stroke-width: 0.8; stroke-linecap: round"/>
     </g>
     <g id="text_35">
      <!-- 4.0 -->
      <g style="fill: #262626" transform="translate(910.748051 256.685469) scale(0.1 -0.1)">
       <use xlink:href="#ArialMT-34"/>
       <use xlink:href="#ArialMT-2e" transform="translate(55.615234 0)"/>
       <use xlink:href="#ArialMT-30" transform="translate(83.398438 0)"/>
      </g>
     </g>
    </g>
    <g id="text_36">
     <!-- Aspect ratio -->
     <g style="fill: #262626" transform="translate(760.632372 269.830781) scale(0.1 -0.1)">
      <defs>
       <path id="ArialMT-41" d="M -9 0 
L 1750 4581 
L 2403 4581 
L 4278 0 
L 3588 0 
L 3053 1388 
L 1138 1388 
L 634 0 
L -9 0 
z
M 1313 1881 
L 2866 1881 
L 2388 3150 
Q 2169 3728 2063 4100 
Q 1975 3659 1816 3225 
L 1313 1881 
z
" transform="scale(0.015625)"/>
       <path id="ArialMT-6f" d="M 213 1659 
Q 213 2581 725 3025 
Q 1153 3394 1769 3394 
Q 2453 3394 2887 2945 
Q 3322 2497 3322 1706 
Q 3322 1066 3130 698 
Q 2938 331 2570 128 
Q 2203 -75 1769 -75 
Q 1072 -75 642 372 
Q 213 819 213 1659 
z
M 791 1659 
Q 791 1022 1069 705 
Q 1347 388 1769 388 
Q 2188 388 2466 706 
Q 2744 1025 2744 1678 
Q 2744 2294 2464 2611 
Q 2184 2928 1769 2928 
Q 1347 2928 1069 2612 
Q 791 2297 791 1659 
z
" transform="scale(0.015625)"/>
      </defs>
      <use xlink:href="#ArialMT-41"/>
      <use xlink:href="#ArialMT-73" transform="translate(66.699219 0)"/>
      <use xlink:href="#ArialMT-70" transform="translate(116.699219 0)"/>
      <use xlink:href="#ArialMT-65" transform="translate(172.314453 0)"/>
      <use xlink:href="#ArialMT-63" transform="translate(227.929688 0)"/>
      <use xlink:href="#ArialMT-74" transform="translate(277.929688 0)"/>
      <use xlink:href="#ArialMT-20" transform="translate(305.712891 0)"/>
      <use xlink:href="#ArialMT-72" transform="translate(333.496094 0)"/>
      <use xlink:href="#ArialMT-61" transform="translate(366.796875 0)"/>
      <use xlink:href="#ArialMT-74" transform="translate(422.412109 0)"/>
      <use xlink:href="#ArialMT-69" transform="translate(450.195312 0)"/>
      <use xlink:href="#ArialMT-6f" transform="translate(472.412109 0)"/>
     </g>
    </g>
   </g>
   <g id="matplotlib.axis_6">
    <g id="ytick_13">
     <g id="line2d_31">
      <path d="M 655.59171 242.527656 
L 918.473034 242.527656 
" clip-path="url(#p68d2d1a2ed)" style="fill: none; stroke: #cccccc; stroke-width: 0.8; stroke-linecap: round"/>
     </g>
     <g id="text_37">
      <!-- 0 -->
      <g style="fill: #262626" transform="translate(643.030773 246.106563) scale(0.1 -0.1)">
       <use xlink:href="#ArialMT-30"/>
      </g>
     </g>
    </g>
    <g id="ytick_14">
     <g id="line2d_32">
      <path d="M 655.59171 212.998243 
L 918.473034 212.998243 
" clip-path="url(#p68d2d1a2ed)" style="fill: none; stroke: #cccccc; stroke-width: 0.8; stroke-linecap: round"/>
     </g>
     <g id="text_38">
      <!-- 500 -->
      <g style="fill: #262626" transform="translate(631.908898 216.577149) scale(0.1 -0.1)">
       <use xlink:href="#ArialMT-35"/>
       <use xlink:href="#ArialMT-30" transform="translate(55.615234 0)"/>
       <use xlink:href="#ArialMT-30" transform="translate(111.230469 0)"/>
      </g>
     </g>
    </g>
    <g id="ytick_15">
     <g id="line2d_33">
      <path d="M 655.59171 183.46883 
L 918.473034 183.46883 
" clip-path="url(#p68d2d1a2ed)" style="fill: none; stroke: #cccccc; stroke-width: 0.8; stroke-linecap: round"/>
     </g>
     <g id="text_39">
      <!-- 1000 -->
      <g style="fill: #262626" transform="translate(626.34796 187.047736) scale(0.1 -0.1)">
       <use xlink:href="#ArialMT-31"/>
       <use xlink:href="#ArialMT-30" transform="translate(55.615234 0)"/>
       <use xlink:href="#ArialMT-30" transform="translate(111.230469 0)"/>
       <use xlink:href="#ArialMT-30" transform="translate(166.845703 0)"/>
      </g>
     </g>
    </g>
    <g id="ytick_16">
     <g id="line2d_34">
      <path d="M 655.59171 153.939416 
L 918.473034 153.939416 
" clip-path="url(#p68d2d1a2ed)" style="fill: none; stroke: #cccccc; stroke-width: 0.8; stroke-linecap: round"/>
     </g>
     <g id="text_40">
      <!-- 1500 -->
      <g style="fill: #262626" transform="translate(626.34796 157.518322) scale(0.1 -0.1)">
       <use xlink:href="#ArialMT-31"/>
       <use xlink:href="#ArialMT-35" transform="translate(55.615234 0)"/>
       <use xlink:href="#ArialMT-30" transform="translate(111.230469 0)"/>
       <use xlink:href="#ArialMT-30" transform="translate(166.845703 0)"/>
      </g>
     </g>
    </g>
    <g id="ytick_17">
     <g id="line2d_35">
      <path d="M 655.59171 124.410003 
L 918.473034 124.410003 
" clip-path="url(#p68d2d1a2ed)" style="fill: none; stroke: #cccccc; stroke-width: 0.8; stroke-linecap: round"/>
     </g>
     <g id="text_41">
      <!-- 2000 -->
      <g style="fill: #262626" transform="translate(626.34796 127.988909) scale(0.1 -0.1)">
       <use xlink:href="#ArialMT-32"/>
       <use xlink:href="#ArialMT-30" transform="translate(55.615234 0)"/>
       <use xlink:href="#ArialMT-30" transform="translate(111.230469 0)"/>
       <use xlink:href="#ArialMT-30" transform="translate(166.845703 0)"/>
      </g>
     </g>
    </g>
    <g id="ytick_18">
     <g id="line2d_36">
      <path d="M 655.59171 94.88059 
L 918.473034 94.88059 
" clip-path="url(#p68d2d1a2ed)" style="fill: none; stroke: #cccccc; stroke-width: 0.8; stroke-linecap: round"/>
     </g>
     <g id="text_42">
      <!-- 2500 -->
      <g style="fill: #262626" transform="translate(626.34796 98.459496) scale(0.1 -0.1)">
       <use xlink:href="#ArialMT-32"/>
       <use xlink:href="#ArialMT-35" transform="translate(55.615234 0)"/>
       <use xlink:href="#ArialMT-30" transform="translate(111.230469 0)"/>
       <use xlink:href="#ArialMT-30" transform="translate(166.845703 0)"/>
      </g>
     </g>
    </g>
    <g id="ytick_19">
     <g id="line2d_37">
      <path d="M 655.59171 65.351176 
L 918.473034 65.351176 
" clip-path="url(#p68d2d1a2ed)" style="fill: none; stroke: #cccccc; stroke-width: 0.8; stroke-linecap: round"/>
     </g>
     <g id="text_43">
      <!-- 3000 -->
      <g style="fill: #262626" transform="translate(626.34796 68.930082) scale(0.1 -0.1)">
       <use xlink:href="#ArialMT-33"/>
       <use xlink:href="#ArialMT-30" transform="translate(55.615234 0)"/>
       <use xlink:href="#ArialMT-30" transform="translate(111.230469 0)"/>
       <use xlink:href="#ArialMT-30" transform="translate(166.845703 0)"/>
      </g>
     </g>
    </g>
    <g id="ytick_20">
     <g id="line2d_38">
      <path d="M 655.59171 35.821763 
L 918.473034 35.821763 
" clip-path="url(#p68d2d1a2ed)" style="fill: none; stroke: #cccccc; stroke-width: 0.8; stroke-linecap: round"/>
     </g>
     <g id="text_44">
      <!-- 3500 -->
      <g style="fill: #262626" transform="translate(626.34796 39.400669) scale(0.1 -0.1)">
       <use xlink:href="#ArialMT-33"/>
       <use xlink:href="#ArialMT-35" transform="translate(55.615234 0)"/>
       <use xlink:href="#ArialMT-30" transform="translate(111.230469 0)"/>
       <use xlink:href="#ArialMT-30" transform="translate(166.845703 0)"/>
      </g>
     </g>
    </g>
   </g>
   <g id="patch_133">
    <path d="M 667.540861 242.527656 
L 671.523912 242.527656 
L 671.523912 239.870009 
L 667.540861 239.870009 
z
" clip-path="url(#p68d2d1a2ed)" style="fill: #c44e52; stroke: #ffffff; stroke-linejoin: miter"/>
   </g>
   <g id="patch_134">
    <path d="M 671.523912 242.527656 
L 675.506962 242.527656 
L 675.506962 236.976127 
L 671.523912 236.976127 
z
" clip-path="url(#p68d2d1a2ed)" style="fill: #c44e52; stroke: #ffffff; stroke-linejoin: miter"/>
   </g>
   <g id="patch_135">
    <path d="M 675.506962 242.527656 
L 679.490012 242.527656 
L 679.490012 238.629774 
L 675.506962 238.629774 
z
" clip-path="url(#p68d2d1a2ed)" style="fill: #c44e52; stroke: #ffffff; stroke-linejoin: miter"/>
   </g>
   <g id="patch_136">
    <path d="M 679.490012 242.527656 
L 683.473063 242.527656 
L 683.473063 235.145303 
L 679.490012 235.145303 
z
" clip-path="url(#p68d2d1a2ed)" style="fill: #c44e52; stroke: #ffffff; stroke-linejoin: miter"/>
   </g>
   <g id="patch_137">
    <path d="M 683.473063 242.527656 
L 687.456113 242.527656 
L 687.456113 232.605773 
L 683.473063 232.605773 
z
" clip-path="url(#p68d2d1a2ed)" style="fill: #c44e52; stroke: #ffffff; stroke-linejoin: miter"/>
   </g>
   <g id="patch_138">
    <path d="M 687.456113 242.527656 
L 691.439163 242.527656 
L 691.439163 239.279421 
L 687.456113 239.279421 
z
" clip-path="url(#p68d2d1a2ed)" style="fill: #c44e52; stroke: #ffffff; stroke-linejoin: miter"/>
   </g>
   <g id="patch_139">
    <path d="M 691.439163 242.527656 
L 695.422214 242.527656 
L 695.422214 238.866009 
L 691.439163 238.866009 
z
" clip-path="url(#p68d2d1a2ed)" style="fill: #c44e52; stroke: #ffffff; stroke-linejoin: miter"/>
   </g>
   <g id="patch_140">
    <path d="M 695.422214 242.527656 
L 699.405264 242.527656 
L 699.405264 239.633774 
L 695.422214 239.633774 
z
" clip-path="url(#p68d2d1a2ed)" style="fill: #c44e52; stroke: #ffffff; stroke-linejoin: miter"/>
   </g>
   <g id="patch_141">
    <path d="M 699.405264 242.527656 
L 703.388314 242.527656 
L 703.388314 214.829067 
L 699.405264 214.829067 
z
" clip-path="url(#p68d2d1a2ed)" style="fill: #c44e52; stroke: #ffffff; stroke-linejoin: miter"/>
   </g>
   <g id="patch_142">
    <path d="M 703.388314 242.527656 
L 707.371365 242.527656 
L 707.371365 230.302479 
L 703.388314 230.302479 
z
" clip-path="url(#p68d2d1a2ed)" style="fill: #c44e52; stroke: #ffffff; stroke-linejoin: miter"/>
   </g>
   <g id="patch_143">
    <path d="M 707.371365 242.527656 
L 711.354415 242.527656 
L 711.354415 224.573773 
L 707.371365 224.573773 
z
" clip-path="url(#p68d2d1a2ed)" style="fill: #c44e52; stroke: #ffffff; stroke-linejoin: miter"/>
   </g>
   <g id="patch_144">
    <path d="M 711.354415 242.527656 
L 715.337465 242.527656 
L 715.337465 211.994243 
L 711.354415 211.994243 
z
" clip-path="url(#p68d2d1a2ed)" style="fill: #c44e52; stroke: #ffffff; stroke-linejoin: miter"/>
   </g>
   <g id="patch_145">
    <path d="M 715.337465 242.527656 
L 719.320516 242.527656 
L 719.320516 31.746704 
L 715.337465 31.746704 
z
" clip-path="url(#p68d2d1a2ed)" style="fill: #c44e52; stroke: #ffffff; stroke-linejoin: miter"/>
   </g>
   <g id="patch_146">
    <path d="M 719.320516 242.527656 
L 723.303566 242.527656 
L 723.303566 214.770008 
L 719.320516 214.770008 
z
" clip-path="url(#p68d2d1a2ed)" style="fill: #c44e52; stroke: #ffffff; stroke-linejoin: miter"/>
   </g>
   <g id="patch_147">
    <path d="M 723.303566 242.527656 
L 727.286617 242.527656 
L 727.286617 219.730949 
L 723.303566 219.730949 
z
" clip-path="url(#p68d2d1a2ed)" style="fill: #c44e52; stroke: #ffffff; stroke-linejoin: miter"/>
   </g>
   <g id="patch_148">
    <path d="M 727.286617 242.527656 
L 731.269667 242.527656 
L 731.269667 225.046244 
L 727.286617 225.046244 
z
" clip-path="url(#p68d2d1a2ed)" style="fill: #c44e52; stroke: #ffffff; stroke-linejoin: miter"/>
   </g>
   <g id="patch_149">
    <path d="M 731.269667 242.527656 
L 735.252717 242.527656 
L 735.252717 232.074244 
L 731.269667 232.074244 
z
" clip-path="url(#p68d2d1a2ed)" style="fill: #c44e52; stroke: #ffffff; stroke-linejoin: miter"/>
   </g>
   <g id="patch_150">
    <path d="M 735.252717 242.527656 
L 739.235768 242.527656 
L 739.235768 218.431655 
L 735.252717 218.431655 
z
" clip-path="url(#p68d2d1a2ed)" style="fill: #c44e52; stroke: #ffffff; stroke-linejoin: miter"/>
   </g>
   <g id="patch_151">
    <path d="M 739.235768 242.527656 
L 743.218818 242.527656 
L 743.218818 240.34248 
L 739.235768 240.34248 
z
" clip-path="url(#p68d2d1a2ed)" style="fill: #c44e52; stroke: #ffffff; stroke-linejoin: miter"/>
   </g>
   <g id="patch_152">
    <path d="M 743.218818 242.527656 
L 747.201868 242.527656 
L 747.201868 238.216362 
L 743.218818 238.216362 
z
" clip-path="url(#p68d2d1a2ed)" style="fill: #c44e52; stroke: #ffffff; stroke-linejoin: miter"/>
   </g>
   <g id="patch_153">
    <path d="M 747.201868 242.527656 
L 751.184919 242.527656 
L 751.184919 239.574715 
L 747.201868 239.574715 
z
" clip-path="url(#p68d2d1a2ed)" style="fill: #c44e52; stroke: #ffffff; stroke-linejoin: miter"/>
   </g>
   <g id="patch_154">
    <path d="M 751.184919 242.527656 
L 755.167969 242.527656 
L 755.167969 241.110244 
L 751.184919 241.110244 
z
" clip-path="url(#p68d2d1a2ed)" style="fill: #c44e52; stroke: #ffffff; stroke-linejoin: miter"/>
   </g>
   <g id="patch_155">
    <path d="M 755.167969 242.527656 
L 759.151019 242.527656 
L 759.151019 241.582715 
L 755.167969 241.582715 
z
" clip-path="url(#p68d2d1a2ed)" style="fill: #c44e52; stroke: #ffffff; stroke-linejoin: miter"/>
   </g>
   <g id="patch_156">
    <path d="M 759.151019 242.527656 
L 763.13407 242.527656 
L 763.13407 241.228362 
L 759.151019 241.228362 
z
" clip-path="url(#p68d2d1a2ed)" style="fill: #c44e52; stroke: #ffffff; stroke-linejoin: miter"/>
   </g>
   <g id="patch_157">
    <path d="M 763.13407 242.527656 
L 767.11712 242.527656 
L 767.11712 239.751891 
L 763.13407 239.751891 
z
" clip-path="url(#p68d2d1a2ed)" style="fill: #c44e52; stroke: #ffffff; stroke-linejoin: miter"/>
   </g>
   <g id="patch_158">
    <path d="M 767.11712 242.527656 
L 771.100171 242.527656 
L 771.100171 166.518946 
L 767.11712 166.518946 
z
" clip-path="url(#p68d2d1a2ed)" style="fill: #c44e52; stroke: #ffffff; stroke-linejoin: miter"/>
   </g>
   <g id="patch_159">
    <path d="M 771.100171 242.527656 
L 775.083221 242.527656 
L 775.083221 240.874009 
L 771.100171 240.874009 
z
" clip-path="url(#p68d2d1a2ed)" style="fill: #c44e52; stroke: #ffffff; stroke-linejoin: miter"/>
   </g>
   <g id="patch_160">
    <path d="M 775.083221 242.527656 
L 779.066271 242.527656 
L 779.066271 239.515656 
L 775.083221 239.515656 
z
" clip-path="url(#p68d2d1a2ed)" style="fill: #c44e52; stroke: #ffffff; stroke-linejoin: miter"/>
   </g>
   <g id="patch_161">
    <path d="M 779.066271 242.527656 
L 783.049322 242.527656 
L 783.049322 241.878009 
L 779.066271 241.878009 
z
" clip-path="url(#p68d2d1a2ed)" style="fill: #c44e52; stroke: #ffffff; stroke-linejoin: miter"/>
   </g>
   <g id="patch_162">
    <path d="M 783.049322 242.527656 
L 787.032372 242.527656 
L 787.032372 240.283421 
L 783.049322 240.283421 
z
" clip-path="url(#p68d2d1a2ed)" style="fill: #c44e52; stroke: #ffffff; stroke-linejoin: miter"/>
   </g>
   <g id="patch_163">
    <path d="M 787.032372 242.527656 
L 791.015422 242.527656 
L 791.015422 241.523656 
L 787.032372 241.523656 
z
" clip-path="url(#p68d2d1a2ed)" style="fill: #c44e52; stroke: #ffffff; stroke-linejoin: miter"/>
   </g>
   <g id="patch_164">
    <path d="M 791.015422 242.527656 
L 794.998473 242.527656 
L 794.998473 240.696833 
L 791.015422 240.696833 
z
" clip-path="url(#p68d2d1a2ed)" style="fill: #c44e52; stroke: #ffffff; stroke-linejoin: miter"/>
   </g>
   <g id="patch_165">
    <path d="M 794.998473 242.527656 
L 798.981523 242.527656 
L 798.981523 240.401538 
L 794.998473 240.401538 
z
" clip-path="url(#p68d2d1a2ed)" style="fill: #c44e52; stroke: #ffffff; stroke-linejoin: miter"/>
   </g>
   <g id="patch_166">
    <path d="M 798.981523 242.527656 
L 802.964573 242.527656 
L 802.964573 241.051186 
L 798.981523 241.051186 
z
" clip-path="url(#p68d2d1a2ed)" style="fill: #c44e52; stroke: #ffffff; stroke-linejoin: miter"/>
   </g>
   <g id="patch_167">
    <path d="M 802.964573 242.527656 
L 806.947624 242.527656 
L 806.947624 240.81495 
L 802.964573 240.81495 
z
" clip-path="url(#p68d2d1a2ed)" style="fill: #c44e52; stroke: #ffffff; stroke-linejoin: miter"/>
   </g>
   <g id="patch_168">
    <path d="M 806.947624 242.527656 
L 810.930674 242.527656 
L 810.930674 240.637774 
L 806.947624 240.637774 
z
" clip-path="url(#p68d2d1a2ed)" style="fill: #c44e52; stroke: #ffffff; stroke-linejoin: miter"/>
   </g>
   <g id="patch_169">
    <path d="M 810.930674 242.527656 
L 814.913725 242.527656 
L 814.913725 241.700833 
L 810.930674 241.700833 
z
" clip-path="url(#p68d2d1a2ed)" style="fill: #c44e52; stroke: #ffffff; stroke-linejoin: miter"/>
   </g>
   <g id="patch_170">
    <path d="M 814.913725 242.527656 
L 818.896775 242.527656 
L 818.896775 241.996127 
L 814.913725 241.996127 
z
" clip-path="url(#p68d2d1a2ed)" style="fill: #c44e52; stroke: #ffffff; stroke-linejoin: miter"/>
   </g>
   <g id="patch_171">
    <path d="M 818.896775 242.527656 
L 822.879825 242.527656 
L 822.879825 241.878009 
L 818.896775 241.878009 
z
" clip-path="url(#p68d2d1a2ed)" style="fill: #c44e52; stroke: #ffffff; stroke-linejoin: miter"/>
   </g>
   <g id="patch_172">
    <path d="M 822.879825 242.527656 
L 826.862876 242.527656 
L 826.862876 242.409539 
L 822.879825 242.409539 
z
" clip-path="url(#p68d2d1a2ed)" style="fill: #c44e52; stroke: #ffffff; stroke-linejoin: miter"/>
   </g>
   <g id="patch_173">
    <path d="M 826.862876 242.527656 
L 830.845926 242.527656 
L 830.845926 241.878009 
L 826.862876 241.878009 
z
" clip-path="url(#p68d2d1a2ed)" style="fill: #c44e52; stroke: #ffffff; stroke-linejoin: miter"/>
   </g>
   <g id="patch_174">
    <path d="M 830.845926 242.527656 
L 834.828976 242.527656 
L 834.828976 242.055186 
L 830.845926 242.055186 
z
" clip-path="url(#p68d2d1a2ed)" style="fill: #c44e52; stroke: #ffffff; stroke-linejoin: miter"/>
   </g>
   <g id="patch_175">
    <path d="M 834.828976 242.527656 
L 838.812027 242.527656 
L 838.812027 241.700833 
L 834.828976 241.700833 
z
" clip-path="url(#p68d2d1a2ed)" style="fill: #c44e52; stroke: #ffffff; stroke-linejoin: miter"/>
   </g>
   <g id="patch_176">
    <path d="M 838.812027 242.527656 
L 842.795077 242.527656 
L 842.795077 241.582715 
L 838.812027 241.582715 
z
" clip-path="url(#p68d2d1a2ed)" style="fill: #c44e52; stroke: #ffffff; stroke-linejoin: miter"/>
   </g>
   <g id="patch_177">
    <path d="M 842.795077 242.527656 
L 846.778127 242.527656 
L 846.778127 241.464597 
L 842.795077 241.464597 
z
" clip-path="url(#p68d2d1a2ed)" style="fill: #c44e52; stroke: #ffffff; stroke-linejoin: miter"/>
   </g>
   <g id="patch_178">
    <path d="M 846.778127 242.527656 
L 850.761178 242.527656 
L 850.761178 241.81895 
L 846.778127 241.81895 
z
" clip-path="url(#p68d2d1a2ed)" style="fill: #c44e52; stroke: #ffffff; stroke-linejoin: miter"/>
   </g>
   <g id="patch_179">
    <path d="M 850.761178 242.527656 
L 854.744228 242.527656 
L 854.744228 242.114244 
L 850.761178 242.114244 
z
" clip-path="url(#p68d2d1a2ed)" style="fill: #c44e52; stroke: #ffffff; stroke-linejoin: miter"/>
   </g>
   <g id="patch_180">
    <path d="M 854.744228 242.527656 
L 858.727278 242.527656 
L 858.727278 241.641774 
L 854.744228 241.641774 
z
" clip-path="url(#p68d2d1a2ed)" style="fill: #c44e52; stroke: #ffffff; stroke-linejoin: miter"/>
   </g>
   <g id="patch_181">
    <path d="M 858.727278 242.527656 
L 862.710329 242.527656 
L 862.710329 241.937068 
L 858.727278 241.937068 
z
" clip-path="url(#p68d2d1a2ed)" style="fill: #c44e52; stroke: #ffffff; stroke-linejoin: miter"/>
   </g>
   <g id="patch_182">
    <path d="M 862.710329 242.527656 
L 866.693379 242.527656 
L 866.693379 242.291421 
L 862.710329 242.291421 
z
" clip-path="url(#p68d2d1a2ed)" style="fill: #c44e52; stroke: #ffffff; stroke-linejoin: miter"/>
   </g>
   <g id="patch_183">
    <path d="M 866.693379 242.527656 
L 870.67643 242.527656 
L 870.67643 241.996127 
L 866.693379 241.996127 
z
" clip-path="url(#p68d2d1a2ed)" style="fill: #c44e52; stroke: #ffffff; stroke-linejoin: miter"/>
   </g>
   <g id="patch_184">
    <path d="M 870.67643 242.527656 
L 874.65948 242.527656 
L 874.65948 242.409539 
L 870.67643 242.409539 
z
" clip-path="url(#p68d2d1a2ed)" style="fill: #c44e52; stroke: #ffffff; stroke-linejoin: miter"/>
   </g>
   <g id="patch_185">
    <path d="M 874.65948 242.527656 
L 878.64253 242.527656 
L 878.64253 242.409539 
L 874.65948 242.409539 
z
" clip-path="url(#p68d2d1a2ed)" style="fill: #c44e52; stroke: #ffffff; stroke-linejoin: miter"/>
   </g>
   <g id="patch_186">
    <path d="M 878.64253 242.527656 
L 882.625581 242.527656 
L 882.625581 242.291421 
L 878.64253 242.291421 
z
" clip-path="url(#p68d2d1a2ed)" style="fill: #c44e52; stroke: #ffffff; stroke-linejoin: miter"/>
   </g>
   <g id="patch_187">
    <path d="M 882.625581 242.527656 
L 886.608631 242.527656 
L 886.608631 241.641774 
L 882.625581 241.641774 
z
" clip-path="url(#p68d2d1a2ed)" style="fill: #c44e52; stroke: #ffffff; stroke-linejoin: miter"/>
   </g>
   <g id="patch_188">
    <path d="M 886.608631 242.527656 
L 890.591681 242.527656 
L 890.591681 242.527656 
L 886.608631 242.527656 
z
" clip-path="url(#p68d2d1a2ed)" style="fill: #c44e52; stroke: #ffffff; stroke-linejoin: miter"/>
   </g>
   <g id="patch_189">
    <path d="M 890.591681 242.527656 
L 894.574732 242.527656 
L 894.574732 242.468597 
L 890.591681 242.468597 
z
" clip-path="url(#p68d2d1a2ed)" style="fill: #c44e52; stroke: #ffffff; stroke-linejoin: miter"/>
   </g>
   <g id="patch_190">
    <path d="M 894.574732 242.527656 
L 898.557782 242.527656 
L 898.557782 242.527656 
L 894.574732 242.527656 
z
" clip-path="url(#p68d2d1a2ed)" style="fill: #c44e52; stroke: #ffffff; stroke-linejoin: miter"/>
   </g>
   <g id="patch_191">
    <path d="M 898.557782 242.527656 
L 902.540832 242.527656 
L 902.540832 242.055186 
L 898.557782 242.055186 
z
" clip-path="url(#p68d2d1a2ed)" style="fill: #c44e52; stroke: #ffffff; stroke-linejoin: miter"/>
   </g>
   <g id="patch_192">
    <path d="M 902.540832 242.527656 
L 906.523883 242.527656 
L 906.523883 242.409539 
L 902.540832 242.409539 
z
" clip-path="url(#p68d2d1a2ed)" style="fill: #c44e52; stroke: #ffffff; stroke-linejoin: miter"/>
   </g>
   <g id="line2d_39">
    <path d="M 716.563019 242.527656 
L 716.563019 21.207656 
" clip-path="url(#p68d2d1a2ed)" style="fill: none; stroke-dasharray: 3.7,1.6; stroke-dashoffset: 0; stroke: #000000"/>
   </g>
   <g id="patch_193">
    <path d="M 655.59171 242.527656 
L 655.59171 21.207656 
" style="fill: none; stroke: #cccccc; stroke-width: 0.8; stroke-linejoin: miter; stroke-linecap: square"/>
   </g>
   <g id="patch_194">
    <path d="M 918.473034 242.527656 
L 918.473034 21.207656 
" style="fill: none; stroke: #cccccc; stroke-width: 0.8; stroke-linejoin: miter; stroke-linecap: square"/>
   </g>
   <g id="patch_195">
    <path d="M 655.59171 242.527656 
L 918.473034 242.527656 
" style="fill: none; stroke: #cccccc; stroke-width: 0.8; stroke-linejoin: miter; stroke-linecap: square"/>
   </g>
   <g id="patch_196">
    <path d="M 655.59171 21.207656 
L 918.473034 21.207656 
" style="fill: none; stroke: #cccccc; stroke-width: 0.8; stroke-linejoin: miter; stroke-linecap: square"/>
   </g>
   <g id="text_45">
    <!-- Aspect ratio (width / height) -->
    <g style="fill: #262626" transform="translate(720.394716 15.207656) scale(0.11 -0.11)">
     <defs>
      <path id="ArialMT-2f" d="M 0 -78 
L 1328 4659 
L 1778 4659 
L 453 -78 
L 0 -78 
z
" transform="scale(0.015625)"/>
     </defs>
     <use xlink:href="#ArialMT-41"/>
     <use xlink:href="#ArialMT-73" transform="translate(66.699219 0)"/>
     <use xlink:href="#ArialMT-70" transform="translate(116.699219 0)"/>
     <use xlink:href="#ArialMT-65" transform="translate(172.314453 0)"/>
     <use xlink:href="#ArialMT-63" transform="translate(227.929688 0)"/>
     <use xlink:href="#ArialMT-74" transform="translate(277.929688 0)"/>
     <use xlink:href="#ArialMT-20" transform="translate(305.712891 0)"/>
     <use xlink:href="#ArialMT-72" transform="translate(333.496094 0)"/>
     <use xlink:href="#ArialMT-61" transform="translate(366.796875 0)"/>
     <use xlink:href="#ArialMT-74" transform="translate(422.412109 0)"/>
     <use xlink:href="#ArialMT-69" transform="translate(450.195312 0)"/>
     <use xlink:href="#ArialMT-6f" transform="translate(472.412109 0)"/>
     <use xlink:href="#ArialMT-20" transform="translate(528.027344 0)"/>
     <use xlink:href="#ArialMT-28" transform="translate(555.810547 0)"/>
     <use xlink:href="#ArialMT-77" transform="translate(589.111328 0)"/>
     <use xlink:href="#ArialMT-69" transform="translate(661.328125 0)"/>
     <use xlink:href="#ArialMT-64" transform="translate(683.544922 0)"/>
     <use xlink:href="#ArialMT-74" transform="translate(739.160156 0)"/>
     <use xlink:href="#ArialMT-68" transform="translate(766.943359 0)"/>
     <use xlink:href="#ArialMT-20" transform="translate(822.558594 0)"/>
     <use xlink:href="#ArialMT-2f" transform="translate(850.341797 0)"/>
     <use xlink:href="#ArialMT-20" transform="translate(878.125 0)"/>
     <use xlink:href="#ArialMT-68" transform="translate(905.908203 0)"/>
     <use xlink:href="#ArialMT-65" transform="translate(961.523438 0)"/>
     <use xlink:href="#ArialMT-69" transform="translate(1017.138672 0)"/>
     <use xlink:href="#ArialMT-67" transform="translate(1039.355469 0)"/>
     <use xlink:href="#ArialMT-68" transform="translate(1094.970703 0)"/>
     <use xlink:href="#ArialMT-74" transform="translate(1150.585938 0)"/>
     <use xlink:href="#ArialMT-29" transform="translate(1178.369141 0)"/>
    </g>
   </g>
   <g id="legend_1">
    <g id="patch_197">
     <path d="M 795.576628 41.353594 
L 912.173034 41.353594 
Q 913.973034 41.353594 913.973034 39.553594 
L 913.973034 27.507656 
Q 913.973034 25.707656 912.173034 25.707656 
L 795.576628 25.707656 
Q 793.776628 25.707656 793.776628 27.507656 
L 793.776628 39.553594 
Q 793.776628 41.353594 795.576628 41.353594 
z
" style="fill: #ffffff; opacity: 0.8; stroke: #cccccc; stroke-linejoin: miter"/>
    </g>
    <g id="line2d_40">
     <path d="M 797.376628 32.709375 
L 806.376628 32.709375 
L 815.376628 32.709375 
" style="fill: none; stroke-dasharray: 3.7,1.6; stroke-dashoffset: 0; stroke: #000000"/>
    </g>
    <g id="text_46">
     <!-- aspect = 1 (cuadrada) -->
     <g style="fill: #262626" transform="translate(822.576628 35.859375) scale(0.09 -0.09)">
      <defs>
       <path id="ArialMT-3d" d="M 3381 2694 
L 356 2694 
L 356 3219 
L 3381 3219 
L 3381 2694 
z
M 3381 1303 
L 356 1303 
L 356 1828 
L 3381 1828 
L 3381 1303 
z
" transform="scale(0.015625)"/>
      </defs>
      <use xlink:href="#ArialMT-61"/>
      <use xlink:href="#ArialMT-73" transform="translate(55.615234 0)"/>
      <use xlink:href="#ArialMT-70" transform="translate(105.615234 0)"/>
      <use xlink:href="#ArialMT-65" transform="translate(161.230469 0)"/>
      <use xlink:href="#ArialMT-63" transform="translate(216.845703 0)"/>
      <use xlink:href="#ArialMT-74" transform="translate(266.845703 0)"/>
      <use xlink:href="#ArialMT-20" transform="translate(294.628906 0)"/>
      <use xlink:href="#ArialMT-3d" transform="translate(322.412109 0)"/>
      <use xlink:href="#ArialMT-20" transform="translate(380.810547 0)"/>
      <use xlink:href="#ArialMT-31" transform="translate(408.59375 0)"/>
      <use xlink:href="#ArialMT-20" transform="translate(464.208984 0)"/>
      <use xlink:href="#ArialMT-28" transform="translate(491.992188 0)"/>
      <use xlink:href="#ArialMT-63" transform="translate(525.292969 0)"/>
      <use xlink:href="#ArialMT-75" transform="translate(575.292969 0)"/>
      <use xlink:href="#ArialMT-61" transform="translate(630.908203 0)"/>
      <use xlink:href="#ArialMT-64" transform="translate(686.523438 0)"/>
      <use xlink:href="#ArialMT-72" transform="translate(742.138672 0)"/>
      <use xlink:href="#ArialMT-61" transform="translate(775.439453 0)"/>
      <use xlink:href="#ArialMT-64" transform="translate(831.054688 0)"/>
      <use xlink:href="#ArialMT-61" transform="translate(886.669922 0)"/>
      <use xlink:href="#ArialMT-29" transform="translate(942.285156 0)"/>
     </g>
    </g>
   </g>
  </g>
 </g>
 <defs>
  <clipPath id="pd2f3e0635e">
   <rect x="49.589063" y="21.207656" width="262.881324" height="221.32"/>
  </clipPath>
  <clipPath id="p5f30df7607">
   <rect x="352.590386" y="21.207656" width="262.881324" height="221.32"/>
  </clipPath>
  <clipPath id="p68d2d1a2ed">
   <rect x="655.59171" y="21.207656" width="262.881324" height="221.32"/>
  </clipPath>
 </defs>
</svg>
