<?xml version="1.0" encoding="utf-8" standalone="no"?>
<!DOCTYPE svg PUBLIC "-//W3C//DTD SVG 1.1//EN"
  "http://www.w3.org/Graphics/SVG/1.1/DTD/svg11.dtd">
<svg xmlns:xlink="http://www.w3.org/1999/xlink" width="933.225499pt" height="279.434531pt" viewBox="0 0 933.225499 279.434531" xmlns="http://www.w3.org/2000/svg" version="1.1">
 <metadata>
  <rdf:RDF xmlns:dc="http://purl.org/dc/elements/1.1/" xmlns:cc="http://creativecommons.org/ns#" xmlns:rdf="http://www.w3.org/1999/02/22-rdf-syntax-ns#">
   <cc:Work>
    <dc:type rdf:resource="http://purl.org/dc/dcmitype/StillImage"/>
    <dc:date>2026-06-06T05:47:28.530256</dc:date>
    <dc:format>image/svg+xml</dc:format>
    <dc:creator>
     <cc:Agent>
      <dc:title>Matplotlib v3.10.8, https://matplotlib.org/</dc:title>
     </cc:Agent>
    </dc:creator>
   </cc:Work>
  </rdf:RDF>
 </metadata>
 <defs>
  <style type="text/css">*{stroke-linejoin: round; stroke-linecap: butt}</style>
 </defs>
 <g id="figure_1">
  <g id="patch_1">
   <path d="M -0 279.434531 
L 933.225499 279.434531 
L 933.225499 0 
L -0 0 
z
" style="fill: #ffffff"/>
  </g>
  <g id="axes_1">
   <g id="patch_2">
    <path d="M 53.328125 241.878281 
L 312.198981 241.878281 
L 312.198981 21.998281 
L 53.328125 21.998281 
z
" style="fill: #ffffff"/>
   </g>
   <g id="matplotlib.axis_1">
    <g id="xtick_1">
     <g id="line2d_1">
      <path d="M 64.333752 241.878281 
L 64.333752 21.998281 
" clip-path="url(#p36774ea526)" style="fill: none; stroke: #cccccc; stroke-width: 0.8; stroke-linecap: round"/>
     </g>
     <g id="text_1">
      <!-- 0 -->
      <g style="fill: #262626" transform="translate(61.152502 256.476719) scale(0.1 -0.1)">
       <defs>
        <path id="DejaVuSans-30" d="M 2034 4250 
Q 1547 4250 1301 3770 
Q 1056 3291 1056 2328 
Q 1056 1369 1301 889 
Q 1547 409 2034 409 
Q 2525 409 2770 889 
Q 3016 1369 3016 2328 
Q 3016 3291 2770 3770 
Q 2525 4250 2034 4250 
z
M 2034 4750 
Q 2819 4750 3233 4129 
Q 3647 3509 3647 2328 
Q 3647 1150 3233 529 
Q 2819 -91 2034 -91 
Q 1250 -91 836 529 
Q 422 1150 422 2328 
Q 422 3509 836 4129 
Q 1250 4750 2034 4750 
z
" transform="scale(0.015625)"/>
       </defs>
       <use xlink:href="#DejaVuSans-30"/>
      </g>
     </g>
    </g>
    <g id="xtick_2">
     <g id="line2d_2">
      <path d="M 122.889896 241.878281 
L 122.889896 21.998281 
" clip-path="url(#p36774ea526)" style="fill: none; stroke: #cccccc; stroke-width: 0.8; stroke-linecap: round"/>
     </g>
     <g id="text_2">
      <!-- 1000 -->
      <g style="fill: #262626" transform="translate(110.164896 256.476719) scale(0.1 -0.1)">
       <defs>
        <path id="DejaVuSans-31" d="M 794 531 
L 1825 531 
L 1825 4091 
L 703 3866 
L 703 4441 
L 1819 4666 
L 2450 4666 
L 2450 531 
L 3481 531 
L 3481 0 
L 794 0 
L 794 531 
z
" transform="scale(0.015625)"/>
       </defs>
       <use xlink:href="#DejaVuSans-31"/>
       <use xlink:href="#DejaVuSans-30" transform="translate(63.623047 0)"/>
       <use xlink:href="#DejaVuSans-30" transform="translate(127.246094 0)"/>
       <use xlink:href="#DejaVuSans-30" transform="translate(190.869141 0)"/>
      </g>
     </g>
    </g>
    <g id="xtick_3">
     <g id="line2d_3">
      <path d="M 181.44604 241.878281 
L 181.44604 21.998281 
" clip-path="url(#p36774ea526)" style="fill: none; stroke: #cccccc; stroke-width: 0.8; stroke-linecap: round"/>
     </g>
     <g id="text_3">
      <!-- 2000 -->
      <g style="fill: #262626" transform="translate(168.72104 256.476719) scale(0.1 -0.1)">
       <defs>
        <path id="DejaVuSans-32" d="M 1228 531 
L 3431 531 
L 3431 0 
L 469 0 
L 469 531 
Q 828 903 1448 1529 
Q 2069 2156 2228 2338 
Q 2531 2678 2651 2914 
Q 2772 3150 2772 3378 
Q 2772 3750 2511 3984 
Q 2250 4219 1831 4219 
Q 1534 4219 1204 4116 
Q 875 4013 500 3803 
L 500 4441 
Q 881 4594 1212 4672 
Q 1544 4750 1819 4750 
Q 2544 4750 2975 4387 
Q 3406 4025 3406 3419 
Q 3406 3131 3298 2873 
Q 3191 2616 2906 2266 
Q 2828 2175 2409 1742 
Q 1991 1309 1228 531 
z
" transform="scale(0.015625)"/>
       </defs>
       <use xlink:href="#DejaVuSans-32"/>
       <use xlink:href="#DejaVuSans-30" transform="translate(63.623047 0)"/>
       <use xlink:href="#DejaVuSans-30" transform="translate(127.246094 0)"/>
       <use xlink:href="#DejaVuSans-30" transform="translate(190.869141 0)"/>
      </g>
     </g>
    </g>
    <g id="xtick_4">
     <g id="line2d_4">
      <path d="M 240.002184 241.878281 
L 240.002184 21.998281 
" clip-path="url(#p36774ea526)" style="fill: none; stroke: #cccccc; stroke-width: 0.8; stroke-linecap: round"/>
     </g>
     <g id="text_4">
      <!-- 3000 -->
      <g style="fill: #262626" transform="translate(227.277184 256.476719) scale(0.1 -0.1)">
       <defs>
        <path id="DejaVuSans-33" d="M 2597 2516 
Q 3050 2419 3304 2112 
Q 3559 1806 3559 1356 
Q 3559 666 3084 287 
Q 2609 -91 1734 -91 
Q 1441 -91 1130 -33 
Q 819 25 488 141 
L 488 750 
Q 750 597 1062 519 
Q 1375 441 1716 441 
Q 2309 441 2620 675 
Q 2931 909 2931 1356 
Q 2931 1769 2642 2001 
Q 2353 2234 1838 2234 
L 1294 2234 
L 1294 2753 
L 1863 2753 
Q 2328 2753 2575 2939 
Q 2822 3125 2822 3475 
Q 2822 3834 2567 4026 
Q 2313 4219 1838 4219 
Q 1578 4219 1281 4162 
Q 984 4106 628 3988 
L 628 4550 
Q 988 4650 1302 4700 
Q 1616 4750 1894 4750 
Q 2613 4750 3031 4423 
Q 3450 4097 3450 3541 
Q 3450 3153 3228 2886 
Q 3006 2619 2597 2516 
z
" transform="scale(0.015625)"/>
       </defs>
       <use xlink:href="#DejaVuSans-33"/>
       <use xlink:href="#DejaVuSans-30" transform="translate(63.623047 0)"/>
       <use xlink:href="#DejaVuSans-30" transform="translate(127.246094 0)"/>
       <use xlink:href="#DejaVuSans-30" transform="translate(190.869141 0)"/>
      </g>
     </g>
    </g>
    <g id="xtick_5">
     <g id="line2d_5">
      <path d="M 298.558328 241.878281 
L 298.558328 21.998281 
" clip-path="url(#p36774ea526)" style="fill: none; stroke: #cccccc; stroke-width: 0.8; stroke-linecap: round"/>
     </g>
     <g id="text_5">
      <!-- 4000 -->
      <g style="fill: #262626" transform="translate(285.833328 256.476719) scale(0.1 -0.1)">
       <defs>
        <path id="DejaVuSans-34" d="M 2419 4116 
L 825 1625 
L 2419 1625 
L 2419 4116 
z
M 2253 4666 
L 3047 4666 
L 3047 1625 
L 3713 1625 
L 3713 1100 
L 3047 1100 
L 3047 0 
L 2419 0 
L 2419 1100 
L 313 1100 
L 313 1709 
L 2253 4666 
z
" transform="scale(0.015625)"/>
       </defs>
       <use xlink:href="#DejaVuSans-34"/>
       <use xlink:href="#DejaVuSans-30" transform="translate(63.623047 0)"/>
       <use xlink:href="#DejaVuSans-30" transform="translate(127.246094 0)"/>
       <use xlink:href="#DejaVuSans-30" transform="translate(190.869141 0)"/>
      </g>
     </g>
    </g>
    <g id="text_6">
     <!-- Width -->
     <g style="fill: #262626" transform="translate(168.240116 270.154844) scale(0.1 -0.1)">
      <defs>
       <path id="DejaVuSans-57" d="M 213 4666 
L 850 4666 
L 1831 722 
L 2809 4666 
L 3519 4666 
L 4500 722 
L 5478 4666 
L 6119 4666 
L 4947 0 
L 4153 0 
L 3169 4050 
L 2175 0 
L 1381 0 
L 213 4666 
z
" transform="scale(0.015625)"/>
       <path id="DejaVuSans-69" d="M 603 3500 
L 1178 3500 
L 1178 0 
L 603 0 
L 603 3500 
z
M 603 4863 
L 1178 4863 
L 1178 4134 
L 603 4134 
L 603 4863 
z
" transform="scale(0.015625)"/>
       <path id="DejaVuSans-64" d="M 2906 2969 
L 2906 4863 
L 3481 4863 
L 3481 0 
L 2906 0 
L 2906 525 
Q 2725 213 2448 61 
Q 2172 -91 1784 -91 
Q 1150 -91 751 415 
Q 353 922 353 1747 
Q 353 2572 751 3078 
Q 1150 3584 1784 3584 
Q 2172 3584 2448 3432 
Q 2725 3281 2906 2969 
z
M 947 1747 
Q 947 1113 1208 752 
Q 1469 391 1925 391 
Q 2381 391 2643 752 
Q 2906 1113 2906 1747 
Q 2906 2381 2643 2742 
Q 2381 3103 1925 3103 
Q 1469 3103 1208 2742 
Q 947 2381 947 1747 
z
" transform="scale(0.015625)"/>
       <path id="DejaVuSans-74" d="M 1172 4494 
L 1172 3500 
L 2356 3500 
L 2356 3053 
L 1172 3053 
L 1172 1153 
Q 1172 725 1289 603 
Q 1406 481 1766 481 
L 2356 481 
L 2356 0 
L 1766 0 
Q 1100 0 847 248 
Q 594 497 594 1153 
L 594 3053 
L 172 3053 
L 172 3500 
L 594 3500 
L 594 4494 
L 1172 4494 
z
" transform="scale(0.015625)"/>
       <path id="DejaVuSans-68" d="M 3513 2113 
L 3513 0 
L 2938 0 
L 2938 2094 
Q 2938 2591 2744 2837 
Q 2550 3084 2163 3084 
Q 1697 3084 1428 2787 
Q 1159 2491 1159 1978 
L 1159 0 
L 581 0 
L 581 4863 
L 1159 4863 
L 1159 2956 
Q 1366 3272 1645 3428 
Q 1925 3584 2291 3584 
Q 2894 3584 3203 3211 
Q 3513 2838 3513 2113 
z
" transform="scale(0.015625)"/>
      </defs>
      <use xlink:href="#DejaVuSans-57"/>
      <use xlink:href="#DejaVuSans-69" transform="translate(96.626953 0)"/>
      <use xlink:href="#DejaVuSans-64" transform="translate(124.410156 0)"/>
      <use xlink:href="#DejaVuSans-74" transform="translate(187.886719 0)"/>
      <use xlink:href="#DejaVuSans-68" transform="translate(227.095703 0)"/>
     </g>
    </g>
   </g>
   <g id="matplotlib.axis_2">
    <g id="ytick_1">
     <g id="line2d_6">
      <path d="M 53.328125 241.878281 
L 312.198981 241.878281 
" clip-path="url(#p36774ea526)" style="fill: none; stroke: #cccccc; stroke-width: 0.8; stroke-linecap: round"/>
     </g>
     <g id="text_7">
      <!-- 0 -->
      <g style="fill: #262626" transform="translate(39.965625 245.6775) scale(0.1 -0.1)">
       <use xlink:href="#DejaVuSans-30"/>
      </g>
     </g>
    </g>
    <g id="ytick_2">
     <g id="line2d_7">
      <path d="M 53.328125 198.540218 
L 312.198981 198.540218 
" clip-path="url(#p36774ea526)" style="fill: none; stroke: #cccccc; stroke-width: 0.8; stroke-linecap: round"/>
     </g>
     <g id="text_8">
      <!-- 500 -->
      <g style="fill: #262626" transform="translate(27.240625 202.339436) scale(0.1 -0.1)">
       <defs>
        <path id="DejaVuSans-35" d="M 691 4666 
L 3169 4666 
L 3169 4134 
L 1269 4134 
L 1269 2991 
Q 1406 3038 1543 3061 
Q 1681 3084 1819 3084 
Q 2600 3084 3056 2656 
Q 3513 2228 3513 1497 
Q 3513 744 3044 326 
Q 2575 -91 1722 -91 
Q 1428 -91 1123 -41 
Q 819 9 494 109 
L 494 744 
Q 775 591 1075 516 
Q 1375 441 1709 441 
Q 2250 441 2565 725 
Q 2881 1009 2881 1497 
Q 2881 1984 2565 2268 
Q 2250 2553 1709 2553 
Q 1456 2553 1204 2497 
Q 953 2441 691 2322 
L 691 4666 
z
" transform="scale(0.015625)"/>
       </defs>
       <use xlink:href="#DejaVuSans-35"/>
       <use xlink:href="#DejaVuSans-30" transform="translate(63.623047 0)"/>
       <use xlink:href="#DejaVuSans-30" transform="translate(127.246094 0)"/>
      </g>
     </g>
    </g>
    <g id="ytick_3">
     <g id="line2d_8">
      <path d="M 53.328125 155.202154 
L 312.198981 155.202154 
" clip-path="url(#p36774ea526)" style="fill: none; stroke: #cccccc; stroke-width: 0.8; stroke-linecap: round"/>
     </g>
     <g id="text_9">
      <!-- 1000 -->
      <g style="fill: #262626" transform="translate(20.878125 159.001373) scale(0.1 -0.1)">
       <use xlink:href="#DejaVuSans-31"/>
       <use xlink:href="#DejaVuSans-30" transform="translate(63.623047 0)"/>
       <use xlink:href="#DejaVuSans-30" transform="translate(127.246094 0)"/>
       <use xlink:href="#DejaVuSans-30" transform="translate(190.869141 0)"/>
      </g>
     </g>
    </g>
    <g id="ytick_4">
     <g id="line2d_9">
      <path d="M 53.328125 111.86409 
L 312.198981 111.86409 
" clip-path="url(#p36774ea526)" style="fill: none; stroke: #cccccc; stroke-width: 0.8; stroke-linecap: round"/>
     </g>
     <g id="text_10">
      <!-- 1500 -->
      <g style="fill: #262626" transform="translate(20.878125 115.663309) scale(0.1 -0.1)">
       <use xlink:href="#DejaVuSans-31"/>
       <use xlink:href="#DejaVuSans-35" transform="translate(63.623047 0)"/>
       <use xlink:href="#DejaVuSans-30" transform="translate(127.246094 0)"/>
       <use xlink:href="#DejaVuSans-30" transform="translate(190.869141 0)"/>
      </g>
     </g>
    </g>
    <g id="ytick_5">
     <g id="line2d_10">
      <path d="M 53.328125 68.526026 
L 312.198981 68.526026 
" clip-path="url(#p36774ea526)" style="fill: none; stroke: #cccccc; stroke-width: 0.8; stroke-linecap: round"/>
     </g>
     <g id="text_11">
      <!-- 2000 -->
      <g style="fill: #262626" transform="translate(20.878125 72.325245) scale(0.1 -0.1)">
       <use xlink:href="#DejaVuSans-32"/>
       <use xlink:href="#DejaVuSans-30" transform="translate(63.623047 0)"/>
       <use xlink:href="#DejaVuSans-30" transform="translate(127.246094 0)"/>
       <use xlink:href="#DejaVuSans-30" transform="translate(190.869141 0)"/>
      </g>
     </g>
    </g>
    <g id="ytick_6">
     <g id="line2d_11">
      <path d="M 53.328125 25.187963 
L 312.198981 25.187963 
" clip-path="url(#p36774ea526)" style="fill: none; stroke: #cccccc; stroke-width: 0.8; stroke-linecap: round"/>
     </g>
     <g id="text_12">
      <!-- 2500 -->
      <g style="fill: #262626" transform="translate(20.878125 28.987181) scale(0.1 -0.1)">
       <use xlink:href="#DejaVuSans-32"/>
       <use xlink:href="#DejaVuSans-35" transform="translate(63.623047 0)"/>
       <use xlink:href="#DejaVuSans-30" transform="translate(127.246094 0)"/>
       <use xlink:href="#DejaVuSans-30" transform="translate(190.869141 0)"/>
      </g>
     </g>
    </g>
    <g id="text_13">
     <!-- Frecuencia -->
     <g style="fill: #262626" transform="translate(14.798438 158.836719) rotate(-90) scale(0.1 -0.1)">
      <defs>
       <path id="DejaVuSans-46" d="M 628 4666 
L 3309 4666 
L 3309 4134 
L 1259 4134 
L 1259 2759 
L 3109 2759 
L 3109 2228 
L 1259 2228 
L 1259 0 
L 628 0 
L 628 4666 
z
" transform="scale(0.015625)"/>
       <path id="DejaVuSans-72" d="M 2631 2963 
Q 2534 3019 2420 3045 
Q 2306 3072 2169 3072 
Q 1681 3072 1420 2755 
Q 1159 2438 1159 1844 
L 1159 0 
L 581 0 
L 581 3500 
L 1159 3500 
L 1159 2956 
Q 1341 3275 1631 3429 
Q 1922 3584 2338 3584 
Q 2397 3584 2469 3576 
Q 2541 3569 2628 3553 
L 2631 2963 
z
" transform="scale(0.015625)"/>
       <path id="DejaVuSans-65" d="M 3597 1894 
L 3597 1613 
L 953 1613 
Q 991 1019 1311 708 
Q 1631 397 2203 397 
Q 2534 397 2845 478 
Q 3156 559 3463 722 
L 3463 178 
Q 3153 47 2828 -22 
Q 2503 -91 2169 -91 
Q 1331 -91 842 396 
Q 353 884 353 1716 
Q 353 2575 817 3079 
Q 1281 3584 2069 3584 
Q 2775 3584 3186 3129 
Q 3597 2675 3597 1894 
z
M 3022 2063 
Q 3016 2534 2758 2815 
Q 2500 3097 2075 3097 
Q 1594 3097 1305 2825 
Q 1016 2553 972 2059 
L 3022 2063 
z
" transform="scale(0.015625)"/>
       <path id="DejaVuSans-63" d="M 3122 3366 
L 3122 2828 
Q 2878 2963 2633 3030 
Q 2388 3097 2138 3097 
Q 1578 3097 1268 2742 
Q 959 2388 959 1747 
Q 959 1106 1268 751 
Q 1578 397 2138 397 
Q 2388 397 2633 464 
Q 2878 531 3122 666 
L 3122 134 
Q 2881 22 2623 -34 
Q 2366 -91 2075 -91 
Q 1284 -91 818 406 
Q 353 903 353 1747 
Q 353 2603 823 3093 
Q 1294 3584 2113 3584 
Q 2378 3584 2631 3529 
Q 2884 3475 3122 3366 
z
" transform="scale(0.015625)"/>
       <path id="DejaVuSans-75" d="M 544 1381 
L 544 3500 
L 1119 3500 
L 1119 1403 
Q 1119 906 1312 657 
Q 1506 409 1894 409 
Q 2359 409 2629 706 
Q 2900 1003 2900 1516 
L 2900 3500 
L 3475 3500 
L 3475 0 
L 2900 0 
L 2900 538 
Q 2691 219 2414 64 
Q 2138 -91 1772 -91 
Q 1169 -91 856 284 
Q 544 659 544 1381 
z
M 1991 3584 
L 1991 3584 
z
" transform="scale(0.015625)"/>
       <path id="DejaVuSans-6e" d="M 3513 2113 
L 3513 0 
L 2938 0 
L 2938 2094 
Q 2938 2591 2744 2837 
Q 2550 3084 2163 3084 
Q 1697 3084 1428 2787 
Q 1159 2491 1159 1978 
L 1159 0 
L 581 0 
L 581 3500 
L 1159 3500 
L 1159 2956 
Q 1366 3272 1645 3428 
Q 1925 3584 2291 3584 
Q 2894 3584 3203 3211 
Q 3513 2838 3513 2113 
z
" transform="scale(0.015625)"/>
       <path id="DejaVuSans-61" d="M 2194 1759 
Q 1497 1759 1228 1600 
Q 959 1441 959 1056 
Q 959 750 1161 570 
Q 1363 391 1709 391 
Q 2188 391 2477 730 
Q 2766 1069 2766 1631 
L 2766 1759 
L 2194 1759 
z
M 3341 1997 
L 3341 0 
L 2766 0 
L 2766 531 
Q 2569 213 2275 61 
Q 1981 -91 1556 -91 
Q 1019 -91 701 211 
Q 384 513 384 1019 
Q 384 1609 779 1909 
Q 1175 2209 1959 2209 
L 2766 2209 
L 2766 2266 
Q 2766 2663 2505 2880 
Q 2244 3097 1772 3097 
Q 1472 3097 1187 3025 
Q 903 2953 641 2809 
L 641 3341 
Q 956 3463 1253 3523 
Q 1550 3584 1831 3584 
Q 2591 3584 2966 3190 
Q 3341 2797 3341 1997 
z
" transform="scale(0.015625)"/>
      </defs>
      <use xlink:href="#DejaVuSans-46"/>
      <use xlink:href="#DejaVuSans-72" transform="translate(50.269531 0)"/>
      <use xlink:href="#DejaVuSans-65" transform="translate(89.132812 0)"/>
      <use xlink:href="#DejaVuSans-63" transform="translate(150.65625 0)"/>
      <use xlink:href="#DejaVuSans-75" transform="translate(205.636719 0)"/>
      <use xlink:href="#DejaVuSans-65" transform="translate(269.015625 0)"/>
      <use xlink:href="#DejaVuSans-6e" transform="translate(330.539062 0)"/>
      <use xlink:href="#DejaVuSans-63" transform="translate(393.917969 0)"/>
      <use xlink:href="#DejaVuSans-69" transform="translate(448.898438 0)"/>
      <use xlink:href="#DejaVuSans-61" transform="translate(476.681641 0)"/>
     </g>
    </g>
   </g>
   <g id="patch_3">
    <path d="M 65.094982 241.878281 
L 69.017268 241.878281 
L 69.017268 90.368411 
L 65.094982 90.368411 
z
" clip-path="url(#p36774ea526)" style="fill: #4c72b0; stroke: #ffffff; stroke-linejoin: miter"/>
   </g>
   <g id="patch_4">
    <path d="M 69.017268 241.878281 
L 72.939554 241.878281 
L 72.939554 133.966503 
L 69.017268 133.966503 
z
" clip-path="url(#p36774ea526)" style="fill: #4c72b0; stroke: #ffffff; stroke-linejoin: miter"/>
   </g>
   <g id="patch_5">
    <path d="M 72.939554 241.878281 
L 76.861839 241.878281 
L 76.861839 184.15198 
L 72.939554 184.15198 
z
" clip-path="url(#p36774ea526)" style="fill: #4c72b0; stroke: #ffffff; stroke-linejoin: miter"/>
   </g>
   <g id="patch_6">
    <path d="M 76.861839 241.878281 
L 80.784125 241.878281 
L 80.784125 190.65269 
L 76.861839 190.65269 
z
" clip-path="url(#p36774ea526)" style="fill: #4c72b0; stroke: #ffffff; stroke-linejoin: miter"/>
   </g>
   <g id="patch_7">
    <path d="M 80.784125 241.878281 
L 84.706411 241.878281 
L 84.706411 219.689193 
L 80.784125 219.689193 
z
" clip-path="url(#p36774ea526)" style="fill: #4c72b0; stroke: #ffffff; stroke-linejoin: miter"/>
   </g>
   <g id="patch_8">
    <path d="M 84.706411 241.878281 
L 88.628696 241.878281 
L 88.628696 226.969987 
L 84.706411 226.969987 
z
" clip-path="url(#p36774ea526)" style="fill: #4c72b0; stroke: #ffffff; stroke-linejoin: miter"/>
   </g>
   <g id="patch_9">
    <path d="M 88.628696 241.878281 
L 92.550982 241.878281 
L 92.550982 235.724276 
L 88.628696 235.724276 
z
" clip-path="url(#p36774ea526)" style="fill: #4c72b0; stroke: #ffffff; stroke-linejoin: miter"/>
   </g>
   <g id="patch_10">
    <path d="M 92.550982 241.878281 
L 96.473268 241.878281 
L 96.473268 239.711378 
L 92.550982 239.711378 
z
" clip-path="url(#p36774ea526)" style="fill: #4c72b0; stroke: #ffffff; stroke-linejoin: miter"/>
   </g>
   <g id="patch_11">
    <path d="M 96.473268 241.878281 
L 100.395553 241.878281 
L 100.395553 241.358224 
L 96.473268 241.358224 
z
" clip-path="url(#p36774ea526)" style="fill: #4c72b0; stroke: #ffffff; stroke-linejoin: miter"/>
   </g>
   <g id="patch_12">
    <path d="M 100.395553 241.878281 
L 104.317839 241.878281 
L 104.317839 216.135471 
L 100.395553 216.135471 
z
" clip-path="url(#p36774ea526)" style="fill: #4c72b0; stroke: #ffffff; stroke-linejoin: miter"/>
   </g>
   <g id="patch_13">
    <path d="M 104.317839 241.878281 
L 108.240125 241.878281 
L 108.240125 237.284446 
L 104.317839 237.284446 
z
" clip-path="url(#p36774ea526)" style="fill: #4c72b0; stroke: #ffffff; stroke-linejoin: miter"/>
   </g>
   <g id="patch_14">
    <path d="M 108.240125 241.878281 
L 112.162411 241.878281 
L 112.162411 240.838168 
L 108.240125 240.838168 
z
" clip-path="url(#p36774ea526)" style="fill: #4c72b0; stroke: #ffffff; stroke-linejoin: miter"/>
   </g>
   <g id="patch_15">
    <path d="M 112.162411 241.878281 
L 116.084696 241.878281 
L 116.084696 241.704929 
L 112.162411 241.704929 
z
" clip-path="url(#p36774ea526)" style="fill: #4c72b0; stroke: #ffffff; stroke-linejoin: miter"/>
   </g>
   <g id="patch_16">
    <path d="M 116.084696 241.878281 
L 120.006982 241.878281 
L 120.006982 241.878281 
L 116.084696 241.878281 
z
" clip-path="url(#p36774ea526)" style="fill: #4c72b0; stroke: #ffffff; stroke-linejoin: miter"/>
   </g>
   <g id="patch_17">
    <path d="M 120.006982 241.878281 
L 123.929268 241.878281 
L 123.929268 222.116124 
L 120.006982 222.116124 
z
" clip-path="url(#p36774ea526)" style="fill: #4c72b0; stroke: #ffffff; stroke-linejoin: miter"/>
   </g>
   <g id="patch_18">
    <path d="M 123.929268 241.878281 
L 127.851553 241.878281 
L 127.851553 241.358224 
L 123.929268 241.358224 
z
" clip-path="url(#p36774ea526)" style="fill: #4c72b0; stroke: #ffffff; stroke-linejoin: miter"/>
   </g>
   <g id="patch_19">
    <path d="M 127.851553 241.878281 
L 131.773839 241.878281 
L 131.773839 241.878281 
L 127.851553 241.878281 
z
" clip-path="url(#p36774ea526)" style="fill: #4c72b0; stroke: #ffffff; stroke-linejoin: miter"/>
   </g>
   <g id="patch_20">
    <path d="M 131.773839 241.878281 
L 135.696125 241.878281 
L 135.696125 239.104645 
L 131.773839 239.104645 
z
" clip-path="url(#p36774ea526)" style="fill: #4c72b0; stroke: #ffffff; stroke-linejoin: miter"/>
   </g>
   <g id="patch_21">
    <path d="M 135.696125 241.878281 
L 139.61841 241.878281 
L 139.61841 221.856096 
L 135.696125 221.856096 
z
" clip-path="url(#p36774ea526)" style="fill: #4c72b0; stroke: #ffffff; stroke-linejoin: miter"/>
   </g>
   <g id="patch_22">
    <path d="M 139.61841 241.878281 
L 143.540696 241.878281 
L 143.540696 240.664815 
L 139.61841 240.664815 
z
" clip-path="url(#p36774ea526)" style="fill: #4c72b0; stroke: #ffffff; stroke-linejoin: miter"/>
   </g>
   <g id="patch_23">
    <path d="M 143.540696 241.878281 
L 147.462982 241.878281 
L 147.462982 240.578139 
L 143.540696 240.578139 
z
" clip-path="url(#p36774ea526)" style="fill: #4c72b0; stroke: #ffffff; stroke-linejoin: miter"/>
   </g>
   <g id="patch_24">
    <path d="M 147.462982 241.878281 
L 151.385268 241.878281 
L 151.385268 241.098196 
L 147.462982 241.098196 
z
" clip-path="url(#p36774ea526)" style="fill: #4c72b0; stroke: #ffffff; stroke-linejoin: miter"/>
   </g>
   <g id="patch_25">
    <path d="M 151.385268 241.878281 
L 155.307553 241.878281 
L 155.307553 241.618253 
L 151.385268 241.618253 
z
" clip-path="url(#p36774ea526)" style="fill: #4c72b0; stroke: #ffffff; stroke-linejoin: miter"/>
   </g>
   <g id="patch_26">
    <path d="M 155.307553 241.878281 
L 159.229839 241.878281 
L 159.229839 240.924844 
L 155.307553 240.924844 
z
" clip-path="url(#p36774ea526)" style="fill: #4c72b0; stroke: #ffffff; stroke-linejoin: miter"/>
   </g>
   <g id="patch_27">
    <path d="M 159.229839 241.878281 
L 163.152125 241.878281 
L 163.152125 241.878281 
L 159.229839 241.878281 
z
" clip-path="url(#p36774ea526)" style="fill: #4c72b0; stroke: #ffffff; stroke-linejoin: miter"/>
   </g>
   <g id="patch_28">
    <path d="M 163.152125 241.878281 
L 167.07441 241.878281 
L 167.07441 241.878281 
L 163.152125 241.878281 
z
" clip-path="url(#p36774ea526)" style="fill: #4c72b0; stroke: #ffffff; stroke-linejoin: miter"/>
   </g>
   <g id="patch_29">
    <path d="M 167.07441 241.878281 
L 170.996696 241.878281 
L 170.996696 241.878281 
L 167.07441 241.878281 
z
" clip-path="url(#p36774ea526)" style="fill: #4c72b0; stroke: #ffffff; stroke-linejoin: miter"/>
   </g>
   <g id="patch_30">
    <path d="M 170.996696 241.878281 
L 174.918982 241.878281 
L 174.918982 241.878281 
L 170.996696 241.878281 
z
" clip-path="url(#p36774ea526)" style="fill: #4c72b0; stroke: #ffffff; stroke-linejoin: miter"/>
   </g>
   <g id="patch_31">
    <path d="M 174.918982 241.878281 
L 178.841268 241.878281 
L 178.841268 154.595421 
L 174.918982 154.595421 
z
" clip-path="url(#p36774ea526)" style="fill: #4c72b0; stroke: #ffffff; stroke-linejoin: miter"/>
   </g>
   <g id="patch_32">
    <path d="M 178.841268 241.878281 
L 182.763553 241.878281 
L 182.763553 241.878281 
L 178.841268 241.878281 
z
" clip-path="url(#p36774ea526)" style="fill: #4c72b0; stroke: #ffffff; stroke-linejoin: miter"/>
   </g>
   <g id="patch_33">
    <path d="M 182.763553 241.878281 
L 186.685839 241.878281 
L 186.685839 241.878281 
L 182.763553 241.878281 
z
" clip-path="url(#p36774ea526)" style="fill: #4c72b0; stroke: #ffffff; stroke-linejoin: miter"/>
   </g>
   <g id="patch_34">
    <path d="M 186.685839 241.878281 
L 190.608125 241.878281 
L 190.608125 241.791605 
L 186.685839 241.791605 
z
" clip-path="url(#p36774ea526)" style="fill: #4c72b0; stroke: #ffffff; stroke-linejoin: miter"/>
   </g>
   <g id="patch_35">
    <path d="M 190.608125 241.878281 
L 194.53041 241.878281 
L 194.53041 241.791605 
L 190.608125 241.791605 
z
" clip-path="url(#p36774ea526)" style="fill: #4c72b0; stroke: #ffffff; stroke-linejoin: miter"/>
   </g>
   <g id="patch_36">
    <path d="M 194.53041 241.878281 
L 198.452696 241.878281 
L 198.452696 241.878281 
L 194.53041 241.878281 
z
" clip-path="url(#p36774ea526)" style="fill: #4c72b0; stroke: #ffffff; stroke-linejoin: miter"/>
   </g>
   <g id="patch_37">
    <path d="M 198.452696 241.878281 
L 202.374982 241.878281 
L 202.374982 241.704929 
L 198.452696 241.704929 
z
" clip-path="url(#p36774ea526)" style="fill: #4c72b0; stroke: #ffffff; stroke-linejoin: miter"/>
   </g>
   <g id="patch_38">
    <path d="M 202.374982 241.878281 
L 206.297267 241.878281 
L 206.297267 241.791605 
L 202.374982 241.791605 
z
" clip-path="url(#p36774ea526)" style="fill: #4c72b0; stroke: #ffffff; stroke-linejoin: miter"/>
   </g>
   <g id="patch_39">
    <path d="M 206.297267 241.878281 
L 210.219553 241.878281 
L 210.219553 241.704929 
L 206.297267 241.704929 
z
" clip-path="url(#p36774ea526)" style="fill: #4c72b0; stroke: #ffffff; stroke-linejoin: miter"/>
   </g>
   <g id="patch_40">
    <path d="M 210.219553 241.878281 
L 214.141839 241.878281 
L 214.141839 241.444901 
L 210.219553 241.444901 
z
" clip-path="url(#p36774ea526)" style="fill: #4c72b0; stroke: #ffffff; stroke-linejoin: miter"/>
   </g>
   <g id="patch_41">
    <path d="M 214.141839 241.878281 
L 218.064125 241.878281 
L 218.064125 241.791605 
L 214.141839 241.791605 
z
" clip-path="url(#p36774ea526)" style="fill: #4c72b0; stroke: #ffffff; stroke-linejoin: miter"/>
   </g>
   <g id="patch_42">
    <path d="M 218.064125 241.878281 
L 221.98641 241.878281 
L 221.98641 241.618253 
L 218.064125 241.618253 
z
" clip-path="url(#p36774ea526)" style="fill: #4c72b0; stroke: #ffffff; stroke-linejoin: miter"/>
   </g>
   <g id="patch_43">
    <path d="M 221.98641 241.878281 
L 225.908696 241.878281 
L 225.908696 241.271548 
L 221.98641 241.271548 
z
" clip-path="url(#p36774ea526)" style="fill: #4c72b0; stroke: #ffffff; stroke-linejoin: miter"/>
   </g>
   <g id="patch_44">
    <path d="M 225.908696 241.878281 
L 229.830982 241.878281 
L 229.830982 241.618253 
L 225.908696 241.618253 
z
" clip-path="url(#p36774ea526)" style="fill: #4c72b0; stroke: #ffffff; stroke-linejoin: miter"/>
   </g>
   <g id="patch_45">
    <path d="M 229.830982 241.878281 
L 233.753267 241.878281 
L 233.753267 241.791605 
L 229.830982 241.791605 
z
" clip-path="url(#p36774ea526)" style="fill: #4c72b0; stroke: #ffffff; stroke-linejoin: miter"/>
   </g>
   <g id="patch_46">
    <path d="M 233.753267 241.878281 
L 237.675553 241.878281 
L 237.675553 241.704929 
L 233.753267 241.704929 
z
" clip-path="url(#p36774ea526)" style="fill: #4c72b0; stroke: #ffffff; stroke-linejoin: miter"/>
   </g>
   <g id="patch_47">
    <path d="M 237.675553 241.878281 
L 241.597839 241.878281 
L 241.597839 212.668426 
L 237.675553 212.668426 
z
" clip-path="url(#p36774ea526)" style="fill: #4c72b0; stroke: #ffffff; stroke-linejoin: miter"/>
   </g>
   <g id="patch_48">
    <path d="M 241.597839 241.878281 
L 245.520125 241.878281 
L 245.520125 241.618253 
L 241.597839 241.618253 
z
" clip-path="url(#p36774ea526)" style="fill: #4c72b0; stroke: #ffffff; stroke-linejoin: miter"/>
   </g>
   <g id="patch_49">
    <path d="M 245.520125 241.878281 
L 249.44241 241.878281 
L 249.44241 32.468757 
L 245.520125 32.468757 
z
" clip-path="url(#p36774ea526)" style="fill: #4c72b0; stroke: #ffffff; stroke-linejoin: miter"/>
   </g>
   <g id="patch_50">
    <path d="M 249.44241 241.878281 
L 253.364696 241.878281 
L 253.364696 241.878281 
L 249.44241 241.878281 
z
" clip-path="url(#p36774ea526)" style="fill: #4c72b0; stroke: #ffffff; stroke-linejoin: miter"/>
   </g>
   <g id="patch_51">
    <path d="M 253.364696 241.878281 
L 257.286982 241.878281 
L 257.286982 241.878281 
L 253.364696 241.878281 
z
" clip-path="url(#p36774ea526)" style="fill: #4c72b0; stroke: #ffffff; stroke-linejoin: miter"/>
   </g>
   <g id="patch_52">
    <path d="M 257.286982 241.878281 
L 261.209267 241.878281 
L 261.209267 241.791605 
L 257.286982 241.791605 
z
" clip-path="url(#p36774ea526)" style="fill: #4c72b0; stroke: #ffffff; stroke-linejoin: miter"/>
   </g>
   <g id="patch_53">
    <path d="M 261.209267 241.878281 
L 265.131553 241.878281 
L 265.131553 241.878281 
L 261.209267 241.878281 
z
" clip-path="url(#p36774ea526)" style="fill: #4c72b0; stroke: #ffffff; stroke-linejoin: miter"/>
   </g>
   <g id="patch_54">
    <path d="M 265.131553 241.878281 
L 269.053839 241.878281 
L 269.053839 241.878281 
L 265.131553 241.878281 
z
" clip-path="url(#p36774ea526)" style="fill: #4c72b0; stroke: #ffffff; stroke-linejoin: miter"/>
   </g>
   <g id="patch_55">
    <path d="M 269.053839 241.878281 
L 272.976124 241.878281 
L 272.976124 241.878281 
L 269.053839 241.878281 
z
" clip-path="url(#p36774ea526)" style="fill: #4c72b0; stroke: #ffffff; stroke-linejoin: miter"/>
   </g>
   <g id="patch_56">
    <path d="M 272.976124 241.878281 
L 276.89841 241.878281 
L 276.89841 241.878281 
L 272.976124 241.878281 
z
" clip-path="url(#p36774ea526)" style="fill: #4c72b0; stroke: #ffffff; stroke-linejoin: miter"/>
   </g>
   <g id="patch_57">
    <path d="M 276.89841 241.878281 
L 280.820696 241.878281 
L 280.820696 241.878281 
L 276.89841 241.878281 
z
" clip-path="url(#p36774ea526)" style="fill: #4c72b0; stroke: #ffffff; stroke-linejoin: miter"/>
   </g>
   <g id="patch_58">
    <path d="M 280.820696 241.878281 
L 284.742982 241.878281 
L 284.742982 241.878281 
L 280.820696 241.878281 
z
" clip-path="url(#p36774ea526)" style="fill: #4c72b0; stroke: #ffffff; stroke-linejoin: miter"/>
   </g>
   <g id="patch_59">
    <path d="M 284.742982 241.878281 
L 288.665267 241.878281 
L 288.665267 241.878281 
L 284.742982 241.878281 
z
" clip-path="url(#p36774ea526)" style="fill: #4c72b0; stroke: #ffffff; stroke-linejoin: miter"/>
   </g>
   <g id="patch_60">
    <path d="M 288.665267 241.878281 
L 292.587553 241.878281 
L 292.587553 241.878281 
L 288.665267 241.878281 
z
" clip-path="url(#p36774ea526)" style="fill: #4c72b0; stroke: #ffffff; stroke-linejoin: miter"/>
   </g>
   <g id="patch_61">
    <path d="M 292.587553 241.878281 
L 296.509839 241.878281 
L 296.509839 241.878281 
L 292.587553 241.878281 
z
" clip-path="url(#p36774ea526)" style="fill: #4c72b0; stroke: #ffffff; stroke-linejoin: miter"/>
   </g>
   <g id="patch_62">
    <path d="M 296.509839 241.878281 
L 300.432124 241.878281 
L 300.432124 239.364674 
L 296.509839 239.364674 
z
" clip-path="url(#p36774ea526)" style="fill: #4c72b0; stroke: #ffffff; stroke-linejoin: miter"/>
   </g>
   <g id="patch_63">
    <path d="M 53.328125 241.878281 
L 53.328125 21.998281 
" style="fill: none; stroke: #cccccc; stroke-width: 0.8; stroke-linejoin: miter; stroke-linecap: square"/>
   </g>
   <g id="patch_64">
    <path d="M 312.198981 241.878281 
L 312.198981 21.998281 
" style="fill: none; stroke: #cccccc; stroke-width: 0.8; stroke-linejoin: miter; stroke-linecap: square"/>
   </g>
   <g id="patch_65">
    <path d="M 53.328125 241.878281 
L 312.198981 241.878281 
" style="fill: none; stroke: #cccccc; stroke-width: 0.8; stroke-linejoin: miter; stroke-linecap: square"/>
   </g>
   <g id="patch_66">
    <path d="M 53.328125 21.998281 
L 312.198981 21.998281 
" style="fill: none; stroke: #cccccc; stroke-width: 0.8; stroke-linejoin: miter; stroke-linecap: square"/>
   </g>
   <g id="text_14">
    <!-- Distribución de width (px) -->
    <g style="fill: #262626" transform="translate(111.492147 15.998281) scale(0.11 -0.11)">
     <defs>
      <path id="DejaVuSans-44" d="M 1259 4147 
L 1259 519 
L 2022 519 
Q 2988 519 3436 956 
Q 3884 1394 3884 2338 
Q 3884 3275 3436 3711 
Q 2988 4147 2022 4147 
L 1259 4147 
z
M 628 4666 
L 1925 4666 
Q 3281 4666 3915 4102 
Q 4550 3538 4550 2338 
Q 4550 1131 3912 565 
Q 3275 0 1925 0 
L 628 0 
L 628 4666 
z
" transform="scale(0.015625)"/>
      <path id="DejaVuSans-73" d="M 2834 3397 
L 2834 2853 
Q 2591 2978 2328 3040 
Q 2066 3103 1784 3103 
Q 1356 3103 1142 2972 
Q 928 2841 928 2578 
Q 928 2378 1081 2264 
Q 1234 2150 1697 2047 
L 1894 2003 
Q 2506 1872 2764 1633 
Q 3022 1394 3022 966 
Q 3022 478 2636 193 
Q 2250 -91 1575 -91 
Q 1294 -91 989 -36 
Q 684 19 347 128 
L 347 722 
Q 666 556 975 473 
Q 1284 391 1588 391 
Q 1994 391 2212 530 
Q 2431 669 2431 922 
Q 2431 1156 2273 1281 
Q 2116 1406 1581 1522 
L 1381 1569 
Q 847 1681 609 1914 
Q 372 2147 372 2553 
Q 372 3047 722 3315 
Q 1072 3584 1716 3584 
Q 2034 3584 2315 3537 
Q 2597 3491 2834 3397 
z
" transform="scale(0.015625)"/>
      <path id="DejaVuSans-62" d="M 3116 1747 
Q 3116 2381 2855 2742 
Q 2594 3103 2138 3103 
Q 1681 3103 1420 2742 
Q 1159 2381 1159 1747 
Q 1159 1113 1420 752 
Q 1681 391 2138 391 
Q 2594 391 2855 752 
Q 3116 1113 3116 1747 
z
M 1159 2969 
Q 1341 3281 1617 3432 
Q 1894 3584 2278 3584 
Q 2916 3584 3314 3078 
Q 3713 2572 3713 1747 
Q 3713 922 3314 415 
Q 2916 -91 2278 -91 
Q 1894 -91 1617 61 
Q 1341 213 1159 525 
L 1159 0 
L 581 0 
L 581 4863 
L 1159 4863 
L 1159 2969 
z
" transform="scale(0.015625)"/>
      <path id="DejaVuSans-f3" d="M 1959 3097 
Q 1497 3097 1228 2736 
Q 959 2375 959 1747 
Q 959 1119 1226 758 
Q 1494 397 1959 397 
Q 2419 397 2687 759 
Q 2956 1122 2956 1747 
Q 2956 2369 2687 2733 
Q 2419 3097 1959 3097 
z
M 1959 3584 
Q 2709 3584 3137 3096 
Q 3566 2609 3566 1747 
Q 3566 888 3137 398 
Q 2709 -91 1959 -91 
Q 1206 -91 779 398 
Q 353 888 353 1747 
Q 353 2609 779 3096 
Q 1206 3584 1959 3584 
z
M 2394 5119 
L 3016 5119 
L 1998 3944 
L 1519 3944 
L 2394 5119 
z
" transform="scale(0.015625)"/>
      <path id="DejaVuSans-20" transform="scale(0.015625)"/>
      <path id="DejaVuSans-77" d="M 269 3500 
L 844 3500 
L 1563 769 
L 2278 3500 
L 2956 3500 
L 3675 769 
L 4391 3500 
L 4966 3500 
L 4050 0 
L 3372 0 
L 2619 2869 
L 1863 0 
L 1184 0 
L 269 3500 
z
" transform="scale(0.015625)"/>
      <path id="DejaVuSans-28" d="M 1984 4856 
Q 1566 4138 1362 3434 
Q 1159 2731 1159 2009 
Q 1159 1288 1364 580 
Q 1569 -128 1984 -844 
L 1484 -844 
Q 1016 -109 783 600 
Q 550 1309 550 2009 
Q 550 2706 781 3412 
Q 1013 4119 1484 4856 
L 1984 4856 
z
" transform="scale(0.015625)"/>
      <path id="DejaVuSans-70" d="M 1159 525 
L 1159 -1331 
L 581 -1331 
L 581 3500 
L 1159 3500 
L 1159 2969 
Q 1341 3281 1617 3432 
Q 1894 3584 2278 3584 
Q 2916 3584 3314 3078 
Q 3713 2572 3713 1747 
Q 3713 922 3314 415 
Q 2916 -91 2278 -91 
Q 1894 -91 1617 61 
Q 1341 213 1159 525 
z
M 3116 1747 
Q 3116 2381 2855 2742 
Q 2594 3103 2138 3103 
Q 1681 3103 1420 2742 
Q 1159 2381 1159 1747 
Q 1159 1113 1420 752 
Q 1681 391 2138 391 
Q 2594 391 2855 752 
Q 3116 1113 3116 1747 
z
" transform="scale(0.015625)"/>
      <path id="DejaVuSans-78" d="M 3513 3500 
L 2247 1797 
L 3578 0 
L 2900 0 
L 1881 1375 
L 863 0 
L 184 0 
L 1544 1831 
L 300 3500 
L 978 3500 
L 1906 2253 
L 2834 3500 
L 3513 3500 
z
" transform="scale(0.015625)"/>
      <path id="DejaVuSans-29" d="M 513 4856 
L 1013 4856 
Q 1481 4119 1714 3412 
Q 1947 2706 1947 2009 
Q 1947 1309 1714 600 
Q 1481 -109 1013 -844 
L 513 -844 
Q 928 -128 1133 580 
Q 1338 1288 1338 2009 
Q 1338 2731 1133 3434 
Q 928 4138 513 4856 
z
" transform="scale(0.015625)"/>
     </defs>
     <use xlink:href="#DejaVuSans-44"/>
     <use xlink:href="#DejaVuSans-69" transform="translate(77.001953 0)"/>
     <use xlink:href="#DejaVuSans-73" transform="translate(104.785156 0)"/>
     <use xlink:href="#DejaVuSans-74" transform="translate(156.884766 0)"/>
     <use xlink:href="#DejaVuSans-72" transform="translate(196.09375 0)"/>
     <use xlink:href="#DejaVuSans-69" transform="translate(237.207031 0)"/>
     <use xlink:href="#DejaVuSans-62" transform="translate(264.990234 0)"/>
     <use xlink:href="#DejaVuSans-75" transform="translate(328.466797 0)"/>
     <use xlink:href="#DejaVuSans-63" transform="translate(391.845703 0)"/>
     <use xlink:href="#DejaVuSans-69" transform="translate(446.826172 0)"/>
     <use xlink:href="#DejaVuSans-f3" transform="translate(474.609375 0)"/>
     <use xlink:href="#DejaVuSans-6e" transform="translate(535.791016 0)"/>
     <use xlink:href="#DejaVuSans-20" transform="translate(599.169922 0)"/>
     <use xlink:href="#DejaVuSans-64" transform="translate(630.957031 0)"/>
     <use xlink:href="#DejaVuSans-65" transform="translate(694.433594 0)"/>
     <use xlink:href="#DejaVuSans-20" transform="translate(755.957031 0)"/>
     <use xlink:href="#DejaVuSans-77" transform="translate(787.744141 0)"/>
     <use xlink:href="#DejaVuSans-69" transform="translate(869.53125 0)"/>
     <use xlink:href="#DejaVuSans-64" transform="translate(897.314453 0)"/>
     <use xlink:href="#DejaVuSans-74" transform="translate(960.791016 0)"/>
     <use xlink:href="#DejaVuSans-68" transform="translate(1000 0)"/>
     <use xlink:href="#DejaVuSans-20" transform="translate(1063.378906 0)"/>
     <use xlink:href="#DejaVuSans-28" transform="translate(1095.166016 0)"/>
     <use xlink:href="#DejaVuSans-70" transform="translate(1134.179688 0)"/>
     <use xlink:href="#DejaVuSans-78" transform="translate(1197.65625 0)"/>
     <use xlink:href="#DejaVuSans-29" transform="translate(1256.835938 0)"/>
    </g>
   </g>
  </g>
  <g id="axes_2">
   <g id="patch_67">
    <path d="M 356.647182 241.878281 
L 615.518039 241.878281 
L 615.518039 21.998281 
L 356.647182 21.998281 
z
" style="fill: #ffffff"/>
   </g>
   <g id="matplotlib.axis_3">
    <g id="xtick_6">
     <g id="line2d_12">
      <path d="M 367.711541 241.878281 
L 367.711541 21.998281 
" clip-path="url(#p194ac82892)" style="fill: none; stroke: #cccccc; stroke-width: 0.8; stroke-linecap: round"/>
     </g>
     <g id="text_15">
      <!-- 0 -->
      <g style="fill: #262626" transform="translate(364.530291 256.476719) scale(0.1 -0.1)">
       <use xlink:href="#DejaVuSans-30"/>
      </g>
     </g>
    </g>
    <g id="xtick_7">
     <g id="line2d_13">
      <path d="M 426.253118 241.878281 
L 426.253118 21.998281 
" clip-path="url(#p194ac82892)" style="fill: none; stroke: #cccccc; stroke-width: 0.8; stroke-linecap: round"/>
     </g>
     <g id="text_16">
      <!-- 1000 -->
      <g style="fill: #262626" transform="translate(413.528118 256.476719) scale(0.1 -0.1)">
       <use xlink:href="#DejaVuSans-31"/>
       <use xlink:href="#DejaVuSans-30" transform="translate(63.623047 0)"/>
       <use xlink:href="#DejaVuSans-30" transform="translate(127.246094 0)"/>
       <use xlink:href="#DejaVuSans-30" transform="translate(190.869141 0)"/>
      </g>
     </g>
    </g>
    <g id="xtick_8">
     <g id="line2d_14">
      <path d="M 484.794696 241.878281 
L 484.794696 21.998281 
" clip-path="url(#p194ac82892)" style="fill: none; stroke: #cccccc; stroke-width: 0.8; stroke-linecap: round"/>
     </g>
     <g id="text_17">
      <!-- 2000 -->
      <g style="fill: #262626" transform="translate(472.069696 256.476719) scale(0.1 -0.1)">
       <use xlink:href="#DejaVuSans-32"/>
       <use xlink:href="#DejaVuSans-30" transform="translate(63.623047 0)"/>
       <use xlink:href="#DejaVuSans-30" transform="translate(127.246094 0)"/>
       <use xlink:href="#DejaVuSans-30" transform="translate(190.869141 0)"/>
      </g>
     </g>
    </g>
    <g id="xtick_9">
     <g id="line2d_15">
      <path d="M 543.336274 241.878281 
L 543.336274 21.998281 
" clip-path="url(#p194ac82892)" style="fill: none; stroke: #cccccc; stroke-width: 0.8; stroke-linecap: round"/>
     </g>
     <g id="text_18">
      <!-- 3000 -->
      <g style="fill: #262626" transform="translate(530.611274 256.476719) scale(0.1 -0.1)">
       <use xlink:href="#DejaVuSans-33"/>
       <use xlink:href="#DejaVuSans-30" transform="translate(63.623047 0)"/>
       <use xlink:href="#DejaVuSans-30" transform="translate(127.246094 0)"/>
       <use xlink:href="#DejaVuSans-30" transform="translate(190.869141 0)"/>
      </g>
     </g>
    </g>
    <g id="xtick_10">
     <g id="line2d_16">
      <path d="M 601.877851 241.878281 
L 601.877851 21.998281 
" clip-path="url(#p194ac82892)" style="fill: none; stroke: #cccccc; stroke-width: 0.8; stroke-linecap: round"/>
     </g>
     <g id="text_19">
      <!-- 4000 -->
      <g style="fill: #262626" transform="translate(589.152851 256.476719) scale(0.1 -0.1)">
       <use xlink:href="#DejaVuSans-34"/>
       <use xlink:href="#DejaVuSans-30" transform="translate(63.623047 0)"/>
       <use xlink:href="#DejaVuSans-30" transform="translate(127.246094 0)"/>
       <use xlink:href="#DejaVuSans-30" transform="translate(190.869141 0)"/>
      </g>
     </g>
    </g>
    <g id="text_20">
     <!-- Height -->
     <g style="fill: #262626" transform="translate(469.553704 270.154844) scale(0.1 -0.1)">
      <defs>
       <path id="DejaVuSans-48" d="M 628 4666 
L 1259 4666 
L 1259 2753 
L 3553 2753 
L 3553 4666 
L 4184 4666 
L 4184 0 
L 3553 0 
L 3553 2222 
L 1259 2222 
L 1259 0 
L 628 0 
L 628 4666 
z
" transform="scale(0.015625)"/>
       <path id="DejaVuSans-67" d="M 2906 1791 
Q 2906 2416 2648 2759 
Q 2391 3103 1925 3103 
Q 1463 3103 1205 2759 
Q 947 2416 947 1791 
Q 947 1169 1205 825 
Q 1463 481 1925 481 
Q 2391 481 2648 825 
Q 2906 1169 2906 1791 
z
M 3481 434 
Q 3481 -459 3084 -895 
Q 2688 -1331 1869 -1331 
Q 1566 -1331 1297 -1286 
Q 1028 -1241 775 -1147 
L 775 -588 
Q 1028 -725 1275 -790 
Q 1522 -856 1778 -856 
Q 2344 -856 2625 -561 
Q 2906 -266 2906 331 
L 2906 616 
Q 2728 306 2450 153 
Q 2172 0 1784 0 
Q 1141 0 747 490 
Q 353 981 353 1791 
Q 353 2603 747 3093 
Q 1141 3584 1784 3584 
Q 2172 3584 2450 3431 
Q 2728 3278 2906 2969 
L 2906 3500 
L 3481 3500 
L 3481 434 
z
" transform="scale(0.015625)"/>
      </defs>
      <use xlink:href="#DejaVuSans-48"/>
      <use xlink:href="#DejaVuSans-65" transform="translate(75.195312 0)"/>
      <use xlink:href="#DejaVuSans-69" transform="translate(136.71875 0)"/>
      <use xlink:href="#DejaVuSans-67" transform="translate(164.501953 0)"/>
      <use xlink:href="#DejaVuSans-68" transform="translate(227.978516 0)"/>
      <use xlink:href="#DejaVuSans-74" transform="translate(291.357422 0)"/>
     </g>
    </g>
   </g>
   <g id="matplotlib.axis_4">
    <g id="ytick_7">
     <g id="line2d_17">
      <path d="M 356.647182 241.878281 
L 615.518039 241.878281 
" clip-path="url(#p194ac82892)" style="fill: none; stroke: #cccccc; stroke-width: 0.8; stroke-linecap: round"/>
     </g>
     <g id="text_21">
      <!-- 0 -->
      <g style="fill: #262626" transform="translate(343.284682 245.6775) scale(0.1 -0.1)">
       <use xlink:href="#DejaVuSans-30"/>
      </g>
     </g>
    </g>
    <g id="ytick_8">
     <g id="line2d_18">
      <path d="M 356.647182 198.504312 
L 615.518039 198.504312 
" clip-path="url(#p194ac82892)" style="fill: none; stroke: #cccccc; stroke-width: 0.8; stroke-linecap: round"/>
     </g>
     <g id="text_22">
      <!-- 500 -->
      <g style="fill: #262626" transform="translate(330.559682 202.303531) scale(0.1 -0.1)">
       <use xlink:href="#DejaVuSans-35"/>
       <use xlink:href="#DejaVuSans-30" transform="translate(63.623047 0)"/>
       <use xlink:href="#DejaVuSans-30" transform="translate(127.246094 0)"/>
      </g>
     </g>
    </g>
    <g id="ytick_9">
     <g id="line2d_19">
      <path d="M 356.647182 155.130343 
L 615.518039 155.130343 
" clip-path="url(#p194ac82892)" style="fill: none; stroke: #cccccc; stroke-width: 0.8; stroke-linecap: round"/>
     </g>
     <g id="text_23">
      <!-- 1000 -->
      <g style="fill: #262626" transform="translate(324.197182 158.929561) scale(0.1 -0.1)">
       <use xlink:href="#DejaVuSans-31"/>
       <use xlink:href="#DejaVuSans-30" transform="translate(63.623047 0)"/>
       <use xlink:href="#DejaVuSans-30" transform="translate(127.246094 0)"/>
       <use xlink:href="#DejaVuSans-30" transform="translate(190.869141 0)"/>
      </g>
     </g>
    </g>
    <g id="ytick_10">
     <g id="line2d_20">
      <path d="M 356.647182 111.756373 
L 615.518039 111.756373 
" clip-path="url(#p194ac82892)" style="fill: none; stroke: #cccccc; stroke-width: 0.8; stroke-linecap: round"/>
     </g>
     <g id="text_24">
      <!-- 1500 -->
      <g style="fill: #262626" transform="translate(324.197182 115.555592) scale(0.1 -0.1)">
       <use xlink:href="#DejaVuSans-31"/>
       <use xlink:href="#DejaVuSans-35" transform="translate(63.623047 0)"/>
       <use xlink:href="#DejaVuSans-30" transform="translate(127.246094 0)"/>
       <use xlink:href="#DejaVuSans-30" transform="translate(190.869141 0)"/>
      </g>
     </g>
    </g>
    <g id="ytick_11">
     <g id="line2d_21">
      <path d="M 356.647182 68.382404 
L 615.518039 68.382404 
" clip-path="url(#p194ac82892)" style="fill: none; stroke: #cccccc; stroke-width: 0.8; stroke-linecap: round"/>
     </g>
     <g id="text_25">
      <!-- 2000 -->
      <g style="fill: #262626" transform="translate(324.197182 72.181623) scale(0.1 -0.1)">
       <use xlink:href="#DejaVuSans-32"/>
       <use xlink:href="#DejaVuSans-30" transform="translate(63.623047 0)"/>
       <use xlink:href="#DejaVuSans-30" transform="translate(127.246094 0)"/>
       <use xlink:href="#DejaVuSans-30" transform="translate(190.869141 0)"/>
      </g>
     </g>
    </g>
    <g id="ytick_12">
     <g id="line2d_22">
      <path d="M 356.647182 25.008435 
L 615.518039 25.008435 
" clip-path="url(#p194ac82892)" style="fill: none; stroke: #cccccc; stroke-width: 0.8; stroke-linecap: round"/>
     </g>
     <g id="text_26">
      <!-- 2500 -->
      <g style="fill: #262626" transform="translate(324.197182 28.807653) scale(0.1 -0.1)">
       <use xlink:href="#DejaVuSans-32"/>
       <use xlink:href="#DejaVuSans-35" transform="translate(63.623047 0)"/>
       <use xlink:href="#DejaVuSans-30" transform="translate(127.246094 0)"/>
       <use xlink:href="#DejaVuSans-30" transform="translate(190.869141 0)"/>
      </g>
     </g>
    </g>
   </g>
   <g id="patch_68">
    <path d="M 368.41404 241.878281 
L 372.336325 241.878281 
L 372.336325 90.503128 
L 368.41404 90.503128 
z
" clip-path="url(#p194ac82892)" style="fill: #55a868; stroke: #ffffff; stroke-linejoin: miter"/>
   </g>
   <g id="patch_69">
    <path d="M 372.336325 241.878281 
L 376.258611 241.878281 
L 376.258611 124.334824 
L 372.336325 124.334824 
z
" clip-path="url(#p194ac82892)" style="fill: #55a868; stroke: #ffffff; stroke-linejoin: miter"/>
   </g>
   <g id="patch_70">
    <path d="M 376.258611 241.878281 
L 380.180897 241.878281 
L 380.180897 186.619844 
L 376.258611 186.619844 
z
" clip-path="url(#p194ac82892)" style="fill: #55a868; stroke: #ffffff; stroke-linejoin: miter"/>
   </g>
   <g id="patch_71">
    <path d="M 380.180897 241.878281 
L 384.103182 241.878281 
L 384.103182 190.870493 
L 380.180897 190.870493 
z
" clip-path="url(#p194ac82892)" style="fill: #55a868; stroke: #ffffff; stroke-linejoin: miter"/>
   </g>
   <g id="patch_72">
    <path d="M 384.103182 241.878281 
L 388.025468 241.878281 
L 388.025468 220.711784 
L 384.103182 220.711784 
z
" clip-path="url(#p194ac82892)" style="fill: #55a868; stroke: #ffffff; stroke-linejoin: miter"/>
   </g>
   <g id="patch_73">
    <path d="M 388.025468 241.878281 
L 391.947754 241.878281 
L 391.947754 227.21788 
L 388.025468 227.21788 
z
" clip-path="url(#p194ac82892)" style="fill: #55a868; stroke: #ffffff; stroke-linejoin: miter"/>
   </g>
   <g id="patch_74">
    <path d="M 391.947754 241.878281 
L 395.870039 241.878281 
L 395.870039 214.292437 
L 391.947754 214.292437 
z
" clip-path="url(#p194ac82892)" style="fill: #55a868; stroke: #ffffff; stroke-linejoin: miter"/>
   </g>
   <g id="patch_75">
    <path d="M 395.870039 241.878281 
L 399.792325 241.878281 
L 399.792325 241.09755 
L 395.870039 241.09755 
z
" clip-path="url(#p194ac82892)" style="fill: #55a868; stroke: #ffffff; stroke-linejoin: miter"/>
   </g>
   <g id="patch_76">
    <path d="M 399.792325 241.878281 
L 403.714611 241.878281 
L 403.714611 241.791533 
L 399.792325 241.791533 
z
" clip-path="url(#p194ac82892)" style="fill: #55a868; stroke: #ffffff; stroke-linejoin: miter"/>
   </g>
   <g id="patch_77">
    <path d="M 403.714611 241.878281 
L 407.636897 241.878281 
L 407.636897 240.143322 
L 403.714611 240.143322 
z
" clip-path="url(#p194ac82892)" style="fill: #55a868; stroke: #ffffff; stroke-linejoin: miter"/>
   </g>
   <g id="patch_78">
    <path d="M 407.636897 241.878281 
L 411.559182 241.878281 
L 411.559182 221.839507 
L 407.636897 221.839507 
z
" clip-path="url(#p194ac82892)" style="fill: #55a868; stroke: #ffffff; stroke-linejoin: miter"/>
   </g>
   <g id="patch_79">
    <path d="M 411.559182 241.878281 
L 415.481468 241.878281 
L 415.481468 240.056575 
L 411.559182 240.056575 
z
" clip-path="url(#p194ac82892)" style="fill: #55a868; stroke: #ffffff; stroke-linejoin: miter"/>
   </g>
   <g id="patch_80">
    <path d="M 415.481468 241.878281 
L 419.403754 241.878281 
L 419.403754 241.531289 
L 415.481468 241.531289 
z
" clip-path="url(#p194ac82892)" style="fill: #55a868; stroke: #ffffff; stroke-linejoin: miter"/>
   </g>
   <g id="patch_81">
    <path d="M 419.403754 241.878281 
L 423.326039 241.878281 
L 423.326039 241.791533 
L 419.403754 241.791533 
z
" clip-path="url(#p194ac82892)" style="fill: #55a868; stroke: #ffffff; stroke-linejoin: miter"/>
   </g>
   <g id="patch_82">
    <path d="M 423.326039 241.878281 
L 427.248325 241.878281 
L 427.248325 241.878281 
L 423.326039 241.878281 
z
" clip-path="url(#p194ac82892)" style="fill: #55a868; stroke: #ffffff; stroke-linejoin: miter"/>
   </g>
   <g id="patch_83">
    <path d="M 427.248325 241.878281 
L 431.170611 241.878281 
L 431.170611 154.523107 
L 427.248325 154.523107 
z
" clip-path="url(#p194ac82892)" style="fill: #55a868; stroke: #ffffff; stroke-linejoin: miter"/>
   </g>
   <g id="patch_84">
    <path d="M 431.170611 241.878281 
L 435.092897 241.878281 
L 435.092897 241.791533 
L 431.170611 241.791533 
z
" clip-path="url(#p194ac82892)" style="fill: #55a868; stroke: #ffffff; stroke-linejoin: miter"/>
   </g>
   <g id="patch_85">
    <path d="M 435.092897 241.878281 
L 439.015182 241.878281 
L 439.015182 241.444542 
L 435.092897 241.444542 
z
" clip-path="url(#p194ac82892)" style="fill: #55a868; stroke: #ffffff; stroke-linejoin: miter"/>
   </g>
   <g id="patch_86">
    <path d="M 439.015182 241.878281 
L 442.937468 241.878281 
L 442.937468 217.415363 
L 439.015182 217.415363 
z
" clip-path="url(#p194ac82892)" style="fill: #55a868; stroke: #ffffff; stroke-linejoin: miter"/>
   </g>
   <g id="patch_87">
    <path d="M 442.937468 241.878281 
L 446.859754 241.878281 
L 446.859754 241.184298 
L 442.937468 241.184298 
z
" clip-path="url(#p194ac82892)" style="fill: #55a868; stroke: #ffffff; stroke-linejoin: miter"/>
   </g>
   <g id="patch_88">
    <path d="M 446.859754 241.878281 
L 450.782039 241.878281 
L 450.782039 240.837306 
L 446.859754 240.837306 
z
" clip-path="url(#p194ac82892)" style="fill: #55a868; stroke: #ffffff; stroke-linejoin: miter"/>
   </g>
   <g id="patch_89">
    <path d="M 450.782039 241.878281 
L 454.704325 241.878281 
L 454.704325 241.704785 
L 450.782039 241.704785 
z
" clip-path="url(#p194ac82892)" style="fill: #55a868; stroke: #ffffff; stroke-linejoin: miter"/>
   </g>
   <g id="patch_90">
    <path d="M 454.704325 241.878281 
L 458.626611 241.878281 
L 458.626611 241.878281 
L 454.704325 241.878281 
z
" clip-path="url(#p194ac82892)" style="fill: #55a868; stroke: #ffffff; stroke-linejoin: miter"/>
   </g>
   <g id="patch_91">
    <path d="M 458.626611 241.878281 
L 462.548896 241.878281 
L 462.548896 238.668608 
L 458.626611 238.668608 
z
" clip-path="url(#p194ac82892)" style="fill: #55a868; stroke: #ffffff; stroke-linejoin: miter"/>
   </g>
   <g id="patch_92">
    <path d="M 462.548896 241.878281 
L 466.471182 241.878281 
L 466.471182 241.878281 
L 462.548896 241.878281 
z
" clip-path="url(#p194ac82892)" style="fill: #55a868; stroke: #ffffff; stroke-linejoin: miter"/>
   </g>
   <g id="patch_93">
    <path d="M 466.471182 241.878281 
L 470.393468 241.878281 
L 470.393468 241.878281 
L 466.471182 241.878281 
z
" clip-path="url(#p194ac82892)" style="fill: #55a868; stroke: #ffffff; stroke-linejoin: miter"/>
   </g>
   <g id="patch_94">
    <path d="M 470.393468 241.878281 
L 474.315754 241.878281 
L 474.315754 241.878281 
L 470.393468 241.878281 
z
" clip-path="url(#p194ac82892)" style="fill: #55a868; stroke: #ffffff; stroke-linejoin: miter"/>
   </g>
   <g id="patch_95">
    <path d="M 474.315754 241.878281 
L 478.238039 241.878281 
L 478.238039 241.878281 
L 474.315754 241.878281 
z
" clip-path="url(#p194ac82892)" style="fill: #55a868; stroke: #ffffff; stroke-linejoin: miter"/>
   </g>
   <g id="patch_96">
    <path d="M 478.238039 241.878281 
L 482.160325 241.878281 
L 482.160325 241.531289 
L 478.238039 241.531289 
z
" clip-path="url(#p194ac82892)" style="fill: #55a868; stroke: #ffffff; stroke-linejoin: miter"/>
   </g>
   <g id="patch_97">
    <path d="M 482.160325 241.878281 
L 486.082611 241.878281 
L 486.082611 241.878281 
L 482.160325 241.878281 
z
" clip-path="url(#p194ac82892)" style="fill: #55a868; stroke: #ffffff; stroke-linejoin: miter"/>
   </g>
   <g id="patch_98">
    <path d="M 486.082611 241.878281 
L 490.004896 241.878281 
L 490.004896 241.878281 
L 486.082611 241.878281 
z
" clip-path="url(#p194ac82892)" style="fill: #55a868; stroke: #ffffff; stroke-linejoin: miter"/>
   </g>
   <g id="patch_99">
    <path d="M 490.004896 241.878281 
L 493.927182 241.878281 
L 493.927182 241.791533 
L 490.004896 241.791533 
z
" clip-path="url(#p194ac82892)" style="fill: #55a868; stroke: #ffffff; stroke-linejoin: miter"/>
   </g>
   <g id="patch_100">
    <path d="M 493.927182 241.878281 
L 497.849468 241.878281 
L 497.849468 241.878281 
L 493.927182 241.878281 
z
" clip-path="url(#p194ac82892)" style="fill: #55a868; stroke: #ffffff; stroke-linejoin: miter"/>
   </g>
   <g id="patch_101">
    <path d="M 497.849468 241.878281 
L 501.771754 241.878281 
L 501.771754 241.878281 
L 497.849468 241.878281 
z
" clip-path="url(#p194ac82892)" style="fill: #55a868; stroke: #ffffff; stroke-linejoin: miter"/>
   </g>
   <g id="patch_102">
    <path d="M 501.771754 241.878281 
L 505.694039 241.878281 
L 505.694039 241.791533 
L 501.771754 241.791533 
z
" clip-path="url(#p194ac82892)" style="fill: #55a868; stroke: #ffffff; stroke-linejoin: miter"/>
   </g>
   <g id="patch_103">
    <path d="M 505.694039 241.878281 
L 509.616325 241.878281 
L 509.616325 241.791533 
L 505.694039 241.791533 
z
" clip-path="url(#p194ac82892)" style="fill: #55a868; stroke: #ffffff; stroke-linejoin: miter"/>
   </g>
   <g id="patch_104">
    <path d="M 509.616325 241.878281 
L 513.538611 241.878281 
L 513.538611 241.618037 
L 509.616325 241.618037 
z
" clip-path="url(#p194ac82892)" style="fill: #55a868; stroke: #ffffff; stroke-linejoin: miter"/>
   </g>
   <g id="patch_105">
    <path d="M 513.538611 241.878281 
L 517.460896 241.878281 
L 517.460896 241.531289 
L 513.538611 241.531289 
z
" clip-path="url(#p194ac82892)" style="fill: #55a868; stroke: #ffffff; stroke-linejoin: miter"/>
   </g>
   <g id="patch_106">
    <path d="M 517.460896 241.878281 
L 521.383182 241.878281 
L 521.383182 241.704785 
L 517.460896 241.704785 
z
" clip-path="url(#p194ac82892)" style="fill: #55a868; stroke: #ffffff; stroke-linejoin: miter"/>
   </g>
   <g id="patch_107">
    <path d="M 521.383182 241.878281 
L 525.305468 241.878281 
L 525.305468 241.618037 
L 521.383182 241.618037 
z
" clip-path="url(#p194ac82892)" style="fill: #55a868; stroke: #ffffff; stroke-linejoin: miter"/>
   </g>
   <g id="patch_108">
    <path d="M 525.305468 241.878281 
L 529.227753 241.878281 
L 529.227753 241.618037 
L 525.305468 241.618037 
z
" clip-path="url(#p194ac82892)" style="fill: #55a868; stroke: #ffffff; stroke-linejoin: miter"/>
   </g>
   <g id="patch_109">
    <path d="M 529.227753 241.878281 
L 533.150039 241.878281 
L 533.150039 241.618037 
L 529.227753 241.618037 
z
" clip-path="url(#p194ac82892)" style="fill: #55a868; stroke: #ffffff; stroke-linejoin: miter"/>
   </g>
   <g id="patch_110">
    <path d="M 533.150039 241.878281 
L 537.072325 241.878281 
L 537.072325 241.444542 
L 533.150039 241.444542 
z
" clip-path="url(#p194ac82892)" style="fill: #55a868; stroke: #ffffff; stroke-linejoin: miter"/>
   </g>
   <g id="patch_111">
    <path d="M 537.072325 241.878281 
L 540.994611 241.878281 
L 540.994611 241.791533 
L 537.072325 241.791533 
z
" clip-path="url(#p194ac82892)" style="fill: #55a868; stroke: #ffffff; stroke-linejoin: miter"/>
   </g>
   <g id="patch_112">
    <path d="M 540.994611 241.878281 
L 544.916896 241.878281 
L 544.916896 216.114143 
L 540.994611 216.114143 
z
" clip-path="url(#p194ac82892)" style="fill: #55a868; stroke: #ffffff; stroke-linejoin: miter"/>
   </g>
   <g id="patch_113">
    <path d="M 544.916896 241.878281 
L 548.839182 241.878281 
L 548.839182 241.878281 
L 544.916896 241.878281 
z
" clip-path="url(#p194ac82892)" style="fill: #55a868; stroke: #ffffff; stroke-linejoin: miter"/>
   </g>
   <g id="patch_114">
    <path d="M 548.839182 241.878281 
L 552.761468 241.878281 
L 552.761468 32.468757 
L 548.839182 32.468757 
z
" clip-path="url(#p194ac82892)" style="fill: #55a868; stroke: #ffffff; stroke-linejoin: miter"/>
   </g>
   <g id="patch_115">
    <path d="M 552.761468 241.878281 
L 556.683753 241.878281 
L 556.683753 241.878281 
L 552.761468 241.878281 
z
" clip-path="url(#p194ac82892)" style="fill: #55a868; stroke: #ffffff; stroke-linejoin: miter"/>
   </g>
   <g id="patch_116">
    <path d="M 556.683753 241.878281 
L 560.606039 241.878281 
L 560.606039 241.878281 
L 556.683753 241.878281 
z
" clip-path="url(#p194ac82892)" style="fill: #55a868; stroke: #ffffff; stroke-linejoin: miter"/>
   </g>
   <g id="patch_117">
    <path d="M 560.606039 241.878281 
L 564.528325 241.878281 
L 564.528325 241.878281 
L 560.606039 241.878281 
z
" clip-path="url(#p194ac82892)" style="fill: #55a868; stroke: #ffffff; stroke-linejoin: miter"/>
   </g>
   <g id="patch_118">
    <path d="M 564.528325 241.878281 
L 568.45061 241.878281 
L 568.45061 241.878281 
L 564.528325 241.878281 
z
" clip-path="url(#p194ac82892)" style="fill: #55a868; stroke: #ffffff; stroke-linejoin: miter"/>
   </g>
   <g id="patch_119">
    <path d="M 568.45061 241.878281 
L 572.372896 241.878281 
L 572.372896 241.878281 
L 568.45061 241.878281 
z
" clip-path="url(#p194ac82892)" style="fill: #55a868; stroke: #ffffff; stroke-linejoin: miter"/>
   </g>
   <g id="patch_120">
    <path d="M 572.372896 241.878281 
L 576.295182 241.878281 
L 576.295182 241.878281 
L 572.372896 241.878281 
z
" clip-path="url(#p194ac82892)" style="fill: #55a868; stroke: #ffffff; stroke-linejoin: miter"/>
   </g>
   <g id="patch_121">
    <path d="M 576.295182 241.878281 
L 580.217468 241.878281 
L 580.217468 241.878281 
L 576.295182 241.878281 
z
" clip-path="url(#p194ac82892)" style="fill: #55a868; stroke: #ffffff; stroke-linejoin: miter"/>
   </g>
   <g id="patch_122">
    <path d="M 580.217468 241.878281 
L 584.139753 241.878281 
L 584.139753 241.878281 
L 580.217468 241.878281 
z
" clip-path="url(#p194ac82892)" style="fill: #55a868; stroke: #ffffff; stroke-linejoin: miter"/>
   </g>
   <g id="patch_123">
    <path d="M 584.139753 241.878281 
L 588.062039 241.878281 
L 588.062039 241.878281 
L 584.139753 241.878281 
z
" clip-path="url(#p194ac82892)" style="fill: #55a868; stroke: #ffffff; stroke-linejoin: miter"/>
   </g>
   <g id="patch_124">
    <path d="M 588.062039 241.878281 
L 591.984325 241.878281 
L 591.984325 241.878281 
L 588.062039 241.878281 
z
" clip-path="url(#p194ac82892)" style="fill: #55a868; stroke: #ffffff; stroke-linejoin: miter"/>
   </g>
   <g id="patch_125">
    <path d="M 591.984325 241.878281 
L 595.90661 241.878281 
L 595.90661 241.878281 
L 591.984325 241.878281 
z
" clip-path="url(#p194ac82892)" style="fill: #55a868; stroke: #ffffff; stroke-linejoin: miter"/>
   </g>
   <g id="patch_126">
    <path d="M 595.90661 241.878281 
L 599.828896 241.878281 
L 599.828896 241.878281 
L 595.90661 241.878281 
z
" clip-path="url(#p194ac82892)" style="fill: #55a868; stroke: #ffffff; stroke-linejoin: miter"/>
   </g>
   <g id="patch_127">
    <path d="M 599.828896 241.878281 
L 603.751182 241.878281 
L 603.751182 235.285438 
L 599.828896 235.285438 
z
" clip-path="url(#p194ac82892)" style="fill: #55a868; stroke: #ffffff; stroke-linejoin: miter"/>
   </g>
   <g id="patch_128">
    <path d="M 356.647182 241.878281 
L 356.647182 21.998281 
" style="fill: none; stroke: #cccccc; stroke-width: 0.8; stroke-linejoin: miter; stroke-linecap: square"/>
   </g>
   <g id="patch_129">
    <path d="M 615.518039 241.878281 
L 615.518039 21.998281 
" style="fill: none; stroke: #cccccc; stroke-width: 0.8; stroke-linejoin: miter; stroke-linecap: square"/>
   </g>
   <g id="patch_130">
    <path d="M 356.647182 241.878281 
L 615.518039 241.878281 
" style="fill: none; stroke: #cccccc; stroke-width: 0.8; stroke-linejoin: miter; stroke-linecap: square"/>
   </g>
   <g id="patch_131">
    <path d="M 356.647182 21.998281 
L 615.518039 21.998281 
" style="fill: none; stroke: #cccccc; stroke-width: 0.8; stroke-linejoin: miter; stroke-linecap: square"/>
   </g>
   <g id="text_27">
    <!-- Distribución de height (px) -->
    <g style="fill: #262626" transform="translate(412.439329 15.998281) scale(0.11 -0.11)">
     <use xlink:href="#DejaVuSans-44"/>
     <use xlink:href="#DejaVuSans-69" transform="translate(77.001953 0)"/>
     <use xlink:href="#DejaVuSans-73" transform="translate(104.785156 0)"/>
     <use xlink:href="#DejaVuSans-74" transform="translate(156.884766 0)"/>
     <use xlink:href="#DejaVuSans-72" transform="translate(196.09375 0)"/>
     <use xlink:href="#DejaVuSans-69" transform="translate(237.207031 0)"/>
     <use xlink:href="#DejaVuSans-62" transform="translate(264.990234 0)"/>
     <use xlink:href="#DejaVuSans-75" transform="translate(328.466797 0)"/>
     <use xlink:href="#DejaVuSans-63" transform="translate(391.845703 0)"/>
     <use xlink:href="#DejaVuSans-69" transform="translate(446.826172 0)"/>
     <use xlink:href="#DejaVuSans-f3" transform="translate(474.609375 0)"/>
     <use xlink:href="#DejaVuSans-6e" transform="translate(535.791016 0)"/>
     <use xlink:href="#DejaVuSans-20" transform="translate(599.169922 0)"/>
     <use xlink:href="#DejaVuSans-64" transform="translate(630.957031 0)"/>
     <use xlink:href="#DejaVuSans-65" transform="translate(694.433594 0)"/>
     <use xlink:href="#DejaVuSans-20" transform="translate(755.957031 0)"/>
     <use xlink:href="#DejaVuSans-68" transform="translate(787.744141 0)"/>
     <use xlink:href="#DejaVuSans-65" transform="translate(851.123047 0)"/>
     <use xlink:href="#DejaVuSans-69" transform="translate(912.646484 0)"/>
     <use xlink:href="#DejaVuSans-67" transform="translate(940.429688 0)"/>
     <use xlink:href="#DejaVuSans-68" transform="translate(1003.90625 0)"/>
     <use xlink:href="#DejaVuSans-74" transform="translate(1067.285156 0)"/>
     <use xlink:href="#DejaVuSans-20" transform="translate(1106.494141 0)"/>
     <use xlink:href="#DejaVuSans-28" transform="translate(1138.28125 0)"/>
     <use xlink:href="#DejaVuSans-70" transform="translate(1177.294922 0)"/>
     <use xlink:href="#DejaVuSans-78" transform="translate(1240.771484 0)"/>
     <use xlink:href="#DejaVuSans-29" transform="translate(1299.951172 0)"/>
    </g>
   </g>
  </g>
  <g id="axes_3">
   <g id="patch_132">
    <path d="M 659.96624 241.878281 
L 918.837096 241.878281 
L 918.837096 21.998281 
L 659.96624 21.998281 
z
" style="fill: #ffffff"/>
   </g>
   <g id="matplotlib.axis_5">
    <g id="xtick_11">
     <g id="line2d_23">
      <path d="M 686.99629 241.878281 
L 686.99629 21.998281 
" clip-path="url(#p15b971099d)" style="fill: none; stroke: #cccccc; stroke-width: 0.8; stroke-linecap: round"/>
     </g>
     <g id="text_28">
      <!-- 0.5 -->
      <g style="fill: #262626" transform="translate(679.044728 256.476719) scale(0.1 -0.1)">
       <defs>
        <path id="DejaVuSans-2e" d="M 684 794 
L 1344 794 
L 1344 0 
L 684 0 
L 684 794 
z
" transform="scale(0.015625)"/>
       </defs>
       <use xlink:href="#DejaVuSans-30"/>
       <use xlink:href="#DejaVuSans-2e" transform="translate(63.623047 0)"/>
       <use xlink:href="#DejaVuSans-35" transform="translate(95.410156 0)"/>
      </g>
     </g>
    </g>
    <g id="xtick_12">
     <g id="line2d_24">
      <path d="M 720.007383 241.878281 
L 720.007383 21.998281 
" clip-path="url(#p15b971099d)" style="fill: none; stroke: #cccccc; stroke-width: 0.8; stroke-linecap: round"/>
     </g>
     <g id="text_29">
      <!-- 1.0 -->
      <g style="fill: #262626" transform="translate(712.05582 256.476719) scale(0.1 -0.1)">
       <use xlink:href="#DejaVuSans-31"/>
       <use xlink:href="#DejaVuSans-2e" transform="translate(63.623047 0)"/>
       <use xlink:href="#DejaVuSans-30" transform="translate(95.410156 0)"/>
      </g>
     </g>
    </g>
    <g id="xtick_13">
     <g id="line2d_25">
      <path d="M 753.018475 241.878281 
L 753.018475 21.998281 
" clip-path="url(#p15b971099d)" style="fill: none; stroke: #cccccc; stroke-width: 0.8; stroke-linecap: round"/>
     </g>
     <g id="text_30">
      <!-- 1.5 -->
      <g style="fill: #262626" transform="translate(745.066912 256.476719) scale(0.1 -0.1)">
       <use xlink:href="#DejaVuSans-31"/>
       <use xlink:href="#DejaVuSans-2e" transform="translate(63.623047 0)"/>
       <use xlink:href="#DejaVuSans-35" transform="translate(95.410156 0)"/>
      </g>
     </g>
    </g>
    <g id="xtick_14">
     <g id="line2d_26">
      <path d="M 786.029567 241.878281 
L 786.029567 21.998281 
" clip-path="url(#p15b971099d)" style="fill: none; stroke: #cccccc; stroke-width: 0.8; stroke-linecap: round"/>
     </g>
     <g id="text_31">
      <!-- 2.0 -->
      <g style="fill: #262626" transform="translate(778.078005 256.476719) scale(0.1 -0.1)">
       <use xlink:href="#DejaVuSans-32"/>
       <use xlink:href="#DejaVuSans-2e" transform="translate(63.623047 0)"/>
       <use xlink:href="#DejaVuSans-30" transform="translate(95.410156 0)"/>
      </g>
     </g>
    </g>
    <g id="xtick_15">
     <g id="line2d_27">
      <path d="M 819.04066 241.878281 
L 819.04066 21.998281 
" clip-path="url(#p15b971099d)" style="fill: none; stroke: #cccccc; stroke-width: 0.8; stroke-linecap: round"/>
     </g>
     <g id="text_32">
      <!-- 2.5 -->
      <g style="fill: #262626" transform="translate(811.089097 256.476719) scale(0.1 -0.1)">
       <use xlink:href="#DejaVuSans-32"/>
       <use xlink:href="#DejaVuSans-2e" transform="translate(63.623047 0)"/>
       <use xlink:href="#DejaVuSans-35" transform="translate(95.410156 0)"/>
      </g>
     </g>
    </g>
    <g id="xtick_16">
     <g id="line2d_28">
      <path d="M 852.051752 241.878281 
L 852.051752 21.998281 
" clip-path="url(#p15b971099d)" style="fill: none; stroke: #cccccc; stroke-width: 0.8; stroke-linecap: round"/>
     </g>
     <g id="text_33">
      <!-- 3.0 -->
      <g style="fill: #262626" transform="translate(844.10019 256.476719) scale(0.1 -0.1)">
       <use xlink:href="#DejaVuSans-33"/>
       <use xlink:href="#DejaVuSans-2e" transform="translate(63.623047 0)"/>
       <use xlink:href="#DejaVuSans-30" transform="translate(95.410156 0)"/>
      </g>
     </g>
    </g>
    <g id="xtick_17">
     <g id="line2d_29">
      <path d="M 885.062844 241.878281 
L 885.062844 21.998281 
" clip-path="url(#p15b971099d)" style="fill: none; stroke: #cccccc; stroke-width: 0.8; stroke-linecap: round"/>
     </g>
     <g id="text_34">
      <!-- 3.5 -->
      <g style="fill: #262626" transform="translate(877.111282 256.476719) scale(0.1 -0.1)">
       <use xlink:href="#DejaVuSans-33"/>
       <use xlink:href="#DejaVuSans-2e" transform="translate(63.623047 0)"/>
       <use xlink:href="#DejaVuSans-35" transform="translate(95.410156 0)"/>
      </g>
     </g>
    </g>
    <g id="xtick_18">
     <g id="line2d_30">
      <path d="M 918.073937 241.878281 
L 918.073937 21.998281 
" clip-path="url(#p15b971099d)" style="fill: none; stroke: #cccccc; stroke-width: 0.8; stroke-linecap: round"/>
     </g>
     <g id="text_35">
      <!-- 4.0 -->
      <g style="fill: #262626" transform="translate(910.122374 256.476719) scale(0.1 -0.1)">
       <use xlink:href="#DejaVuSans-34"/>
       <use xlink:href="#DejaVuSans-2e" transform="translate(63.623047 0)"/>
       <use xlink:href="#DejaVuSans-30" transform="translate(95.410156 0)"/>
      </g>
     </g>
    </g>
    <g id="text_36">
     <!-- Aspect ratio -->
     <g style="fill: #262626" transform="translate(759.299324 270.154844) scale(0.1 -0.1)">
      <defs>
       <path id="DejaVuSans-41" d="M 2188 4044 
L 1331 1722 
L 3047 1722 
L 2188 4044 
z
M 1831 4666 
L 2547 4666 
L 4325 0 
L 3669 0 
L 3244 1197 
L 1141 1197 
L 716 0 
L 50 0 
L 1831 4666 
z
" transform="scale(0.015625)"/>
       <path id="DejaVuSans-6f" d="M 1959 3097 
Q 1497 3097 1228 2736 
Q 959 2375 959 1747 
Q 959 1119 1226 758 
Q 1494 397 1959 397 
Q 2419 397 2687 759 
Q 2956 1122 2956 1747 
Q 2956 2369 2687 2733 
Q 2419 3097 1959 3097 
z
M 1959 3584 
Q 2709 3584 3137 3096 
Q 3566 2609 3566 1747 
Q 3566 888 3137 398 
Q 2709 -91 1959 -91 
Q 1206 -91 779 398 
Q 353 888 353 1747 
Q 353 2609 779 3096 
Q 1206 3584 1959 3584 
z
" transform="scale(0.015625)"/>
      </defs>
      <use xlink:href="#DejaVuSans-41"/>
      <use xlink:href="#DejaVuSans-73" transform="translate(68.408203 0)"/>
      <use xlink:href="#DejaVuSans-70" transform="translate(120.507812 0)"/>
      <use xlink:href="#DejaVuSans-65" transform="translate(183.984375 0)"/>
      <use xlink:href="#DejaVuSans-63" transform="translate(245.507812 0)"/>
      <use xlink:href="#DejaVuSans-74" transform="translate(300.488281 0)"/>
      <use xlink:href="#DejaVuSans-20" transform="translate(339.697266 0)"/>
      <use xlink:href="#DejaVuSans-72" transform="translate(371.484375 0)"/>
      <use xlink:href="#DejaVuSans-61" transform="translate(412.597656 0)"/>
      <use xlink:href="#DejaVuSans-74" transform="translate(473.876953 0)"/>
      <use xlink:href="#DejaVuSans-69" transform="translate(513.085938 0)"/>
      <use xlink:href="#DejaVuSans-6f" transform="translate(540.869141 0)"/>
     </g>
    </g>
   </g>
   <g id="matplotlib.axis_6">
    <g id="ytick_13">
     <g id="line2d_31">
      <path d="M 659.96624 241.878281 
L 918.837096 241.878281 
" clip-path="url(#p15b971099d)" style="fill: none; stroke: #cccccc; stroke-width: 0.8; stroke-linecap: round"/>
     </g>
     <g id="text_37">
      <!-- 0 -->
      <g style="fill: #262626" transform="translate(646.60374 245.6775) scale(0.1 -0.1)">
       <use xlink:href="#DejaVuSans-30"/>
      </g>
     </g>
    </g>
    <g id="ytick_14">
     <g id="line2d_32">
      <path d="M 659.96624 212.540999 
L 918.837096 212.540999 
" clip-path="url(#p15b971099d)" style="fill: none; stroke: #cccccc; stroke-width: 0.8; stroke-linecap: round"/>
     </g>
     <g id="text_38">
      <!-- 500 -->
      <g style="fill: #262626" transform="translate(633.87874 216.340217) scale(0.1 -0.1)">
       <use xlink:href="#DejaVuSans-35"/>
       <use xlink:href="#DejaVuSans-30" transform="translate(63.623047 0)"/>
       <use xlink:href="#DejaVuSans-30" transform="translate(127.246094 0)"/>
      </g>
     </g>
    </g>
    <g id="ytick_15">
     <g id="line2d_33">
      <path d="M 659.96624 183.203716 
L 918.837096 183.203716 
" clip-path="url(#p15b971099d)" style="fill: none; stroke: #cccccc; stroke-width: 0.8; stroke-linecap: round"/>
     </g>
     <g id="text_39">
      <!-- 1000 -->
      <g style="fill: #262626" transform="translate(627.51624 187.002935) scale(0.1 -0.1)">
       <use xlink:href="#DejaVuSans-31"/>
       <use xlink:href="#DejaVuSans-30" transform="translate(63.623047 0)"/>
       <use xlink:href="#DejaVuSans-30" transform="translate(127.246094 0)"/>
       <use xlink:href="#DejaVuSans-30" transform="translate(190.869141 0)"/>
      </g>
     </g>
    </g>
    <g id="ytick_16">
     <g id="line2d_34">
      <path d="M 659.96624 153.866433 
L 918.837096 153.866433 
" clip-path="url(#p15b971099d)" style="fill: none; stroke: #cccccc; stroke-width: 0.8; stroke-linecap: round"/>
     </g>
     <g id="text_40">
      <!-- 1500 -->
      <g style="fill: #262626" transform="translate(627.51624 157.665652) scale(0.1 -0.1)">
       <use xlink:href="#DejaVuSans-31"/>
       <use xlink:href="#DejaVuSans-35" transform="translate(63.623047 0)"/>
       <use xlink:href="#DejaVuSans-30" transform="translate(127.246094 0)"/>
       <use xlink:href="#DejaVuSans-30" transform="translate(190.869141 0)"/>
      </g>
     </g>
    </g>
    <g id="ytick_17">
     <g id="line2d_35">
      <path d="M 659.96624 124.529151 
L 918.837096 124.529151 
" clip-path="url(#p15b971099d)" style="fill: none; stroke: #cccccc; stroke-width: 0.8; stroke-linecap: round"/>
     </g>
     <g id="text_41">
      <!-- 2000 -->
      <g style="fill: #262626" transform="translate(627.51624 128.328369) scale(0.1 -0.1)">
       <use xlink:href="#DejaVuSans-32"/>
       <use xlink:href="#DejaVuSans-30" transform="translate(63.623047 0)"/>
       <use xlink:href="#DejaVuSans-30" transform="translate(127.246094 0)"/>
       <use xlink:href="#DejaVuSans-30" transform="translate(190.869141 0)"/>
      </g>
     </g>
    </g>
    <g id="ytick_18">
     <g id="line2d_36">
      <path d="M 659.96624 95.191868 
L 918.837096 95.191868 
" clip-path="url(#p15b971099d)" style="fill: none; stroke: #cccccc; stroke-width: 0.8; stroke-linecap: round"/>
     </g>
     <g id="text_42">
      <!-- 2500 -->
      <g style="fill: #262626" transform="translate(627.51624 98.991087) scale(0.1 -0.1)">
       <use xlink:href="#DejaVuSans-32"/>
       <use xlink:href="#DejaVuSans-35" transform="translate(63.623047 0)"/>
       <use xlink:href="#DejaVuSans-30" transform="translate(127.246094 0)"/>
       <use xlink:href="#DejaVuSans-30" transform="translate(190.869141 0)"/>
      </g>
     </g>
    </g>
    <g id="ytick_19">
     <g id="line2d_37">
      <path d="M 659.96624 65.854585 
L 918.837096 65.854585 
" clip-path="url(#p15b971099d)" style="fill: none; stroke: #cccccc; stroke-width: 0.8; stroke-linecap: round"/>
     </g>
     <g id="text_43">
      <!-- 3000 -->
      <g style="fill: #262626" transform="translate(627.51624 69.653804) scale(0.1 -0.1)">
       <use xlink:href="#DejaVuSans-33"/>
       <use xlink:href="#DejaVuSans-30" transform="translate(63.623047 0)"/>
       <use xlink:href="#DejaVuSans-30" transform="translate(127.246094 0)"/>
       <use xlink:href="#DejaVuSans-30" transform="translate(190.869141 0)"/>
      </g>
     </g>
    </g>
    <g id="ytick_20">
     <g id="line2d_38">
      <path d="M 659.96624 36.517302 
L 918.837096 36.517302 
" clip-path="url(#p15b971099d)" style="fill: none; stroke: #cccccc; stroke-width: 0.8; stroke-linecap: round"/>
     </g>
     <g id="text_44">
      <!-- 3500 -->
      <g style="fill: #262626" transform="translate(627.51624 40.316521) scale(0.1 -0.1)">
       <use xlink:href="#DejaVuSans-33"/>
       <use xlink:href="#DejaVuSans-35" transform="translate(63.623047 0)"/>
       <use xlink:href="#DejaVuSans-30" transform="translate(127.246094 0)"/>
       <use xlink:href="#DejaVuSans-30" transform="translate(190.869141 0)"/>
      </g>
     </g>
    </g>
   </g>
   <g id="patch_133">
    <path d="M 671.733097 241.878281 
L 675.655383 241.878281 
L 675.655383 239.237926 
L 671.733097 239.237926 
z
" clip-path="url(#p15b971099d)" style="fill: #c44e52; stroke: #ffffff; stroke-linejoin: miter"/>
   </g>
   <g id="patch_134">
    <path d="M 675.655383 241.878281 
L 679.577668 241.878281 
L 679.577668 236.362872 
L 675.655383 236.362872 
z
" clip-path="url(#p15b971099d)" style="fill: #c44e52; stroke: #ffffff; stroke-linejoin: miter"/>
   </g>
   <g id="patch_135">
    <path d="M 679.577668 241.878281 
L 683.499954 241.878281 
L 683.499954 238.00576 
L 679.577668 238.00576 
z
" clip-path="url(#p15b971099d)" style="fill: #c44e52; stroke: #ffffff; stroke-linejoin: miter"/>
   </g>
   <g id="patch_136">
    <path d="M 683.499954 241.878281 
L 687.42224 241.878281 
L 687.42224 234.543961 
L 683.499954 234.543961 
z
" clip-path="url(#p15b971099d)" style="fill: #c44e52; stroke: #ffffff; stroke-linejoin: miter"/>
   </g>
   <g id="patch_137">
    <path d="M 687.42224 241.878281 
L 691.344526 241.878281 
L 691.344526 232.020954 
L 687.42224 232.020954 
z
" clip-path="url(#p15b971099d)" style="fill: #c44e52; stroke: #ffffff; stroke-linejoin: miter"/>
   </g>
   <g id="patch_138">
    <path d="M 691.344526 241.878281 
L 695.266811 241.878281 
L 695.266811 238.65118 
L 691.344526 238.65118 
z
" clip-path="url(#p15b971099d)" style="fill: #c44e52; stroke: #ffffff; stroke-linejoin: miter"/>
   </g>
   <g id="patch_139">
    <path d="M 695.266811 241.878281 
L 699.189097 241.878281 
L 699.189097 238.240458 
L 695.266811 238.240458 
z
" clip-path="url(#p15b971099d)" style="fill: #c44e52; stroke: #ffffff; stroke-linejoin: miter"/>
   </g>
   <g id="patch_140">
    <path d="M 699.189097 241.878281 
L 703.111383 241.878281 
L 703.111383 239.003228 
L 699.189097 239.003228 
z
" clip-path="url(#p15b971099d)" style="fill: #c44e52; stroke: #ffffff; stroke-linejoin: miter"/>
   </g>
   <g id="patch_141">
    <path d="M 703.111383 241.878281 
L 707.033668 241.878281 
L 707.033668 214.35991 
L 703.111383 214.35991 
z
" clip-path="url(#p15b971099d)" style="fill: #c44e52; stroke: #ffffff; stroke-linejoin: miter"/>
   </g>
   <g id="patch_142">
    <path d="M 707.033668 241.878281 
L 710.955954 241.878281 
L 710.955954 229.732646 
L 707.033668 229.732646 
z
" clip-path="url(#p15b971099d)" style="fill: #c44e52; stroke: #ffffff; stroke-linejoin: miter"/>
   </g>
   <g id="patch_143">
    <path d="M 710.955954 241.878281 
L 714.87824 241.878281 
L 714.87824 224.041213 
L 710.955954 224.041213 
z
" clip-path="url(#p15b971099d)" style="fill: #c44e52; stroke: #ffffff; stroke-linejoin: miter"/>
   </g>
   <g id="patch_144">
    <path d="M 714.87824 241.878281 
L 718.800525 241.878281 
L 718.800525 211.543531 
L 714.87824 211.543531 
z
" clip-path="url(#p15b971099d)" style="fill: #c44e52; stroke: #ffffff; stroke-linejoin: miter"/>
   </g>
   <g id="patch_145">
    <path d="M 718.800525 241.878281 
L 722.722811 241.878281 
L 722.722811 32.468757 
L 718.800525 32.468757 
z
" clip-path="url(#p15b971099d)" style="fill: #c44e52; stroke: #ffffff; stroke-linejoin: miter"/>
   </g>
   <g id="patch_146">
    <path d="M 722.722811 241.878281 
L 726.645097 241.878281 
L 726.645097 214.301236 
L 722.722811 214.301236 
z
" clip-path="url(#p15b971099d)" style="fill: #c44e52; stroke: #ffffff; stroke-linejoin: miter"/>
   </g>
   <g id="patch_147">
    <path d="M 726.645097 241.878281 
L 730.567383 241.878281 
L 730.567383 219.229899 
L 726.645097 219.229899 
z
" clip-path="url(#p15b971099d)" style="fill: #c44e52; stroke: #ffffff; stroke-linejoin: miter"/>
   </g>
   <g id="patch_148">
    <path d="M 730.567383 241.878281 
L 734.489668 241.878281 
L 734.489668 224.51061 
L 730.567383 224.51061 
z
" clip-path="url(#p15b971099d)" style="fill: #c44e52; stroke: #ffffff; stroke-linejoin: miter"/>
   </g>
   <g id="patch_149">
    <path d="M 734.489668 241.878281 
L 738.411954 241.878281 
L 738.411954 231.492883 
L 734.489668 231.492883 
z
" clip-path="url(#p15b971099d)" style="fill: #c44e52; stroke: #ffffff; stroke-linejoin: miter"/>
   </g>
   <g id="patch_150">
    <path d="M 738.411954 241.878281 
L 742.33424 241.878281 
L 742.33424 217.939059 
L 738.411954 217.939059 
z
" clip-path="url(#p15b971099d)" style="fill: #c44e52; stroke: #ffffff; stroke-linejoin: miter"/>
   </g>
   <g id="patch_151">
    <path d="M 742.33424 241.878281 
L 746.256525 241.878281 
L 746.256525 239.707322 
L 742.33424 239.707322 
z
" clip-path="url(#p15b971099d)" style="fill: #c44e52; stroke: #ffffff; stroke-linejoin: miter"/>
   </g>
   <g id="patch_152">
    <path d="M 746.256525 241.878281 
L 750.178811 241.878281 
L 750.178811 237.595038 
L 746.256525 237.595038 
z
" clip-path="url(#p15b971099d)" style="fill: #c44e52; stroke: #ffffff; stroke-linejoin: miter"/>
   </g>
   <g id="patch_153">
    <path d="M 750.178811 241.878281 
L 754.101097 241.878281 
L 754.101097 238.944553 
L 750.178811 238.944553 
z
" clip-path="url(#p15b971099d)" style="fill: #c44e52; stroke: #ffffff; stroke-linejoin: miter"/>
   </g>
   <g id="patch_154">
    <path d="M 754.101097 241.878281 
L 758.023383 241.878281 
L 758.023383 240.470092 
L 754.101097 240.470092 
z
" clip-path="url(#p15b971099d)" style="fill: #c44e52; stroke: #ffffff; stroke-linejoin: miter"/>
   </g>
   <g id="patch_155">
    <path d="M 758.023383 241.878281 
L 761.945668 241.878281 
L 761.945668 240.939488 
L 758.023383 240.939488 
z
" clip-path="url(#p15b971099d)" style="fill: #c44e52; stroke: #ffffff; stroke-linejoin: miter"/>
   </g>
   <g id="patch_156">
    <path d="M 761.945668 241.878281 
L 765.867954 241.878281 
L 765.867954 240.587441 
L 761.945668 240.587441 
z
" clip-path="url(#p15b971099d)" style="fill: #c44e52; stroke: #ffffff; stroke-linejoin: miter"/>
   </g>
   <g id="patch_157">
    <path d="M 765.867954 241.878281 
L 769.79024 241.878281 
L 769.79024 239.120577 
L 765.867954 239.120577 
z
" clip-path="url(#p15b971099d)" style="fill: #c44e52; stroke: #ffffff; stroke-linejoin: miter"/>
   </g>
   <g id="patch_158">
    <path d="M 769.79024 241.878281 
L 773.712525 241.878281 
L 773.712525 166.364116 
L 769.79024 166.364116 
z
" clip-path="url(#p15b971099d)" style="fill: #c44e52; stroke: #ffffff; stroke-linejoin: miter"/>
   </g>
   <g id="patch_159">
    <path d="M 773.712525 241.878281 
L 777.634811 241.878281 
L 777.634811 240.235393 
L 773.712525 240.235393 
z
" clip-path="url(#p15b971099d)" style="fill: #c44e52; stroke: #ffffff; stroke-linejoin: miter"/>
   </g>
   <g id="patch_160">
    <path d="M 777.634811 241.878281 
L 781.557097 241.878281 
L 781.557097 238.885878 
L 777.634811 238.885878 
z
" clip-path="url(#p15b971099d)" style="fill: #c44e52; stroke: #ffffff; stroke-linejoin: miter"/>
   </g>
   <g id="patch_161">
    <path d="M 781.557097 241.878281 
L 785.479382 241.878281 
L 785.479382 241.232861 
L 781.557097 241.232861 
z
" clip-path="url(#p15b971099d)" style="fill: #c44e52; stroke: #ffffff; stroke-linejoin: miter"/>
   </g>
   <g id="patch_162">
    <path d="M 785.479382 241.878281 
L 789.401668 241.878281 
L 789.401668 239.648648 
L 785.479382 239.648648 
z
" clip-path="url(#p15b971099d)" style="fill: #c44e52; stroke: #ffffff; stroke-linejoin: miter"/>
   </g>
   <g id="patch_163">
    <path d="M 789.401668 241.878281 
L 793.323954 241.878281 
L 793.323954 240.880814 
L 789.401668 240.880814 
z
" clip-path="url(#p15b971099d)" style="fill: #c44e52; stroke: #ffffff; stroke-linejoin: miter"/>
   </g>
   <g id="patch_164">
    <path d="M 793.323954 241.878281 
L 797.24624 241.878281 
L 797.24624 240.05937 
L 793.323954 240.05937 
z
" clip-path="url(#p15b971099d)" style="fill: #c44e52; stroke: #ffffff; stroke-linejoin: miter"/>
   </g>
   <g id="patch_165">
    <path d="M 797.24624 241.878281 
L 801.168525 241.878281 
L 801.168525 239.765997 
L 797.24624 239.765997 
z
" clip-path="url(#p15b971099d)" style="fill: #c44e52; stroke: #ffffff; stroke-linejoin: miter"/>
   </g>
   <g id="patch_166">
    <path d="M 801.168525 241.878281 
L 805.090811 241.878281 
L 805.090811 240.411417 
L 801.168525 240.411417 
z
" clip-path="url(#p15b971099d)" style="fill: #c44e52; stroke: #ffffff; stroke-linejoin: miter"/>
   </g>
   <g id="patch_167">
    <path d="M 805.090811 241.878281 
L 809.013097 241.878281 
L 809.013097 240.176719 
L 805.090811 240.176719 
z
" clip-path="url(#p15b971099d)" style="fill: #c44e52; stroke: #ffffff; stroke-linejoin: miter"/>
   </g>
   <g id="patch_168">
    <path d="M 809.013097 241.878281 
L 812.935382 241.878281 
L 812.935382 240.000695 
L 809.013097 240.000695 
z
" clip-path="url(#p15b971099d)" style="fill: #c44e52; stroke: #ffffff; stroke-linejoin: miter"/>
   </g>
   <g id="patch_169">
    <path d="M 812.935382 241.878281 
L 816.857668 241.878281 
L 816.857668 241.056837 
L 812.935382 241.056837 
z
" clip-path="url(#p15b971099d)" style="fill: #c44e52; stroke: #ffffff; stroke-linejoin: miter"/>
   </g>
   <g id="patch_170">
    <path d="M 816.857668 241.878281 
L 820.779954 241.878281 
L 820.779954 241.35021 
L 816.857668 241.35021 
z
" clip-path="url(#p15b971099d)" style="fill: #c44e52; stroke: #ffffff; stroke-linejoin: miter"/>
   </g>
   <g id="patch_171">
    <path d="M 820.779954 241.878281 
L 824.702239 241.878281 
L 824.702239 241.232861 
L 820.779954 241.232861 
z
" clip-path="url(#p15b971099d)" style="fill: #c44e52; stroke: #ffffff; stroke-linejoin: miter"/>
   </g>
   <g id="patch_172">
    <path d="M 824.702239 241.878281 
L 828.624525 241.878281 
L 828.624525 241.760932 
L 824.702239 241.760932 
z
" clip-path="url(#p15b971099d)" style="fill: #c44e52; stroke: #ffffff; stroke-linejoin: miter"/>
   </g>
   <g id="patch_173">
    <path d="M 828.624525 241.878281 
L 832.546811 241.878281 
L 832.546811 241.232861 
L 828.624525 241.232861 
z
" clip-path="url(#p15b971099d)" style="fill: #c44e52; stroke: #ffffff; stroke-linejoin: miter"/>
   </g>
   <g id="patch_174">
    <path d="M 832.546811 241.878281 
L 836.469097 241.878281 
L 836.469097 241.408885 
L 832.546811 241.408885 
z
" clip-path="url(#p15b971099d)" style="fill: #c44e52; stroke: #ffffff; stroke-linejoin: miter"/>
   </g>
   <g id="patch_175">
    <path d="M 836.469097 241.878281 
L 840.391382 241.878281 
L 840.391382 241.056837 
L 836.469097 241.056837 
z
" clip-path="url(#p15b971099d)" style="fill: #c44e52; stroke: #ffffff; stroke-linejoin: miter"/>
   </g>
   <g id="patch_176">
    <path d="M 840.391382 241.878281 
L 844.313668 241.878281 
L 844.313668 240.939488 
L 840.391382 240.939488 
z
" clip-path="url(#p15b971099d)" style="fill: #c44e52; stroke: #ffffff; stroke-linejoin: miter"/>
   </g>
   <g id="patch_177">
    <path d="M 844.313668 241.878281 
L 848.235954 241.878281 
L 848.235954 240.822139 
L 844.313668 240.822139 
z
" clip-path="url(#p15b971099d)" style="fill: #c44e52; stroke: #ffffff; stroke-linejoin: miter"/>
   </g>
   <g id="patch_178">
    <path d="M 848.235954 241.878281 
L 852.158239 241.878281 
L 852.158239 241.174186 
L 848.235954 241.174186 
z
" clip-path="url(#p15b971099d)" style="fill: #c44e52; stroke: #ffffff; stroke-linejoin: miter"/>
   </g>
   <g id="patch_179">
    <path d="M 852.158239 241.878281 
L 856.080525 241.878281 
L 856.080525 241.467559 
L 852.158239 241.467559 
z
" clip-path="url(#p15b971099d)" style="fill: #c44e52; stroke: #ffffff; stroke-linejoin: miter"/>
   </g>
   <g id="patch_180">
    <path d="M 856.080525 241.878281 
L 860.002811 241.878281 
L 860.002811 240.998163 
L 856.080525 240.998163 
z
" clip-path="url(#p15b971099d)" style="fill: #c44e52; stroke: #ffffff; stroke-linejoin: miter"/>
   </g>
   <g id="patch_181">
    <path d="M 860.002811 241.878281 
L 863.925097 241.878281 
L 863.925097 241.291536 
L 860.002811 241.291536 
z
" clip-path="url(#p15b971099d)" style="fill: #c44e52; stroke: #ffffff; stroke-linejoin: miter"/>
   </g>
   <g id="patch_182">
    <path d="M 863.925097 241.878281 
L 867.847382 241.878281 
L 867.847382 241.643583 
L 863.925097 241.643583 
z
" clip-path="url(#p15b971099d)" style="fill: #c44e52; stroke: #ffffff; stroke-linejoin: miter"/>
   </g>
   <g id="patch_183">
    <path d="M 867.847382 241.878281 
L 871.769668 241.878281 
L 871.769668 241.35021 
L 867.847382 241.35021 
z
" clip-path="url(#p15b971099d)" style="fill: #c44e52; stroke: #ffffff; stroke-linejoin: miter"/>
   </g>
   <g id="patch_184">
    <path d="M 871.769668 241.878281 
L 875.691954 241.878281 
L 875.691954 241.760932 
L 871.769668 241.760932 
z
" clip-path="url(#p15b971099d)" style="fill: #c44e52; stroke: #ffffff; stroke-linejoin: miter"/>
   </g>
   <g id="patch_185">
    <path d="M 875.691954 241.878281 
L 879.614239 241.878281 
L 879.614239 241.760932 
L 875.691954 241.760932 
z
" clip-path="url(#p15b971099d)" style="fill: #c44e52; stroke: #ffffff; stroke-linejoin: miter"/>
   </g>
   <g id="patch_186">
    <path d="M 879.614239 241.878281 
L 883.536525 241.878281 
L 883.536525 241.643583 
L 879.614239 241.643583 
z
" clip-path="url(#p15b971099d)" style="fill: #c44e52; stroke: #ffffff; stroke-linejoin: miter"/>
   </g>
   <g id="patch_187">
    <path d="M 883.536525 241.878281 
L 887.458811 241.878281 
L 887.458811 240.998163 
L 883.536525 240.998163 
z
" clip-path="url(#p15b971099d)" style="fill: #c44e52; stroke: #ffffff; stroke-linejoin: miter"/>
   </g>
   <g id="patch_188">
    <path d="M 887.458811 241.878281 
L 891.381096 241.878281 
L 891.381096 241.878281 
L 887.458811 241.878281 
z
" clip-path="url(#p15b971099d)" style="fill: #c44e52; stroke: #ffffff; stroke-linejoin: miter"/>
   </g>
   <g id="patch_189">
    <path d="M 891.381096 241.878281 
L 895.303382 241.878281 
L 895.303382 241.819607 
L 891.381096 241.819607 
z
" clip-path="url(#p15b971099d)" style="fill: #c44e52; stroke: #ffffff; stroke-linejoin: miter"/>
   </g>
   <g id="patch_190">
    <path d="M 895.303382 241.878281 
L 899.225668 241.878281 
L 899.225668 241.878281 
L 895.303382 241.878281 
z
" clip-path="url(#p15b971099d)" style="fill: #c44e52; stroke: #ffffff; stroke-linejoin: miter"/>
   </g>
   <g id="patch_191">
    <path d="M 899.225668 241.878281 
L 903.147954 241.878281 
L 903.147954 241.408885 
L 899.225668 241.408885 
z
" clip-path="url(#p15b971099d)" style="fill: #c44e52; stroke: #ffffff; stroke-linejoin: miter"/>
   </g>
   <g id="patch_192">
    <path d="M 903.147954 241.878281 
L 907.070239 241.878281 
L 907.070239 241.760932 
L 903.147954 241.760932 
z
" clip-path="url(#p15b971099d)" style="fill: #c44e52; stroke: #ffffff; stroke-linejoin: miter"/>
   </g>
   <g id="line2d_39">
    <path d="M 720.007383 241.878281 
L 720.007383 21.998281 
" clip-path="url(#p15b971099d)" style="fill: none; stroke-dasharray: 3.7,1.6; stroke-dashoffset: 0; stroke: #000000"/>
   </g>
   <g id="patch_193">
    <path d="M 659.96624 241.878281 
L 659.96624 21.998281 
" style="fill: none; stroke: #cccccc; stroke-width: 0.8; stroke-linejoin: miter; stroke-linecap: square"/>
   </g>
   <g id="patch_194">
    <path d="M 918.837096 241.878281 
L 918.837096 21.998281 
" style="fill: none; stroke: #cccccc; stroke-width: 0.8; stroke-linejoin: miter; stroke-linecap: square"/>
   </g>
   <g id="patch_195">
    <path d="M 659.96624 241.878281 
L 918.837096 241.878281 
" style="fill: none; stroke: #cccccc; stroke-width: 0.8; stroke-linejoin: miter; stroke-linecap: square"/>
   </g>
   <g id="patch_196">
    <path d="M 659.96624 21.998281 
L 918.837096 21.998281 
" style="fill: none; stroke: #cccccc; stroke-width: 0.8; stroke-linejoin: miter; stroke-linecap: square"/>
   </g>
   <g id="text_45">
    <!-- Aspect ratio (width / height) -->
    <g style="fill: #262626" transform="translate(712.210028 15.998281) scale(0.11 -0.11)">
     <defs>
      <path id="DejaVuSans-2f" d="M 1625 4666 
L 2156 4666 
L 531 -594 
L 0 -594 
L 1625 4666 
z
" transform="scale(0.015625)"/>
     </defs>
     <use xlink:href="#DejaVuSans-41"/>
     <use xlink:href="#DejaVuSans-73" transform="translate(68.408203 0)"/>
     <use xlink:href="#DejaVuSans-70" transform="translate(120.507812 0)"/>
     <use xlink:href="#DejaVuSans-65" transform="translate(183.984375 0)"/>
     <use xlink:href="#DejaVuSans-63" transform="translate(245.507812 0)"/>
     <use xlink:href="#DejaVuSans-74" transform="translate(300.488281 0)"/>
     <use xlink:href="#DejaVuSans-20" transform="translate(339.697266 0)"/>
     <use xlink:href="#DejaVuSans-72" transform="translate(371.484375 0)"/>
     <use xlink:href="#DejaVuSans-61" transform="translate(412.597656 0)"/>
     <use xlink:href="#DejaVuSans-74" transform="translate(473.876953 0)"/>
     <use xlink:href="#DejaVuSans-69" transform="translate(513.085938 0)"/>
     <use xlink:href="#DejaVuSans-6f" transform="translate(540.869141 0)"/>
     <use xlink:href="#DejaVuSans-20" transform="translate(602.050781 0)"/>
     <use xlink:href="#DejaVuSans-28" transform="translate(633.837891 0)"/>
     <use xlink:href="#DejaVuSans-77" transform="translate(672.851562 0)"/>
     <use xlink:href="#DejaVuSans-69" transform="translate(754.638672 0)"/>
     <use xlink:href="#DejaVuSans-64" transform="translate(782.421875 0)"/>
     <use xlink:href="#DejaVuSans-74" transform="translate(845.898438 0)"/>
     <use xlink:href="#DejaVuSans-68" transform="translate(885.107422 0)"/>
     <use xlink:href="#DejaVuSans-20" transform="translate(948.486328 0)"/>
     <use xlink:href="#DejaVuSans-2f" transform="translate(980.273438 0)"/>
     <use xlink:href="#DejaVuSans-20" transform="translate(1013.964844 0)"/>
     <use xlink:href="#DejaVuSans-68" transform="translate(1045.751953 0)"/>
     <use xlink:href="#DejaVuSans-65" transform="translate(1109.130859 0)"/>
     <use xlink:href="#DejaVuSans-69" transform="translate(1170.654297 0)"/>
     <use xlink:href="#DejaVuSans-67" transform="translate(1198.4375 0)"/>
     <use xlink:href="#DejaVuSans-68" transform="translate(1261.914062 0)"/>
     <use xlink:href="#DejaVuSans-74" transform="translate(1325.292969 0)"/>
     <use xlink:href="#DejaVuSans-29" transform="translate(1364.501953 0)"/>
    </g>
   </g>
   <g id="legend_1">
    <g id="patch_197">
     <path d="M 782.608034 42.408594 
L 912.537096 42.408594 
Q 914.337096 42.408594 914.337096 40.608594 
L 914.337096 28.298281 
Q 914.337096 26.498281 912.537096 26.498281 
L 782.608034 26.498281 
Q 780.808034 26.498281 780.808034 28.298281 
L 780.808034 40.608594 
Q 780.808034 42.408594 782.608034 42.408594 
z
" style="fill: #ffffff; opacity: 0.8; stroke: #cccccc; stroke-linejoin: miter"/>
    </g>
    <g id="line2d_40">
     <path d="M 784.408034 33.786875 
L 793.408034 33.786875 
L 802.408034 33.786875 
" style="fill: none; stroke-dasharray: 3.7,1.6; stroke-dashoffset: 0; stroke: #000000"/>
    </g>
    <g id="text_46">
     <!-- aspect = 1 (cuadrada) -->
     <g style="fill: #262626" transform="translate(809.608034 36.936875) scale(0.09 -0.09)">
      <defs>
       <path id="DejaVuSans-3d" d="M 678 2906 
L 4684 2906 
L 4684 2381 
L 678 2381 
L 678 2906 
z
M 678 1631 
L 4684 1631 
L 4684 1100 
L 678 1100 
L 678 1631 
z
" transform="scale(0.015625)"/>
      </defs>
      <use xlink:href="#DejaVuSans-61"/>
      <use xlink:href="#DejaVuSans-73" transform="translate(61.279297 0)"/>
      <use xlink:href="#DejaVuSans-70" transform="translate(113.378906 0)"/>
      <use xlink:href="#DejaVuSans-65" transform="translate(176.855469 0)"/>
      <use xlink:href="#DejaVuSans-63" transform="translate(238.378906 0)"/>
      <use xlink:href="#DejaVuSans-74" transform="translate(293.359375 0)"/>
      <use xlink:href="#DejaVuSans-20" transform="translate(332.568359 0)"/>
      <use xlink:href="#DejaVuSans-3d" transform="translate(364.355469 0)"/>
      <use xlink:href="#DejaVuSans-20" transform="translate(448.144531 0)"/>
      <use xlink:href="#DejaVuSans-31" transform="translate(479.931641 0)"/>
      <use xlink:href="#DejaVuSans-20" transform="translate(543.554688 0)"/>
      <use xlink:href="#DejaVuSans-28" transform="translate(575.341797 0)"/>
      <use xlink:href="#DejaVuSans-63" transform="translate(614.355469 0)"/>
      <use xlink:href="#DejaVuSans-75" transform="translate(669.335938 0)"/>
      <use xlink:href="#DejaVuSans-61" transform="translate(732.714844 0)"/>
      <use xlink:href="#DejaVuSans-64" transform="translate(793.994141 0)"/>
      <use xlink:href="#DejaVuSans-72" transform="translate(857.470703 0)"/>
      <use xlink:href="#DejaVuSans-61" transform="translate(898.583984 0)"/>
      <use xlink:href="#DejaVuSans-64" transform="translate(959.863281 0)"/>
      <use xlink:href="#DejaVuSans-61" transform="translate(1023.339844 0)"/>
      <use xlink:href="#DejaVuSans-29" transform="translate(1084.619141 0)"/>
     </g>
    </g>
   </g>
  </g>
 </g>
 <defs>
  <clipPath id="p36774ea526">
   <rect x="53.328125" y="21.998281" width="258.870856" height="219.88"/>
  </clipPath>
  <clipPath id="p194ac82892">
   <rect x="356.647182" y="21.998281" width="258.870856" height="219.88"/>
  </clipPath>
  <clipPath id="p15b971099d">
   <rect x="659.96624" y="21.998281" width="258.870856" height="219.88"/>
  </clipPath>
 </defs>
</svg>
