<?xml version="1.0" encoding="utf-8" standalone="no"?>
<!DOCTYPE svg PUBLIC "-//W3C//DTD SVG 1.1//EN"
  "http://www.w3.org/Graphics/SVG/1.1/DTD/svg11.dtd">
<svg xmlns:xlink="http://www.w3.org/1999/xlink" width="927.815312pt" height="248.690625pt" viewBox="0 0 927.815312 248.690625" xmlns="http://www.w3.org/2000/svg" version="1.1">
 <metadata>
  <rdf:RDF xmlns:dc="http://purl.org/dc/elements/1.1/" xmlns:cc="http://creativecommons.org/ns#" xmlns:rdf="http://www.w3.org/1999/02/22-rdf-syntax-ns#">
   <cc:Work>
    <dc:type rdf:resource="http://purl.org/dc/dcmitype/StillImage"/>
    <dc:date>2026-06-06T01:29:32.301295</dc:date>
    <dc:format>image/svg+xml</dc:format>
    <dc:creator>
     <cc:Agent>
      <dc:title>Matplotlib v3.10.9, https://matplotlib.org/</dc:title>
     </cc:Agent>
    </dc:creator>
   </cc:Work>
  </rdf:RDF>
 </metadata>
 <defs>
  <style type="text/css">*{stroke-linejoin: round; stroke-linecap: butt}</style>
 </defs>
 <g id="figure_1">
  <g id="patch_1">
   <path d="M 0 248.690625 
L 927.815312 248.690625 
L 927.815312 0 
L 0 0 
z
" style="fill: #ffffff"/>
  </g>
  <g id="axes_1">
   <g id="patch_2">
    <path d="M 41.245313 212.2 
L 309.481979 212.2 
L 309.481979 48.53625 
L 41.245313 48.53625 
z
" style="fill: #ffffff"/>
   </g>
   <g id="matplotlib.axis_1">
    <g id="xtick_1">
     <g id="line2d_1">
      <path d="M 53.437888 212.2 
L 53.437888 48.53625 
" clip-path="url(#p744375cb8d)" style="fill: none; stroke: #cccccc; stroke-width: 0.8; stroke-linecap: round"/>
     </g>
     <g id="text_1">
      <!-- 0 -->
      <g style="fill: #262626" transform="translate(50.65742 226.357813) scale(0.1 -0.1)">
       <defs>
        <path id="ArialMT-30" d="M 266 2259 
Q 266 3072 433 3567 
Q 600 4063 929 4331 
Q 1259 4600 1759 4600 
Q 2128 4600 2406 4451 
Q 2684 4303 2865 4023 
Q 3047 3744 3150 3342 
Q 3253 2941 3253 2259 
Q 3253 1453 3087 958 
Q 2922 463 2592 192 
Q 2263 -78 1759 -78 
Q 1097 -78 719 397 
Q 266 969 266 2259 
z
M 844 2259 
Q 844 1131 1108 757 
Q 1372 384 1759 384 
Q 2147 384 2411 759 
Q 2675 1134 2675 2259 
Q 2675 3391 2411 3762 
Q 2147 4134 1753 4134 
Q 1366 4134 1134 3806 
Q 844 3388 844 2259 
z
" transform="scale(0.015625)"/>
       </defs>
       <use xlink:href="#ArialMT-30"/>
      </g>
     </g>
    </g>
    <g id="xtick_2">
     <g id="line2d_2">
      <path d="M 87.306154 212.2 
L 87.306154 48.53625 
" clip-path="url(#p744375cb8d)" style="fill: none; stroke: #cccccc; stroke-width: 0.8; stroke-linecap: round"/>
     </g>
     <g id="text_2">
      <!-- 25 -->
      <g style="fill: #262626" transform="translate(81.745217 226.357813) scale(0.1 -0.1)">
       <defs>
        <path id="ArialMT-32" d="M 3222 541 
L 3222 0 
L 194 0 
Q 188 203 259 391 
Q 375 700 629 1000 
Q 884 1300 1366 1694 
Q 2113 2306 2375 2664 
Q 2638 3022 2638 3341 
Q 2638 3675 2398 3904 
Q 2159 4134 1775 4134 
Q 1369 4134 1125 3890 
Q 881 3647 878 3216 
L 300 3275 
Q 359 3922 746 4261 
Q 1134 4600 1788 4600 
Q 2447 4600 2831 4234 
Q 3216 3869 3216 3328 
Q 3216 3053 3103 2787 
Q 2991 2522 2730 2228 
Q 2469 1934 1863 1422 
Q 1356 997 1212 845 
Q 1069 694 975 541 
L 3222 541 
z
" transform="scale(0.015625)"/>
        <path id="ArialMT-35" d="M 266 1200 
L 856 1250 
Q 922 819 1161 601 
Q 1400 384 1738 384 
Q 2144 384 2425 690 
Q 2706 997 2706 1503 
Q 2706 1984 2436 2262 
Q 2166 2541 1728 2541 
Q 1456 2541 1237 2417 
Q 1019 2294 894 2097 
L 366 2166 
L 809 4519 
L 3088 4519 
L 3088 3981 
L 1259 3981 
L 1013 2750 
Q 1425 3038 1878 3038 
Q 2478 3038 2890 2622 
Q 3303 2206 3303 1553 
Q 3303 931 2941 478 
Q 2500 -78 1738 -78 
Q 1113 -78 717 272 
Q 322 622 266 1200 
z
" transform="scale(0.015625)"/>
       </defs>
       <use xlink:href="#ArialMT-32"/>
       <use xlink:href="#ArialMT-35" transform="translate(55.615234 0)"/>
      </g>
     </g>
    </g>
    <g id="xtick_3">
     <g id="line2d_3">
      <path d="M 121.17442 212.2 
L 121.17442 48.53625 
" clip-path="url(#p744375cb8d)" style="fill: none; stroke: #cccccc; stroke-width: 0.8; stroke-linecap: round"/>
     </g>
     <g id="text_3">
      <!-- 50 -->
      <g style="fill: #262626" transform="translate(115.613483 226.357813) scale(0.1 -0.1)">
       <use xlink:href="#ArialMT-35"/>
       <use xlink:href="#ArialMT-30" transform="translate(55.615234 0)"/>
      </g>
     </g>
    </g>
    <g id="xtick_4">
     <g id="line2d_4">
      <path d="M 155.042686 212.2 
L 155.042686 48.53625 
" clip-path="url(#p744375cb8d)" style="fill: none; stroke: #cccccc; stroke-width: 0.8; stroke-linecap: round"/>
     </g>
     <g id="text_4">
      <!-- 75 -->
      <g style="fill: #262626" transform="translate(149.481749 226.357813) scale(0.1 -0.1)">
       <defs>
        <path id="ArialMT-37" d="M 303 3981 
L 303 4522 
L 3269 4522 
L 3269 4084 
Q 2831 3619 2401 2847 
Q 1972 2075 1738 1259 
Q 1569 684 1522 0 
L 944 0 
Q 953 541 1156 1306 
Q 1359 2072 1739 2783 
Q 2119 3494 2547 3981 
L 303 3981 
z
" transform="scale(0.015625)"/>
       </defs>
       <use xlink:href="#ArialMT-37"/>
       <use xlink:href="#ArialMT-35" transform="translate(55.615234 0)"/>
      </g>
     </g>
    </g>
    <g id="xtick_5">
     <g id="line2d_5">
      <path d="M 188.910952 212.2 
L 188.910952 48.53625 
" clip-path="url(#p744375cb8d)" style="fill: none; stroke: #cccccc; stroke-width: 0.8; stroke-linecap: round"/>
     </g>
     <g id="text_5">
      <!-- 100 -->
      <g style="fill: #262626" transform="translate(180.569546 226.357813) scale(0.1 -0.1)">
       <defs>
        <path id="ArialMT-31" d="M 2384 0 
L 1822 0 
L 1822 3584 
Q 1619 3391 1289 3197 
Q 959 3003 697 2906 
L 697 3450 
Q 1169 3672 1522 3987 
Q 1875 4303 2022 4600 
L 2384 4600 
L 2384 0 
z
" transform="scale(0.015625)"/>
       </defs>
       <use xlink:href="#ArialMT-31"/>
       <use xlink:href="#ArialMT-30" transform="translate(55.615234 0)"/>
       <use xlink:href="#ArialMT-30" transform="translate(111.230469 0)"/>
      </g>
     </g>
    </g>
    <g id="xtick_6">
     <g id="line2d_6">
      <path d="M 222.779218 212.2 
L 222.779218 48.53625 
" clip-path="url(#p744375cb8d)" style="fill: none; stroke: #cccccc; stroke-width: 0.8; stroke-linecap: round"/>
     </g>
     <g id="text_6">
      <!-- 125 -->
      <g style="fill: #262626" transform="translate(214.437812 226.357813) scale(0.1 -0.1)">
       <use xlink:href="#ArialMT-31"/>
       <use xlink:href="#ArialMT-32" transform="translate(55.615234 0)"/>
       <use xlink:href="#ArialMT-35" transform="translate(111.230469 0)"/>
      </g>
     </g>
    </g>
    <g id="xtick_7">
     <g id="line2d_7">
      <path d="M 256.647484 212.2 
L 256.647484 48.53625 
" clip-path="url(#p744375cb8d)" style="fill: none; stroke: #cccccc; stroke-width: 0.8; stroke-linecap: round"/>
     </g>
     <g id="text_7">
      <!-- 150 -->
      <g style="fill: #262626" transform="translate(248.306078 226.357813) scale(0.1 -0.1)">
       <use xlink:href="#ArialMT-31"/>
       <use xlink:href="#ArialMT-35" transform="translate(55.615234 0)"/>
       <use xlink:href="#ArialMT-30" transform="translate(111.230469 0)"/>
      </g>
     </g>
    </g>
    <g id="xtick_8">
     <g id="line2d_8">
      <path d="M 290.51575 212.2 
L 290.51575 48.53625 
" clip-path="url(#p744375cb8d)" style="fill: none; stroke: #cccccc; stroke-width: 0.8; stroke-linecap: round"/>
     </g>
     <g id="text_8">
      <!-- 175 -->
      <g style="fill: #262626" transform="translate(282.174344 226.357813) scale(0.1 -0.1)">
       <use xlink:href="#ArialMT-31"/>
       <use xlink:href="#ArialMT-37" transform="translate(55.615234 0)"/>
       <use xlink:href="#ArialMT-35" transform="translate(111.230469 0)"/>
      </g>
     </g>
    </g>
    <g id="text_9">
     <!-- H -->
     <g style="fill: #262626" transform="translate(171.752708 239.503125) scale(0.1 -0.1)">
      <defs>
       <path id="ArialMT-48" d="M 513 0 
L 513 4581 
L 1119 4581 
L 1119 2700 
L 3500 2700 
L 3500 4581 
L 4106 4581 
L 4106 0 
L 3500 0 
L 3500 2159 
L 1119 2159 
L 1119 0 
L 513 0 
z
" transform="scale(0.015625)"/>
      </defs>
      <use xlink:href="#ArialMT-48"/>
     </g>
    </g>
   </g>
   <g id="matplotlib.axis_2">
    <g id="ytick_1">
     <g id="line2d_9">
      <path d="M 41.245313 204.776323 
L 309.481979 204.776323 
" clip-path="url(#p744375cb8d)" style="fill: none; stroke: #cccccc; stroke-width: 0.8; stroke-linecap: round"/>
     </g>
     <g id="text_10">
      <!-- 0.0 -->
      <g style="fill: #262626" transform="translate(20.345313 208.355229) scale(0.1 -0.1)">
       <defs>
        <path id="ArialMT-2e" d="M 581 0 
L 581 641 
L 1222 641 
L 1222 0 
L 581 0 
z
" transform="scale(0.015625)"/>
       </defs>
       <use xlink:href="#ArialMT-30"/>
       <use xlink:href="#ArialMT-2e" transform="translate(55.615234 0)"/>
       <use xlink:href="#ArialMT-30" transform="translate(83.398438 0)"/>
      </g>
     </g>
    </g>
    <g id="ytick_2">
     <g id="line2d_10">
      <path d="M 41.245313 169.021096 
L 309.481979 169.021096 
" clip-path="url(#p744375cb8d)" style="fill: none; stroke: #cccccc; stroke-width: 0.8; stroke-linecap: round"/>
     </g>
     <g id="text_11">
      <!-- 0.1 -->
      <g style="fill: #262626" transform="translate(20.345313 172.600002) scale(0.1 -0.1)">
       <use xlink:href="#ArialMT-30"/>
       <use xlink:href="#ArialMT-2e" transform="translate(55.615234 0)"/>
       <use xlink:href="#ArialMT-31" transform="translate(83.398438 0)"/>
      </g>
     </g>
    </g>
    <g id="ytick_3">
     <g id="line2d_11">
      <path d="M 41.245313 133.265868 
L 309.481979 133.265868 
" clip-path="url(#p744375cb8d)" style="fill: none; stroke: #cccccc; stroke-width: 0.8; stroke-linecap: round"/>
     </g>
     <g id="text_12">
      <!-- 0.2 -->
      <g style="fill: #262626" transform="translate(20.345313 136.844775) scale(0.1 -0.1)">
       <use xlink:href="#ArialMT-30"/>
       <use xlink:href="#ArialMT-2e" transform="translate(55.615234 0)"/>
       <use xlink:href="#ArialMT-32" transform="translate(83.398438 0)"/>
      </g>
     </g>
    </g>
    <g id="ytick_4">
     <g id="line2d_12">
      <path d="M 41.245313 97.510641 
L 309.481979 97.510641 
" clip-path="url(#p744375cb8d)" style="fill: none; stroke: #cccccc; stroke-width: 0.8; stroke-linecap: round"/>
     </g>
     <g id="text_13">
      <!-- 0.3 -->
      <g style="fill: #262626" transform="translate(20.345313 101.089548) scale(0.1 -0.1)">
       <defs>
        <path id="ArialMT-33" d="M 269 1209 
L 831 1284 
Q 928 806 1161 595 
Q 1394 384 1728 384 
Q 2125 384 2398 659 
Q 2672 934 2672 1341 
Q 2672 1728 2419 1979 
Q 2166 2231 1775 2231 
Q 1616 2231 1378 2169 
L 1441 2663 
Q 1497 2656 1531 2656 
Q 1891 2656 2178 2843 
Q 2466 3031 2466 3422 
Q 2466 3731 2256 3934 
Q 2047 4138 1716 4138 
Q 1388 4138 1169 3931 
Q 950 3725 888 3313 
L 325 3413 
Q 428 3978 793 4289 
Q 1159 4600 1703 4600 
Q 2078 4600 2393 4439 
Q 2709 4278 2876 4000 
Q 3044 3722 3044 3409 
Q 3044 3113 2884 2869 
Q 2725 2625 2413 2481 
Q 2819 2388 3044 2092 
Q 3269 1797 3269 1353 
Q 3269 753 2831 336 
Q 2394 -81 1725 -81 
Q 1122 -81 723 278 
Q 325 638 269 1209 
z
" transform="scale(0.015625)"/>
       </defs>
       <use xlink:href="#ArialMT-30"/>
       <use xlink:href="#ArialMT-2e" transform="translate(55.615234 0)"/>
       <use xlink:href="#ArialMT-33" transform="translate(83.398438 0)"/>
      </g>
     </g>
    </g>
    <g id="ytick_5">
     <g id="line2d_13">
      <path d="M 41.245313 61.755414 
L 309.481979 61.755414 
" clip-path="url(#p744375cb8d)" style="fill: none; stroke: #cccccc; stroke-width: 0.8; stroke-linecap: round"/>
     </g>
     <g id="text_14">
      <!-- 0.4 -->
      <g style="fill: #262626" transform="translate(20.345313 65.33432) scale(0.1 -0.1)">
       <defs>
        <path id="ArialMT-34" d="M 2069 0 
L 2069 1097 
L 81 1097 
L 81 1613 
L 2172 4581 
L 2631 4581 
L 2631 1613 
L 3250 1613 
L 3250 1097 
L 2631 1097 
L 2631 0 
L 2069 0 
z
M 2069 1613 
L 2069 3678 
L 634 1613 
L 2069 1613 
z
" transform="scale(0.015625)"/>
       </defs>
       <use xlink:href="#ArialMT-30"/>
       <use xlink:href="#ArialMT-2e" transform="translate(55.615234 0)"/>
       <use xlink:href="#ArialMT-34" transform="translate(83.398438 0)"/>
      </g>
     </g>
    </g>
    <g id="text_15">
     <!-- densidad -->
     <g style="fill: #262626" transform="translate(14.357813 150.661875) rotate(-90) scale(0.1 -0.1)">
      <defs>
       <path id="ArialMT-64" d="M 2575 0 
L 2575 419 
Q 2259 -75 1647 -75 
Q 1250 -75 917 144 
Q 584 363 401 755 
Q 219 1147 219 1656 
Q 219 2153 384 2558 
Q 550 2963 881 3178 
Q 1213 3394 1622 3394 
Q 1922 3394 2156 3267 
Q 2391 3141 2538 2938 
L 2538 4581 
L 3097 4581 
L 3097 0 
L 2575 0 
z
M 797 1656 
Q 797 1019 1065 703 
Q 1334 388 1700 388 
Q 2069 388 2326 689 
Q 2584 991 2584 1609 
Q 2584 2291 2321 2609 
Q 2059 2928 1675 2928 
Q 1300 2928 1048 2622 
Q 797 2316 797 1656 
z
" transform="scale(0.015625)"/>
       <path id="ArialMT-65" d="M 2694 1069 
L 3275 997 
Q 3138 488 2766 206 
Q 2394 -75 1816 -75 
Q 1088 -75 661 373 
Q 234 822 234 1631 
Q 234 2469 665 2931 
Q 1097 3394 1784 3394 
Q 2450 3394 2872 2941 
Q 3294 2488 3294 1666 
Q 3294 1616 3291 1516 
L 816 1516 
Q 847 969 1125 678 
Q 1403 388 1819 388 
Q 2128 388 2347 550 
Q 2566 713 2694 1069 
z
M 847 1978 
L 2700 1978 
Q 2663 2397 2488 2606 
Q 2219 2931 1791 2931 
Q 1403 2931 1139 2672 
Q 875 2413 847 1978 
z
" transform="scale(0.015625)"/>
       <path id="ArialMT-6e" d="M 422 0 
L 422 3319 
L 928 3319 
L 928 2847 
Q 1294 3394 1984 3394 
Q 2284 3394 2536 3286 
Q 2788 3178 2913 3003 
Q 3038 2828 3088 2588 
Q 3119 2431 3119 2041 
L 3119 0 
L 2556 0 
L 2556 2019 
Q 2556 2363 2490 2533 
Q 2425 2703 2258 2804 
Q 2091 2906 1866 2906 
Q 1506 2906 1245 2678 
Q 984 2450 984 1813 
L 984 0 
L 422 0 
z
" transform="scale(0.015625)"/>
       <path id="ArialMT-73" d="M 197 991 
L 753 1078 
Q 800 744 1014 566 
Q 1228 388 1613 388 
Q 2000 388 2187 545 
Q 2375 703 2375 916 
Q 2375 1106 2209 1216 
Q 2094 1291 1634 1406 
Q 1016 1563 777 1677 
Q 538 1791 414 1992 
Q 291 2194 291 2438 
Q 291 2659 392 2848 
Q 494 3038 669 3163 
Q 800 3259 1026 3326 
Q 1253 3394 1513 3394 
Q 1903 3394 2198 3281 
Q 2494 3169 2634 2976 
Q 2775 2784 2828 2463 
L 2278 2388 
Q 2241 2644 2061 2787 
Q 1881 2931 1553 2931 
Q 1166 2931 1000 2803 
Q 834 2675 834 2503 
Q 834 2394 903 2306 
Q 972 2216 1119 2156 
Q 1203 2125 1616 2013 
Q 2213 1853 2448 1751 
Q 2684 1650 2818 1456 
Q 2953 1263 2953 975 
Q 2953 694 2789 445 
Q 2625 197 2315 61 
Q 2006 -75 1616 -75 
Q 969 -75 630 194 
Q 291 463 197 991 
z
" transform="scale(0.015625)"/>
       <path id="ArialMT-69" d="M 425 3934 
L 425 4581 
L 988 4581 
L 988 3934 
L 425 3934 
z
M 425 0 
L 425 3319 
L 988 3319 
L 988 0 
L 425 0 
z
" transform="scale(0.015625)"/>
       <path id="ArialMT-61" d="M 2588 409 
Q 2275 144 1986 34 
Q 1697 -75 1366 -75 
Q 819 -75 525 192 
Q 231 459 231 875 
Q 231 1119 342 1320 
Q 453 1522 633 1644 
Q 813 1766 1038 1828 
Q 1203 1872 1538 1913 
Q 2219 1994 2541 2106 
Q 2544 2222 2544 2253 
Q 2544 2597 2384 2738 
Q 2169 2928 1744 2928 
Q 1347 2928 1158 2789 
Q 969 2650 878 2297 
L 328 2372 
Q 403 2725 575 2942 
Q 747 3159 1072 3276 
Q 1397 3394 1825 3394 
Q 2250 3394 2515 3294 
Q 2781 3194 2906 3042 
Q 3031 2891 3081 2659 
Q 3109 2516 3109 2141 
L 3109 1391 
Q 3109 606 3145 398 
Q 3181 191 3288 0 
L 2700 0 
Q 2613 175 2588 409 
z
M 2541 1666 
Q 2234 1541 1622 1453 
Q 1275 1403 1131 1340 
Q 988 1278 909 1158 
Q 831 1038 831 891 
Q 831 666 1001 516 
Q 1172 366 1500 366 
Q 1825 366 2078 508 
Q 2331 650 2450 897 
Q 2541 1088 2541 1459 
L 2541 1666 
z
" transform="scale(0.015625)"/>
      </defs>
      <use xlink:href="#ArialMT-64"/>
      <use xlink:href="#ArialMT-65" transform="translate(55.615234 0)"/>
      <use xlink:href="#ArialMT-6e" transform="translate(111.230469 0)"/>
      <use xlink:href="#ArialMT-73" transform="translate(166.845703 0)"/>
      <use xlink:href="#ArialMT-69" transform="translate(216.845703 0)"/>
      <use xlink:href="#ArialMT-64" transform="translate(239.0625 0)"/>
      <use xlink:href="#ArialMT-61" transform="translate(294.677734 0)"/>
      <use xlink:href="#ArialMT-64" transform="translate(350.292969 0)"/>
     </g>
    </g>
   </g>
   <g id="line2d_14">
    <path d="M 53.437888 173.091248 
L 60.405074 173.482971 
L 67.372261 159.758637 
L 74.339447 55.975511 
L 81.306633 164.080498 
L 88.273819 194.934234 
L 95.241005 199.452791 
L 102.208191 203.1397 
L 109.175377 203.987547 
L 116.142564 204.757724 
L 123.10975 204.550347 
L 130.076936 204.514668 
L 137.044122 204.72327 
L 144.011308 204.557704 
L 150.978494 204.218556 
L 157.94568 204.18164 
L 164.912867 204.0941 
L 171.880053 204.595526 
L 178.847239 204.47464 
L 185.814425 202.055031 
L 192.781611 202.750148 
L 199.748797 202.825945 
L 206.715983 192.48561 
L 213.68317 202.468064 
L 220.650356 202.889578 
L 227.617542 204.613352 
L 234.584728 204.699076 
L 241.551914 204.760739 
L 248.5191 204.607118 
L 255.486287 204.748374 
L 262.453473 204.745389 
L 269.420659 204.707374 
L 276.387845 204.704161 
L 283.355031 204.438806 
L 290.322217 203.954158 
L 297.289403 190.371111 
" clip-path="url(#p744375cb8d)" style="fill: none; stroke: #2ca02c; stroke-width: 1.5; stroke-linecap: round"/>
   </g>
   <g id="line2d_15">
    <path d="M 53.437888 203.691371 
L 60.405074 197.261611 
L 67.372261 174.788446 
L 74.339447 117.082829 
L 81.306633 143.646611 
L 88.273819 159.10632 
L 95.241005 152.857189 
L 102.208191 172.46065 
L 109.175377 190.708373 
L 116.142564 204.392506 
L 123.10975 201.716394 
L 130.076936 202.461525 
L 137.044122 204.594786 
L 144.011308 203.659008 
L 150.978494 198.483696 
L 157.94568 204.40116 
L 164.912867 201.96545 
L 171.880053 203.680666 
L 178.847239 202.239866 
L 185.814425 203.184033 
L 192.781611 202.418958 
L 199.748797 203.853606 
L 206.715983 204.50783 
L 213.68317 204.719857 
L 220.650356 204.639204 
L 227.617542 204.677676 
L 234.584728 204.726346 
L 241.551914 204.742545 
L 248.5191 204.744925 
L 255.486287 204.751491 
L 262.453473 204.743638 
L 269.420659 204.747125 
L 276.387845 204.754385 
L 283.355031 204.723645 
L 290.322217 204.67464 
L 297.289403 204.586983 
" clip-path="url(#p744375cb8d)" style="fill: none; stroke: #ff7f0e; stroke-width: 1.5; stroke-linecap: round"/>
   </g>
   <g id="line2d_16">
    <path d="M 53.437888 188.229683 
L 60.405074 155.407259 
L 67.372261 147.298861 
L 74.339447 97.493998 
L 81.306633 149.092027 
L 88.273819 183.658276 
L 95.241005 182.650372 
L 102.208191 197.039695 
L 109.175377 203.108328 
L 116.142564 204.757562 
L 123.10975 203.582758 
L 130.076936 204.723774 
L 137.044122 204.749864 
L 144.011308 204.678212 
L 150.978494 204.479999 
L 157.94568 203.696167 
L 164.912867 204.050698 
L 171.880053 204.278304 
L 178.847239 202.515937 
L 185.814425 202.76593 
L 192.781611 202.488886 
L 199.748797 201.437009 
L 206.715983 203.363276 
L 213.68317 204.629709 
L 220.650356 204.322572 
L 227.617542 204.595759 
L 234.584728 204.703483 
L 241.551914 204.73262 
L 248.5191 204.668152 
L 255.486287 204.730236 
L 262.453473 204.678887 
L 269.420659 204.683324 
L 276.387845 204.666527 
L 283.355031 204.432355 
L 290.322217 204.389286 
L 297.289403 203.615562 
" clip-path="url(#p744375cb8d)" style="fill: none; stroke: #d62728; stroke-width: 1.5; stroke-linecap: round"/>
   </g>
   <g id="patch_3">
    <path d="M 41.245313 212.2 
L 41.245313 48.53625 
" style="fill: none; stroke: #cccccc; stroke-width: 0.8; stroke-linejoin: miter; stroke-linecap: square"/>
   </g>
   <g id="patch_4">
    <path d="M 309.481979 212.2 
L 309.481979 48.53625 
" style="fill: none; stroke: #cccccc; stroke-width: 0.8; stroke-linejoin: miter; stroke-linecap: square"/>
   </g>
   <g id="patch_5">
    <path d="M 41.245313 212.2 
L 309.481979 212.2 
" style="fill: none; stroke: #cccccc; stroke-width: 0.8; stroke-linejoin: miter; stroke-linecap: square"/>
   </g>
   <g id="patch_6">
    <path d="M 41.245313 48.53625 
L 309.481979 48.53625 
" style="fill: none; stroke: #cccccc; stroke-width: 0.8; stroke-linejoin: miter; stroke-linecap: square"/>
   </g>
   <g id="text_16">
    <!-- Hue (0–180) -->
    <g style="fill: #262626" transform="translate(144.79138 42.53625) scale(0.11 -0.11)">
     <defs>
      <path id="ArialMT-75" d="M 2597 0 
L 2597 488 
Q 2209 -75 1544 -75 
Q 1250 -75 995 37 
Q 741 150 617 320 
Q 494 491 444 738 
Q 409 903 409 1263 
L 409 3319 
L 972 3319 
L 972 1478 
Q 972 1038 1006 884 
Q 1059 663 1231 536 
Q 1403 409 1656 409 
Q 1909 409 2131 539 
Q 2353 669 2445 892 
Q 2538 1116 2538 1541 
L 2538 3319 
L 3100 3319 
L 3100 0 
L 2597 0 
z
" transform="scale(0.015625)"/>
      <path id="ArialMT-20" transform="scale(0.015625)"/>
      <path id="ArialMT-28" d="M 1497 -1347 
Q 1031 -759 709 28 
Q 388 816 388 1659 
Q 388 2403 628 3084 
Q 909 3875 1497 4659 
L 1900 4659 
Q 1522 4009 1400 3731 
Q 1209 3300 1100 2831 
Q 966 2247 966 1656 
Q 966 153 1900 -1347 
L 1497 -1347 
z
" transform="scale(0.015625)"/>
      <path id="ArialMT-2013" d="M -13 1431 
L -13 1884 
L 3547 1884 
L 3547 1431 
L -13 1431 
z
" transform="scale(0.015625)"/>
      <path id="ArialMT-38" d="M 1131 2484 
Q 781 2613 612 2850 
Q 444 3088 444 3419 
Q 444 3919 803 4259 
Q 1163 4600 1759 4600 
Q 2359 4600 2725 4251 
Q 3091 3903 3091 3403 
Q 3091 3084 2923 2848 
Q 2756 2613 2416 2484 
Q 2838 2347 3058 2040 
Q 3278 1734 3278 1309 
Q 3278 722 2862 322 
Q 2447 -78 1769 -78 
Q 1091 -78 675 323 
Q 259 725 259 1325 
Q 259 1772 486 2073 
Q 713 2375 1131 2484 
z
M 1019 3438 
Q 1019 3113 1228 2906 
Q 1438 2700 1772 2700 
Q 2097 2700 2305 2904 
Q 2513 3109 2513 3406 
Q 2513 3716 2298 3927 
Q 2084 4138 1766 4138 
Q 1444 4138 1231 3931 
Q 1019 3725 1019 3438 
z
M 838 1322 
Q 838 1081 952 856 
Q 1066 631 1291 507 
Q 1516 384 1775 384 
Q 2178 384 2440 643 
Q 2703 903 2703 1303 
Q 2703 1709 2433 1975 
Q 2163 2241 1756 2241 
Q 1359 2241 1098 1978 
Q 838 1716 838 1322 
z
" transform="scale(0.015625)"/>
      <path id="ArialMT-29" d="M 791 -1347 
L 388 -1347 
Q 1322 153 1322 1656 
Q 1322 2244 1188 2822 
Q 1081 3291 891 3722 
Q 769 4003 388 4659 
L 791 4659 
Q 1378 3875 1659 3084 
Q 1900 2403 1900 1659 
Q 1900 816 1576 28 
Q 1253 -759 791 -1347 
z
" transform="scale(0.015625)"/>
     </defs>
     <use xlink:href="#ArialMT-48"/>
     <use xlink:href="#ArialMT-75" transform="translate(72.216797 0)"/>
     <use xlink:href="#ArialMT-65" transform="translate(127.832031 0)"/>
     <use xlink:href="#ArialMT-20" transform="translate(183.447266 0)"/>
     <use xlink:href="#ArialMT-28" transform="translate(211.230469 0)"/>
     <use xlink:href="#ArialMT-30" transform="translate(244.53125 0)"/>
     <use xlink:href="#ArialMT-2013" transform="translate(300.146484 0)"/>
     <use xlink:href="#ArialMT-31" transform="translate(355.761719 0)"/>
     <use xlink:href="#ArialMT-38" transform="translate(411.376953 0)"/>
     <use xlink:href="#ArialMT-30" transform="translate(466.992188 0)"/>
     <use xlink:href="#ArialMT-29" transform="translate(522.607422 0)"/>
    </g>
   </g>
   <g id="legend_1">
    <g id="patch_7">
     <path d="M 214.101667 108.219375 
L 303.181979 108.219375 
Q 304.981979 108.219375 304.981979 106.419375 
L 304.981979 54.83625 
Q 304.981979 53.03625 303.181979 53.03625 
L 214.101667 53.03625 
Q 212.301667 53.03625 212.301667 54.83625 
L 212.301667 106.419375 
Q 212.301667 108.219375 214.101667 108.219375 
z
" style="fill: #ffffff; opacity: 0.8; stroke: #cccccc; stroke-linejoin: miter"/>
    </g>
    <g id="text_17">
     <!-- Apple -->
     <g style="fill: #262626" transform="translate(245.854323 63.794062) scale(0.1 -0.1)">
      <defs>
       <path id="ArialMT-41" d="M -9 0 
L 1750 4581 
L 2403 4581 
L 4278 0 
L 3588 0 
L 3053 1388 
L 1138 1388 
L 634 0 
L -9 0 
z
M 1313 1881 
L 2866 1881 
L 2388 3150 
Q 2169 3728 2063 4100 
Q 1975 3659 1816 3225 
L 1313 1881 
z
" transform="scale(0.015625)"/>
       <path id="ArialMT-70" d="M 422 -1272 
L 422 3319 
L 934 3319 
L 934 2888 
Q 1116 3141 1344 3267 
Q 1572 3394 1897 3394 
Q 2322 3394 2647 3175 
Q 2972 2956 3137 2557 
Q 3303 2159 3303 1684 
Q 3303 1175 3120 767 
Q 2938 359 2589 142 
Q 2241 -75 1856 -75 
Q 1575 -75 1351 44 
Q 1128 163 984 344 
L 984 -1272 
L 422 -1272 
z
M 931 1641 
Q 931 1000 1190 694 
Q 1450 388 1819 388 
Q 2194 388 2461 705 
Q 2728 1022 2728 1688 
Q 2728 2322 2467 2637 
Q 2206 2953 1844 2953 
Q 1484 2953 1207 2617 
Q 931 2281 931 1641 
z
" transform="scale(0.015625)"/>
       <path id="ArialMT-6c" d="M 409 0 
L 409 4581 
L 972 4581 
L 972 0 
L 409 0 
z
" transform="scale(0.015625)"/>
      </defs>
      <use xlink:href="#ArialMT-41"/>
      <use xlink:href="#ArialMT-70" transform="translate(66.699219 0)"/>
      <use xlink:href="#ArialMT-70" transform="translate(122.314453 0)"/>
      <use xlink:href="#ArialMT-6c" transform="translate(177.929688 0)"/>
      <use xlink:href="#ArialMT-65" transform="translate(200.146484 0)"/>
     </g>
    </g>
    <g id="line2d_17">
     <path d="M 215.901667 73.683281 
L 224.901667 73.683281 
L 233.901667 73.683281 
" style="fill: none; stroke: #2ca02c; stroke-width: 1.5; stroke-linecap: round"/>
    </g>
    <g id="text_18">
     <!-- Good (n=60) -->
     <g style="fill: #262626" transform="translate(241.101667 76.833281) scale(0.09 -0.09)">
      <defs>
       <path id="ArialMT-47" d="M 2638 1797 
L 2638 2334 
L 4578 2338 
L 4578 638 
Q 4131 281 3656 101 
Q 3181 -78 2681 -78 
Q 2006 -78 1454 211 
Q 903 500 622 1047 
Q 341 1594 341 2269 
Q 341 2938 620 3517 
Q 900 4097 1425 4378 
Q 1950 4659 2634 4659 
Q 3131 4659 3532 4498 
Q 3934 4338 4162 4050 
Q 4391 3763 4509 3300 
L 3963 3150 
Q 3859 3500 3706 3700 
Q 3553 3900 3268 4020 
Q 2984 4141 2638 4141 
Q 2222 4141 1919 4014 
Q 1616 3888 1430 3681 
Q 1244 3475 1141 3228 
Q 966 2803 966 2306 
Q 966 1694 1177 1281 
Q 1388 869 1791 669 
Q 2194 469 2647 469 
Q 3041 469 3416 620 
Q 3791 772 3984 944 
L 3984 1797 
L 2638 1797 
z
" transform="scale(0.015625)"/>
       <path id="ArialMT-6f" d="M 213 1659 
Q 213 2581 725 3025 
Q 1153 3394 1769 3394 
Q 2453 3394 2887 2945 
Q 3322 2497 3322 1706 
Q 3322 1066 3130 698 
Q 2938 331 2570 128 
Q 2203 -75 1769 -75 
Q 1072 -75 642 372 
Q 213 819 213 1659 
z
M 791 1659 
Q 791 1022 1069 705 
Q 1347 388 1769 388 
Q 2188 388 2466 706 
Q 2744 1025 2744 1678 
Q 2744 2294 2464 2611 
Q 2184 2928 1769 2928 
Q 1347 2928 1069 2612 
Q 791 2297 791 1659 
z
" transform="scale(0.015625)"/>
       <path id="ArialMT-3d" d="M 3381 2694 
L 356 2694 
L 356 3219 
L 3381 3219 
L 3381 2694 
z
M 3381 1303 
L 356 1303 
L 356 1828 
L 3381 1828 
L 3381 1303 
z
" transform="scale(0.015625)"/>
       <path id="ArialMT-36" d="M 3184 3459 
L 2625 3416 
Q 2550 3747 2413 3897 
Q 2184 4138 1850 4138 
Q 1581 4138 1378 3988 
Q 1113 3794 959 3422 
Q 806 3050 800 2363 
Q 1003 2672 1297 2822 
Q 1591 2972 1913 2972 
Q 2475 2972 2870 2558 
Q 3266 2144 3266 1488 
Q 3266 1056 3080 686 
Q 2894 316 2569 119 
Q 2244 -78 1831 -78 
Q 1128 -78 684 439 
Q 241 956 241 2144 
Q 241 3472 731 4075 
Q 1159 4600 1884 4600 
Q 2425 4600 2770 4297 
Q 3116 3994 3184 3459 
z
M 888 1484 
Q 888 1194 1011 928 
Q 1134 663 1356 523 
Q 1578 384 1822 384 
Q 2178 384 2434 671 
Q 2691 959 2691 1453 
Q 2691 1928 2437 2201 
Q 2184 2475 1800 2475 
Q 1419 2475 1153 2201 
Q 888 1928 888 1484 
z
" transform="scale(0.015625)"/>
      </defs>
      <use xlink:href="#ArialMT-47"/>
      <use xlink:href="#ArialMT-6f" transform="translate(77.783203 0)"/>
      <use xlink:href="#ArialMT-6f" transform="translate(133.398438 0)"/>
      <use xlink:href="#ArialMT-64" transform="translate(189.013672 0)"/>
      <use xlink:href="#ArialMT-20" transform="translate(244.628906 0)"/>
      <use xlink:href="#ArialMT-28" transform="translate(272.412109 0)"/>
      <use xlink:href="#ArialMT-6e" transform="translate(305.712891 0)"/>
      <use xlink:href="#ArialMT-3d" transform="translate(361.328125 0)"/>
      <use xlink:href="#ArialMT-36" transform="translate(419.726562 0)"/>
      <use xlink:href="#ArialMT-30" transform="translate(475.341797 0)"/>
      <use xlink:href="#ArialMT-29" transform="translate(530.957031 0)"/>
     </g>
    </g>
    <g id="line2d_18">
     <path d="M 215.901667 86.629219 
L 224.901667 86.629219 
L 233.901667 86.629219 
" style="fill: none; stroke: #ff7f0e; stroke-width: 1.5; stroke-linecap: round"/>
    </g>
    <g id="text_19">
     <!-- Regular (n=60) -->
     <g style="fill: #262626" transform="translate(241.101667 89.779219) scale(0.09 -0.09)">
      <defs>
       <path id="ArialMT-52" d="M 503 0 
L 503 4581 
L 2534 4581 
Q 3147 4581 3465 4457 
Q 3784 4334 3975 4021 
Q 4166 3709 4166 3331 
Q 4166 2844 3850 2509 
Q 3534 2175 2875 2084 
Q 3116 1969 3241 1856 
Q 3506 1613 3744 1247 
L 4541 0 
L 3778 0 
L 3172 953 
Q 2906 1366 2734 1584 
Q 2563 1803 2427 1890 
Q 2291 1978 2150 2013 
Q 2047 2034 1813 2034 
L 1109 2034 
L 1109 0 
L 503 0 
z
M 1109 2559 
L 2413 2559 
Q 2828 2559 3062 2645 
Q 3297 2731 3419 2920 
Q 3541 3109 3541 3331 
Q 3541 3656 3305 3865 
Q 3069 4075 2559 4075 
L 1109 4075 
L 1109 2559 
z
" transform="scale(0.015625)"/>
       <path id="ArialMT-67" d="M 319 -275 
L 866 -356 
Q 900 -609 1056 -725 
Q 1266 -881 1628 -881 
Q 2019 -881 2231 -725 
Q 2444 -569 2519 -288 
Q 2563 -116 2559 434 
Q 2191 0 1641 0 
Q 956 0 581 494 
Q 206 988 206 1678 
Q 206 2153 378 2554 
Q 550 2956 876 3175 
Q 1203 3394 1644 3394 
Q 2231 3394 2613 2919 
L 2613 3319 
L 3131 3319 
L 3131 450 
Q 3131 -325 2973 -648 
Q 2816 -972 2473 -1159 
Q 2131 -1347 1631 -1347 
Q 1038 -1347 672 -1080 
Q 306 -813 319 -275 
z
M 784 1719 
Q 784 1066 1043 766 
Q 1303 466 1694 466 
Q 2081 466 2343 764 
Q 2606 1063 2606 1700 
Q 2606 2309 2336 2618 
Q 2066 2928 1684 2928 
Q 1309 2928 1046 2623 
Q 784 2319 784 1719 
z
" transform="scale(0.015625)"/>
       <path id="ArialMT-72" d="M 416 0 
L 416 3319 
L 922 3319 
L 922 2816 
Q 1116 3169 1280 3281 
Q 1444 3394 1641 3394 
Q 1925 3394 2219 3213 
L 2025 2691 
Q 1819 2813 1613 2813 
Q 1428 2813 1281 2702 
Q 1134 2591 1072 2394 
Q 978 2094 978 1738 
L 978 0 
L 416 0 
z
" transform="scale(0.015625)"/>
      </defs>
      <use xlink:href="#ArialMT-52"/>
      <use xlink:href="#ArialMT-65" transform="translate(72.216797 0)"/>
      <use xlink:href="#ArialMT-67" transform="translate(127.832031 0)"/>
      <use xlink:href="#ArialMT-75" transform="translate(183.447266 0)"/>
      <use xlink:href="#ArialMT-6c" transform="translate(239.0625 0)"/>
      <use xlink:href="#ArialMT-61" transform="translate(261.279297 0)"/>
      <use xlink:href="#ArialMT-72" transform="translate(316.894531 0)"/>
      <use xlink:href="#ArialMT-20" transform="translate(350.195312 0)"/>
      <use xlink:href="#ArialMT-28" transform="translate(377.978516 0)"/>
      <use xlink:href="#ArialMT-6e" transform="translate(411.279297 0)"/>
      <use xlink:href="#ArialMT-3d" transform="translate(466.894531 0)"/>
      <use xlink:href="#ArialMT-36" transform="translate(525.292969 0)"/>
      <use xlink:href="#ArialMT-30" transform="translate(580.908203 0)"/>
      <use xlink:href="#ArialMT-29" transform="translate(636.523438 0)"/>
     </g>
    </g>
    <g id="line2d_19">
     <path d="M 215.901667 99.575156 
L 224.901667 99.575156 
L 233.901667 99.575156 
" style="fill: none; stroke: #d62728; stroke-width: 1.5; stroke-linecap: round"/>
    </g>
    <g id="text_20">
     <!-- Bad (n=60) -->
     <g style="fill: #262626" transform="translate(241.101667 102.725156) scale(0.09 -0.09)">
      <defs>
       <path id="ArialMT-42" d="M 469 0 
L 469 4581 
L 2188 4581 
Q 2713 4581 3030 4442 
Q 3347 4303 3526 4014 
Q 3706 3725 3706 3409 
Q 3706 3116 3547 2856 
Q 3388 2597 3066 2438 
Q 3481 2316 3704 2022 
Q 3928 1728 3928 1328 
Q 3928 1006 3792 729 
Q 3656 453 3456 303 
Q 3256 153 2954 76 
Q 2653 0 2216 0 
L 469 0 
z
M 1075 2656 
L 2066 2656 
Q 2469 2656 2644 2709 
Q 2875 2778 2992 2937 
Q 3109 3097 3109 3338 
Q 3109 3566 3000 3739 
Q 2891 3913 2687 3977 
Q 2484 4041 1991 4041 
L 1075 4041 
L 1075 2656 
z
M 1075 541 
L 2216 541 
Q 2509 541 2628 563 
Q 2838 600 2978 687 
Q 3119 775 3209 942 
Q 3300 1109 3300 1328 
Q 3300 1584 3169 1773 
Q 3038 1963 2805 2039 
Q 2572 2116 2134 2116 
L 1075 2116 
L 1075 541 
z
" transform="scale(0.015625)"/>
      </defs>
      <use xlink:href="#ArialMT-42"/>
      <use xlink:href="#ArialMT-61" transform="translate(66.699219 0)"/>
      <use xlink:href="#ArialMT-64" transform="translate(122.314453 0)"/>
      <use xlink:href="#ArialMT-20" transform="translate(177.929688 0)"/>
      <use xlink:href="#ArialMT-28" transform="translate(205.712891 0)"/>
      <use xlink:href="#ArialMT-6e" transform="translate(239.013672 0)"/>
      <use xlink:href="#ArialMT-3d" transform="translate(294.628906 0)"/>
      <use xlink:href="#ArialMT-36" transform="translate(353.027344 0)"/>
      <use xlink:href="#ArialMT-30" transform="translate(408.642578 0)"/>
      <use xlink:href="#ArialMT-29" transform="translate(464.257812 0)"/>
     </g>
    </g>
   </g>
  </g>
  <g id="axes_2">
   <g id="patch_8">
    <path d="M 346.811979 212.2 
L 615.048646 212.2 
L 615.048646 48.53625 
L 346.811979 48.53625 
z
" style="fill: #ffffff"/>
   </g>
   <g id="matplotlib.axis_3">
    <g id="xtick_9">
     <g id="line2d_20">
      <path d="M 359.004555 212.2 
L 359.004555 48.53625 
" clip-path="url(#p0d41822e77)" style="fill: none; stroke: #cccccc; stroke-width: 0.8; stroke-linecap: round"/>
     </g>
     <g id="text_21">
      <!-- 0 -->
      <g style="fill: #262626" transform="translate(356.224086 226.357813) scale(0.1 -0.1)">
       <use xlink:href="#ArialMT-30"/>
      </g>
     </g>
    </g>
    <g id="xtick_10">
     <g id="line2d_21">
      <path d="M 406.631804 212.2 
L 406.631804 48.53625 
" clip-path="url(#p0d41822e77)" style="fill: none; stroke: #cccccc; stroke-width: 0.8; stroke-linecap: round"/>
     </g>
     <g id="text_22">
      <!-- 50 -->
      <g style="fill: #262626" transform="translate(401.070866 226.357813) scale(0.1 -0.1)">
       <use xlink:href="#ArialMT-35"/>
       <use xlink:href="#ArialMT-30" transform="translate(55.615234 0)"/>
      </g>
     </g>
    </g>
    <g id="xtick_11">
     <g id="line2d_22">
      <path d="M 454.259053 212.2 
L 454.259053 48.53625 
" clip-path="url(#p0d41822e77)" style="fill: none; stroke: #cccccc; stroke-width: 0.8; stroke-linecap: round"/>
     </g>
     <g id="text_23">
      <!-- 100 -->
      <g style="fill: #262626" transform="translate(445.917647 226.357813) scale(0.1 -0.1)">
       <use xlink:href="#ArialMT-31"/>
       <use xlink:href="#ArialMT-30" transform="translate(55.615234 0)"/>
       <use xlink:href="#ArialMT-30" transform="translate(111.230469 0)"/>
      </g>
     </g>
    </g>
    <g id="xtick_12">
     <g id="line2d_23">
      <path d="M 501.886302 212.2 
L 501.886302 48.53625 
" clip-path="url(#p0d41822e77)" style="fill: none; stroke: #cccccc; stroke-width: 0.8; stroke-linecap: round"/>
     </g>
     <g id="text_24">
      <!-- 150 -->
      <g style="fill: #262626" transform="translate(493.544896 226.357813) scale(0.1 -0.1)">
       <use xlink:href="#ArialMT-31"/>
       <use xlink:href="#ArialMT-35" transform="translate(55.615234 0)"/>
       <use xlink:href="#ArialMT-30" transform="translate(111.230469 0)"/>
      </g>
     </g>
    </g>
    <g id="xtick_13">
     <g id="line2d_24">
      <path d="M 549.513551 212.2 
L 549.513551 48.53625 
" clip-path="url(#p0d41822e77)" style="fill: none; stroke: #cccccc; stroke-width: 0.8; stroke-linecap: round"/>
     </g>
     <g id="text_25">
      <!-- 200 -->
      <g style="fill: #262626" transform="translate(541.172145 226.357813) scale(0.1 -0.1)">
       <use xlink:href="#ArialMT-32"/>
       <use xlink:href="#ArialMT-30" transform="translate(55.615234 0)"/>
       <use xlink:href="#ArialMT-30" transform="translate(111.230469 0)"/>
      </g>
     </g>
    </g>
    <g id="xtick_14">
     <g id="line2d_25">
      <path d="M 597.1408 212.2 
L 597.1408 48.53625 
" clip-path="url(#p0d41822e77)" style="fill: none; stroke: #cccccc; stroke-width: 0.8; stroke-linecap: round"/>
     </g>
     <g id="text_26">
      <!-- 250 -->
      <g style="fill: #262626" transform="translate(588.799394 226.357813) scale(0.1 -0.1)">
       <use xlink:href="#ArialMT-32"/>
       <use xlink:href="#ArialMT-35" transform="translate(55.615234 0)"/>
       <use xlink:href="#ArialMT-30" transform="translate(111.230469 0)"/>
      </g>
     </g>
    </g>
    <g id="text_27">
     <!-- S -->
     <g style="fill: #262626" transform="translate(477.595156 239.503125) scale(0.1 -0.1)">
      <defs>
       <path id="ArialMT-53" d="M 288 1472 
L 859 1522 
Q 900 1178 1048 958 
Q 1197 738 1509 602 
Q 1822 466 2213 466 
Q 2559 466 2825 569 
Q 3091 672 3220 851 
Q 3350 1031 3350 1244 
Q 3350 1459 3225 1620 
Q 3100 1781 2813 1891 
Q 2628 1963 1997 2114 
Q 1366 2266 1113 2400 
Q 784 2572 623 2826 
Q 463 3081 463 3397 
Q 463 3744 659 4045 
Q 856 4347 1234 4503 
Q 1613 4659 2075 4659 
Q 2584 4659 2973 4495 
Q 3363 4331 3572 4012 
Q 3781 3694 3797 3291 
L 3216 3247 
Q 3169 3681 2898 3903 
Q 2628 4125 2100 4125 
Q 1550 4125 1298 3923 
Q 1047 3722 1047 3438 
Q 1047 3191 1225 3031 
Q 1400 2872 2139 2705 
Q 2878 2538 3153 2413 
Q 3553 2228 3743 1945 
Q 3934 1663 3934 1294 
Q 3934 928 3725 604 
Q 3516 281 3123 101 
Q 2731 -78 2241 -78 
Q 1619 -78 1198 103 
Q 778 284 539 648 
Q 300 1013 288 1472 
z
" transform="scale(0.015625)"/>
      </defs>
      <use xlink:href="#ArialMT-53"/>
     </g>
    </g>
   </g>
   <g id="matplotlib.axis_4">
    <g id="ytick_6">
     <g id="line2d_26">
      <path d="M 346.811979 205.720961 
L 615.048646 205.720961 
" clip-path="url(#p0d41822e77)" style="fill: none; stroke: #cccccc; stroke-width: 0.8; stroke-linecap: round"/>
     </g>
     <g id="text_28">
      <!-- 0.00 -->
      <g style="fill: #262626" transform="translate(320.351042 209.299867) scale(0.1 -0.1)">
       <use xlink:href="#ArialMT-30"/>
       <use xlink:href="#ArialMT-2e" transform="translate(55.615234 0)"/>
       <use xlink:href="#ArialMT-30" transform="translate(83.398438 0)"/>
       <use xlink:href="#ArialMT-30" transform="translate(139.013672 0)"/>
      </g>
     </g>
    </g>
    <g id="ytick_7">
     <g id="line2d_27">
      <path d="M 346.811979 182.391259 
L 615.048646 182.391259 
" clip-path="url(#p0d41822e77)" style="fill: none; stroke: #cccccc; stroke-width: 0.8; stroke-linecap: round"/>
     </g>
     <g id="text_29">
      <!-- 0.05 -->
      <g style="fill: #262626" transform="translate(320.351042 185.970165) scale(0.1 -0.1)">
       <use xlink:href="#ArialMT-30"/>
       <use xlink:href="#ArialMT-2e" transform="translate(55.615234 0)"/>
       <use xlink:href="#ArialMT-30" transform="translate(83.398438 0)"/>
       <use xlink:href="#ArialMT-35" transform="translate(139.013672 0)"/>
      </g>
     </g>
    </g>
    <g id="ytick_8">
     <g id="line2d_28">
      <path d="M 346.811979 159.061557 
L 615.048646 159.061557 
" clip-path="url(#p0d41822e77)" style="fill: none; stroke: #cccccc; stroke-width: 0.8; stroke-linecap: round"/>
     </g>
     <g id="text_30">
      <!-- 0.10 -->
      <g style="fill: #262626" transform="translate(320.351042 162.640463) scale(0.1 -0.1)">
       <use xlink:href="#ArialMT-30"/>
       <use xlink:href="#ArialMT-2e" transform="translate(55.615234 0)"/>
       <use xlink:href="#ArialMT-31" transform="translate(83.398438 0)"/>
       <use xlink:href="#ArialMT-30" transform="translate(139.013672 0)"/>
      </g>
     </g>
    </g>
    <g id="ytick_9">
     <g id="line2d_29">
      <path d="M 346.811979 135.731855 
L 615.048646 135.731855 
" clip-path="url(#p0d41822e77)" style="fill: none; stroke: #cccccc; stroke-width: 0.8; stroke-linecap: round"/>
     </g>
     <g id="text_31">
      <!-- 0.15 -->
      <g style="fill: #262626" transform="translate(320.351042 139.310761) scale(0.1 -0.1)">
       <use xlink:href="#ArialMT-30"/>
       <use xlink:href="#ArialMT-2e" transform="translate(55.615234 0)"/>
       <use xlink:href="#ArialMT-31" transform="translate(83.398438 0)"/>
       <use xlink:href="#ArialMT-35" transform="translate(139.013672 0)"/>
      </g>
     </g>
    </g>
    <g id="ytick_10">
     <g id="line2d_30">
      <path d="M 346.811979 112.402153 
L 615.048646 112.402153 
" clip-path="url(#p0d41822e77)" style="fill: none; stroke: #cccccc; stroke-width: 0.8; stroke-linecap: round"/>
     </g>
     <g id="text_32">
      <!-- 0.20 -->
      <g style="fill: #262626" transform="translate(320.351042 115.981059) scale(0.1 -0.1)">
       <use xlink:href="#ArialMT-30"/>
       <use xlink:href="#ArialMT-2e" transform="translate(55.615234 0)"/>
       <use xlink:href="#ArialMT-32" transform="translate(83.398438 0)"/>
       <use xlink:href="#ArialMT-30" transform="translate(139.013672 0)"/>
      </g>
     </g>
    </g>
    <g id="ytick_11">
     <g id="line2d_31">
      <path d="M 346.811979 89.072451 
L 615.048646 89.072451 
" clip-path="url(#p0d41822e77)" style="fill: none; stroke: #cccccc; stroke-width: 0.8; stroke-linecap: round"/>
     </g>
     <g id="text_33">
      <!-- 0.25 -->
      <g style="fill: #262626" transform="translate(320.351042 92.651357) scale(0.1 -0.1)">
       <use xlink:href="#ArialMT-30"/>
       <use xlink:href="#ArialMT-2e" transform="translate(55.615234 0)"/>
       <use xlink:href="#ArialMT-32" transform="translate(83.398438 0)"/>
       <use xlink:href="#ArialMT-35" transform="translate(139.013672 0)"/>
      </g>
     </g>
    </g>
    <g id="ytick_12">
     <g id="line2d_32">
      <path d="M 346.811979 65.742749 
L 615.048646 65.742749 
" clip-path="url(#p0d41822e77)" style="fill: none; stroke: #cccccc; stroke-width: 0.8; stroke-linecap: round"/>
     </g>
     <g id="text_34">
      <!-- 0.30 -->
      <g style="fill: #262626" transform="translate(320.351042 69.321655) scale(0.1 -0.1)">
       <use xlink:href="#ArialMT-30"/>
       <use xlink:href="#ArialMT-2e" transform="translate(55.615234 0)"/>
       <use xlink:href="#ArialMT-33" transform="translate(83.398438 0)"/>
       <use xlink:href="#ArialMT-30" transform="translate(139.013672 0)"/>
      </g>
     </g>
    </g>
   </g>
   <g id="line2d_33">
    <path d="M 359.004555 185.569099 
L 366.870733 179.619961 
L 374.736911 182.428279 
L 382.603089 179.216624 
L 390.469267 176.380591 
L 398.335444 166.623064 
L 406.201622 155.168661 
L 414.0678 155.353752 
L 421.933978 174.545787 
L 429.800156 181.884601 
L 437.666334 188.135874 
L 445.532512 194.392341 
L 453.39869 197.588722 
L 461.264868 199.518181 
L 469.131046 200.475276 
L 476.997224 200.92367 
L 484.863401 200.942802 
L 492.729579 200.769491 
L 500.595757 200.395837 
L 508.461935 199.819753 
L 516.328113 199.490555 
L 524.194291 198.586275 
L 532.060469 197.180048 
L 539.926647 195.771694 
L 547.792825 194.607636 
L 555.659003 196.108025 
L 563.525181 198.870444 
L 571.391358 201.664505 
L 579.257536 203.570665 
L 587.123714 204.295781 
L 594.989892 204.514386 
L 602.85607 202.064322 
" clip-path="url(#p0d41822e77)" style="fill: none; stroke: #2ca02c; stroke-width: 1.5; stroke-linecap: round"/>
   </g>
   <g id="line2d_34">
    <path d="M 359.004555 194.887071 
L 366.870733 55.975511 
L 374.736911 147.95546 
L 382.603089 176.527775 
L 390.469267 182.510573 
L 398.335444 187.374934 
L 406.201622 189.593821 
L 414.0678 191.387456 
L 421.933978 191.193283 
L 429.800156 192.740368 
L 437.666334 197.512599 
L 445.532512 200.088238 
L 453.39869 200.699942 
L 461.264868 200.301228 
L 469.131046 198.271337 
L 476.997224 196.199112 
L 484.863401 195.461475 
L 492.729579 195.459629 
L 500.595757 195.732643 
L 508.461935 196.851109 
L 516.328113 198.232108 
L 524.194291 199.375032 
L 532.060469 200.594589 
L 539.926647 201.53922 
L 547.792825 202.361909 
L 555.659003 202.879888 
L 563.525181 203.284822 
L 571.391358 203.832426 
L 579.257536 204.234768 
L 587.123714 204.548215 
L 594.989892 204.760739 
L 602.85607 204.109423 
" clip-path="url(#p0d41822e77)" style="fill: none; stroke: #ff7f0e; stroke-width: 1.5; stroke-linecap: round"/>
   </g>
   <g id="line2d_35">
    <path d="M 359.004555 184.667066 
L 366.870733 173.69595 
L 374.736911 125.366103 
L 382.603089 158.758522 
L 390.469267 164.812333 
L 398.335444 169.962797 
L 406.201622 177.669633 
L 414.0678 182.696201 
L 421.933978 189.394453 
L 429.800156 194.942284 
L 437.666334 198.649108 
L 445.532512 200.168973 
L 453.39869 200.340843 
L 461.264868 200.022476 
L 469.131046 199.819196 
L 476.997224 200.208559 
L 484.863401 200.132623 
L 492.729579 200.127158 
L 500.595757 199.778824 
L 508.461935 198.947326 
L 516.328113 198.053455 
L 524.194291 197.952238 
L 532.060469 198.211279 
L 539.926647 198.644473 
L 547.792825 199.245291 
L 555.659003 200.191628 
L 563.525181 201.100463 
L 571.391358 201.734594 
L 579.257536 202.236985 
L 587.123714 202.480896 
L 594.989892 202.001465 
L 602.85607 194.463508 
" clip-path="url(#p0d41822e77)" style="fill: none; stroke: #d62728; stroke-width: 1.5; stroke-linecap: round"/>
   </g>
   <g id="patch_9">
    <path d="M 346.811979 212.2 
L 346.811979 48.53625 
" style="fill: none; stroke: #cccccc; stroke-width: 0.8; stroke-linejoin: miter; stroke-linecap: square"/>
   </g>
   <g id="patch_10">
    <path d="M 615.048646 212.2 
L 615.048646 48.53625 
" style="fill: none; stroke: #cccccc; stroke-width: 0.8; stroke-linejoin: miter; stroke-linecap: square"/>
   </g>
   <g id="patch_11">
    <path d="M 346.811979 212.2 
L 615.048646 212.2 
" style="fill: none; stroke: #cccccc; stroke-width: 0.8; stroke-linejoin: miter; stroke-linecap: square"/>
   </g>
   <g id="patch_12">
    <path d="M 346.811979 48.53625 
L 615.048646 48.53625 
" style="fill: none; stroke: #cccccc; stroke-width: 0.8; stroke-linejoin: miter; stroke-linecap: square"/>
   </g>
   <g id="text_35">
    <!-- Saturation (0–256) -->
    <g style="fill: #262626" transform="translate(435.376563 42.53625) scale(0.11 -0.11)">
     <defs>
      <path id="ArialMT-74" d="M 1650 503 
L 1731 6 
Q 1494 -44 1306 -44 
Q 1000 -44 831 53 
Q 663 150 594 308 
Q 525 466 525 972 
L 525 2881 
L 113 2881 
L 113 3319 
L 525 3319 
L 525 4141 
L 1084 4478 
L 1084 3319 
L 1650 3319 
L 1650 2881 
L 1084 2881 
L 1084 941 
Q 1084 700 1114 631 
Q 1144 563 1211 522 
Q 1278 481 1403 481 
Q 1497 481 1650 503 
z
" transform="scale(0.015625)"/>
     </defs>
     <use xlink:href="#ArialMT-53"/>
     <use xlink:href="#ArialMT-61" transform="translate(66.699219 0)"/>
     <use xlink:href="#ArialMT-74" transform="translate(122.314453 0)"/>
     <use xlink:href="#ArialMT-75" transform="translate(150.097656 0)"/>
     <use xlink:href="#ArialMT-72" transform="translate(205.712891 0)"/>
     <use xlink:href="#ArialMT-61" transform="translate(239.013672 0)"/>
     <use xlink:href="#ArialMT-74" transform="translate(294.628906 0)"/>
     <use xlink:href="#ArialMT-69" transform="translate(322.412109 0)"/>
     <use xlink:href="#ArialMT-6f" transform="translate(344.628906 0)"/>
     <use xlink:href="#ArialMT-6e" transform="translate(400.244141 0)"/>
     <use xlink:href="#ArialMT-20" transform="translate(455.859375 0)"/>
     <use xlink:href="#ArialMT-28" transform="translate(483.642578 0)"/>
     <use xlink:href="#ArialMT-30" transform="translate(516.943359 0)"/>
     <use xlink:href="#ArialMT-2013" transform="translate(572.558594 0)"/>
     <use xlink:href="#ArialMT-32" transform="translate(628.173828 0)"/>
     <use xlink:href="#ArialMT-35" transform="translate(683.789062 0)"/>
     <use xlink:href="#ArialMT-36" transform="translate(739.404297 0)"/>
     <use xlink:href="#ArialMT-29" transform="translate(795.019531 0)"/>
    </g>
   </g>
  </g>
  <g id="axes_3">
   <g id="patch_13">
    <path d="M 652.378646 212.2 
L 920.615312 212.2 
L 920.615312 48.53625 
L 652.378646 48.53625 
z
" style="fill: #ffffff"/>
   </g>
   <g id="matplotlib.axis_5">
    <g id="xtick_15">
     <g id="line2d_36">
      <path d="M 664.571222 212.2 
L 664.571222 48.53625 
" clip-path="url(#p8d7e8e7f35)" style="fill: none; stroke: #cccccc; stroke-width: 0.8; stroke-linecap: round"/>
     </g>
     <g id="text_36">
      <!-- 0 -->
      <g style="fill: #262626" transform="translate(661.790753 226.357813) scale(0.1 -0.1)">
       <use xlink:href="#ArialMT-30"/>
      </g>
     </g>
    </g>
    <g id="xtick_16">
     <g id="line2d_37">
      <path d="M 712.198471 212.2 
L 712.198471 48.53625 
" clip-path="url(#p8d7e8e7f35)" style="fill: none; stroke: #cccccc; stroke-width: 0.8; stroke-linecap: round"/>
     </g>
     <g id="text_37">
      <!-- 50 -->
      <g style="fill: #262626" transform="translate(706.637533 226.357813) scale(0.1 -0.1)">
       <use xlink:href="#ArialMT-35"/>
       <use xlink:href="#ArialMT-30" transform="translate(55.615234 0)"/>
      </g>
     </g>
    </g>
    <g id="xtick_17">
     <g id="line2d_38">
      <path d="M 759.82572 212.2 
L 759.82572 48.53625 
" clip-path="url(#p8d7e8e7f35)" style="fill: none; stroke: #cccccc; stroke-width: 0.8; stroke-linecap: round"/>
     </g>
     <g id="text_38">
      <!-- 100 -->
      <g style="fill: #262626" transform="translate(751.484313 226.357813) scale(0.1 -0.1)">
       <use xlink:href="#ArialMT-31"/>
       <use xlink:href="#ArialMT-30" transform="translate(55.615234 0)"/>
       <use xlink:href="#ArialMT-30" transform="translate(111.230469 0)"/>
      </g>
     </g>
    </g>
    <g id="xtick_18">
     <g id="line2d_39">
      <path d="M 807.452969 212.2 
L 807.452969 48.53625 
" clip-path="url(#p8d7e8e7f35)" style="fill: none; stroke: #cccccc; stroke-width: 0.8; stroke-linecap: round"/>
     </g>
     <g id="text_39">
      <!-- 150 -->
      <g style="fill: #262626" transform="translate(799.111562 226.357813) scale(0.1 -0.1)">
       <use xlink:href="#ArialMT-31"/>
       <use xlink:href="#ArialMT-35" transform="translate(55.615234 0)"/>
       <use xlink:href="#ArialMT-30" transform="translate(111.230469 0)"/>
      </g>
     </g>
    </g>
    <g id="xtick_19">
     <g id="line2d_40">
      <path d="M 855.080218 212.2 
L 855.080218 48.53625 
" clip-path="url(#p8d7e8e7f35)" style="fill: none; stroke: #cccccc; stroke-width: 0.8; stroke-linecap: round"/>
     </g>
     <g id="text_40">
      <!-- 200 -->
      <g style="fill: #262626" transform="translate(846.738812 226.357813) scale(0.1 -0.1)">
       <use xlink:href="#ArialMT-32"/>
       <use xlink:href="#ArialMT-30" transform="translate(55.615234 0)"/>
       <use xlink:href="#ArialMT-30" transform="translate(111.230469 0)"/>
      </g>
     </g>
    </g>
    <g id="xtick_20">
     <g id="line2d_41">
      <path d="M 902.707467 212.2 
L 902.707467 48.53625 
" clip-path="url(#p8d7e8e7f35)" style="fill: none; stroke: #cccccc; stroke-width: 0.8; stroke-linecap: round"/>
     </g>
     <g id="text_41">
      <!-- 250 -->
      <g style="fill: #262626" transform="translate(894.366061 226.357813) scale(0.1 -0.1)">
       <use xlink:href="#ArialMT-32"/>
       <use xlink:href="#ArialMT-35" transform="translate(55.615234 0)"/>
       <use xlink:href="#ArialMT-30" transform="translate(111.230469 0)"/>
      </g>
     </g>
    </g>
    <g id="text_42">
     <!-- V -->
     <g style="fill: #262626" transform="translate(783.161823 239.503125) scale(0.1 -0.1)">
      <defs>
       <path id="ArialMT-56" d="M 1803 0 
L 28 4581 
L 684 4581 
L 1875 1253 
Q 2019 853 2116 503 
Q 2222 878 2363 1253 
L 3600 4581 
L 4219 4581 
L 2425 0 
L 1803 0 
z
" transform="scale(0.015625)"/>
      </defs>
      <use xlink:href="#ArialMT-56"/>
     </g>
    </g>
   </g>
   <g id="matplotlib.axis_6">
    <g id="ytick_13">
     <g id="line2d_42">
      <path d="M 652.378646 204.760739 
L 920.615312 204.760739 
" clip-path="url(#p8d7e8e7f35)" style="fill: none; stroke: #cccccc; stroke-width: 0.8; stroke-linecap: round"/>
     </g>
     <g id="text_43">
      <!-- 0.00 -->
      <g style="fill: #262626" transform="translate(625.917708 208.339645) scale(0.1 -0.1)">
       <use xlink:href="#ArialMT-30"/>
       <use xlink:href="#ArialMT-2e" transform="translate(55.615234 0)"/>
       <use xlink:href="#ArialMT-30" transform="translate(83.398438 0)"/>
       <use xlink:href="#ArialMT-30" transform="translate(139.013672 0)"/>
      </g>
     </g>
    </g>
    <g id="ytick_14">
     <g id="line2d_43">
      <path d="M 652.378646 180.309442 
L 920.615312 180.309442 
" clip-path="url(#p8d7e8e7f35)" style="fill: none; stroke: #cccccc; stroke-width: 0.8; stroke-linecap: round"/>
     </g>
     <g id="text_44">
      <!-- 0.02 -->
      <g style="fill: #262626" transform="translate(625.917708 183.888348) scale(0.1 -0.1)">
       <use xlink:href="#ArialMT-30"/>
       <use xlink:href="#ArialMT-2e" transform="translate(55.615234 0)"/>
       <use xlink:href="#ArialMT-30" transform="translate(83.398438 0)"/>
       <use xlink:href="#ArialMT-32" transform="translate(139.013672 0)"/>
      </g>
     </g>
    </g>
    <g id="ytick_15">
     <g id="line2d_44">
      <path d="M 652.378646 155.858145 
L 920.615312 155.858145 
" clip-path="url(#p8d7e8e7f35)" style="fill: none; stroke: #cccccc; stroke-width: 0.8; stroke-linecap: round"/>
     </g>
     <g id="text_45">
      <!-- 0.04 -->
      <g style="fill: #262626" transform="translate(625.917708 159.437051) scale(0.1 -0.1)">
       <use xlink:href="#ArialMT-30"/>
       <use xlink:href="#ArialMT-2e" transform="translate(55.615234 0)"/>
       <use xlink:href="#ArialMT-30" transform="translate(83.398438 0)"/>
       <use xlink:href="#ArialMT-34" transform="translate(139.013672 0)"/>
      </g>
     </g>
    </g>
    <g id="ytick_16">
     <g id="line2d_45">
      <path d="M 652.378646 131.406848 
L 920.615312 131.406848 
" clip-path="url(#p8d7e8e7f35)" style="fill: none; stroke: #cccccc; stroke-width: 0.8; stroke-linecap: round"/>
     </g>
     <g id="text_46">
      <!-- 0.06 -->
      <g style="fill: #262626" transform="translate(625.917708 134.985754) scale(0.1 -0.1)">
       <use xlink:href="#ArialMT-30"/>
       <use xlink:href="#ArialMT-2e" transform="translate(55.615234 0)"/>
       <use xlink:href="#ArialMT-30" transform="translate(83.398438 0)"/>
       <use xlink:href="#ArialMT-36" transform="translate(139.013672 0)"/>
      </g>
     </g>
    </g>
    <g id="ytick_17">
     <g id="line2d_46">
      <path d="M 652.378646 106.955551 
L 920.615312 106.955551 
" clip-path="url(#p8d7e8e7f35)" style="fill: none; stroke: #cccccc; stroke-width: 0.8; stroke-linecap: round"/>
     </g>
     <g id="text_47">
      <!-- 0.08 -->
      <g style="fill: #262626" transform="translate(625.917708 110.534458) scale(0.1 -0.1)">
       <use xlink:href="#ArialMT-30"/>
       <use xlink:href="#ArialMT-2e" transform="translate(55.615234 0)"/>
       <use xlink:href="#ArialMT-30" transform="translate(83.398438 0)"/>
       <use xlink:href="#ArialMT-38" transform="translate(139.013672 0)"/>
      </g>
     </g>
    </g>
    <g id="ytick_18">
     <g id="line2d_47">
      <path d="M 652.378646 82.504255 
L 920.615312 82.504255 
" clip-path="url(#p8d7e8e7f35)" style="fill: none; stroke: #cccccc; stroke-width: 0.8; stroke-linecap: round"/>
     </g>
     <g id="text_48">
      <!-- 0.10 -->
      <g style="fill: #262626" transform="translate(625.917708 86.083161) scale(0.1 -0.1)">
       <use xlink:href="#ArialMT-30"/>
       <use xlink:href="#ArialMT-2e" transform="translate(55.615234 0)"/>
       <use xlink:href="#ArialMT-31" transform="translate(83.398438 0)"/>
       <use xlink:href="#ArialMT-30" transform="translate(139.013672 0)"/>
      </g>
     </g>
    </g>
    <g id="ytick_19">
     <g id="line2d_48">
      <path d="M 652.378646 58.052958 
L 920.615312 58.052958 
" clip-path="url(#p8d7e8e7f35)" style="fill: none; stroke: #cccccc; stroke-width: 0.8; stroke-linecap: round"/>
     </g>
     <g id="text_49">
      <!-- 0.12 -->
      <g style="fill: #262626" transform="translate(625.917708 61.631864) scale(0.1 -0.1)">
       <use xlink:href="#ArialMT-30"/>
       <use xlink:href="#ArialMT-2e" transform="translate(55.615234 0)"/>
       <use xlink:href="#ArialMT-31" transform="translate(83.398438 0)"/>
       <use xlink:href="#ArialMT-32" transform="translate(139.013672 0)"/>
      </g>
     </g>
    </g>
   </g>
   <g id="line2d_49">
    <path d="M 664.571222 204.760739 
L 672.437399 204.760673 
L 680.303577 204.760583 
L 688.169755 204.752258 
L 696.035933 204.577187 
L 703.902111 203.89669 
L 711.768289 202.855857 
L 719.634467 202.680618 
L 727.500645 202.08618 
L 735.366823 200.900461 
L 743.233001 199.709089 
L 751.099179 196.476914 
L 758.965356 189.440462 
L 766.831534 180.14929 
L 774.697712 170.085088 
L 782.56389 158.068677 
L 790.430068 145.767316 
L 798.296246 137.06158 
L 806.162424 131.955781 
L 814.028602 127.36205 
L 821.89478 123.784513 
L 829.760958 104.776502 
L 837.627136 82.560868 
L 845.493313 55.975511 
L 853.359491 120.455876 
L 861.225669 153.845793 
L 869.091847 158.007275 
L 876.958025 163.242477 
L 884.824203 162.878967 
L 892.690381 171.995624 
L 900.556559 180.240141 
L 908.422737 179.907756 
" clip-path="url(#p8d7e8e7f35)" style="fill: none; stroke: #2ca02c; stroke-width: 1.5; stroke-linecap: round"/>
   </g>
   <g id="line2d_50">
    <path d="M 664.571222 204.055382 
L 672.437399 204.511253 
L 680.303577 204.333308 
L 688.169755 204.021885 
L 696.035933 202.791659 
L 703.902111 201.527007 
L 711.768289 199.723338 
L 719.634467 198.891737 
L 727.500645 195.66233 
L 735.366823 176.308291 
L 743.233001 179.154516 
L 751.099179 177.157485 
L 758.965356 164.661692 
L 766.831534 156.608477 
L 774.697712 156.14298 
L 782.56389 154.166497 
L 790.430068 149.137819 
L 798.296246 143.303952 
L 806.162424 133.813369 
L 814.028602 123.957097 
L 821.89478 119.398437 
L 829.760958 124.264806 
L 837.627136 108.402293 
L 845.493313 97.008574 
L 853.359491 97.899108 
L 861.225669 141.420217 
L 869.091847 183.934759 
L 876.958025 188.558044 
L 884.824203 187.492155 
L 892.690381 183.577671 
L 900.556559 182.176511 
L 908.422737 185.716144 
" clip-path="url(#p8d7e8e7f35)" style="fill: none; stroke: #ff7f0e; stroke-width: 1.5; stroke-linecap: round"/>
   </g>
   <g id="line2d_51">
    <path d="M 664.571222 201.758212 
L 672.437399 204.652631 
L 680.303577 204.629809 
L 688.169755 204.455166 
L 696.035933 204.398089 
L 703.902111 204.369738 
L 711.768289 203.89565 
L 719.634467 202.239302 
L 727.500645 199.763246 
L 735.366823 196.845733 
L 743.233001 189.747375 
L 751.099179 183.070223 
L 758.965356 175.321569 
L 766.831534 172.004956 
L 774.697712 168.530314 
L 782.56389 156.923976 
L 790.430068 144.064009 
L 798.296246 138.080081 
L 806.162424 136.054082 
L 814.028602 134.50346 
L 821.89478 130.891227 
L 829.760958 126.524261 
L 837.627136 128.971293 
L 845.493313 124.303311 
L 853.359491 106.93549 
L 861.225669 100.686659 
L 869.091847 117.725325 
L 876.958025 143.544506 
L 884.824203 163.23868 
L 892.690381 185.783234 
L 900.556559 195.09829 
L 908.422737 180.768901 
" clip-path="url(#p8d7e8e7f35)" style="fill: none; stroke: #d62728; stroke-width: 1.5; stroke-linecap: round"/>
   </g>
   <g id="patch_14">
    <path d="M 652.378646 212.2 
L 652.378646 48.53625 
" style="fill: none; stroke: #cccccc; stroke-width: 0.8; stroke-linejoin: miter; stroke-linecap: square"/>
   </g>
   <g id="patch_15">
    <path d="M 920.615312 212.2 
L 920.615312 48.53625 
" style="fill: none; stroke: #cccccc; stroke-width: 0.8; stroke-linejoin: miter; stroke-linecap: square"/>
   </g>
   <g id="patch_16">
    <path d="M 652.378646 212.2 
L 920.615313 212.2 
" style="fill: none; stroke: #cccccc; stroke-width: 0.8; stroke-linejoin: miter; stroke-linecap: square"/>
   </g>
   <g id="patch_17">
    <path d="M 652.378646 48.53625 
L 920.615313 48.53625 
" style="fill: none; stroke: #cccccc; stroke-width: 0.8; stroke-linejoin: miter; stroke-linecap: square"/>
   </g>
   <g id="text_50">
    <!-- Value (0–256) -->
    <g style="fill: #262626" transform="translate(752.353151 42.53625) scale(0.11 -0.11)">
     <use xlink:href="#ArialMT-56"/>
     <use xlink:href="#ArialMT-61" transform="translate(59.324219 0)"/>
     <use xlink:href="#ArialMT-6c" transform="translate(114.939453 0)"/>
     <use xlink:href="#ArialMT-75" transform="translate(137.15625 0)"/>
     <use xlink:href="#ArialMT-65" transform="translate(192.771484 0)"/>
     <use xlink:href="#ArialMT-20" transform="translate(248.386719 0)"/>
     <use xlink:href="#ArialMT-28" transform="translate(276.169922 0)"/>
     <use xlink:href="#ArialMT-30" transform="translate(309.470703 0)"/>
     <use xlink:href="#ArialMT-2013" transform="translate(365.085938 0)"/>
     <use xlink:href="#ArialMT-32" transform="translate(420.701172 0)"/>
     <use xlink:href="#ArialMT-35" transform="translate(476.316406 0)"/>
     <use xlink:href="#ArialMT-36" transform="translate(531.931641 0)"/>
     <use xlink:href="#ArialMT-29" transform="translate(587.546875 0)"/>
    </g>
   </g>
  </g>
  <g id="text_51">
   <!-- Histogramas HSV promedio — Apple -->
   <g style="fill: #262626" transform="translate(364.70875 15.935625) scale(0.12 -0.12)">
    <defs>
     <path id="ArialMT-6d" d="M 422 0 
L 422 3319 
L 925 3319 
L 925 2853 
Q 1081 3097 1340 3245 
Q 1600 3394 1931 3394 
Q 2300 3394 2536 3241 
Q 2772 3088 2869 2813 
Q 3263 3394 3894 3394 
Q 4388 3394 4653 3120 
Q 4919 2847 4919 2278 
L 4919 0 
L 4359 0 
L 4359 2091 
Q 4359 2428 4304 2576 
Q 4250 2725 4106 2815 
Q 3963 2906 3769 2906 
Q 3419 2906 3187 2673 
Q 2956 2441 2956 1928 
L 2956 0 
L 2394 0 
L 2394 2156 
Q 2394 2531 2256 2718 
Q 2119 2906 1806 2906 
Q 1569 2906 1367 2781 
Q 1166 2656 1075 2415 
Q 984 2175 984 1722 
L 984 0 
L 422 0 
z
" transform="scale(0.015625)"/>
     <path id="ArialMT-2014" d="M 0 1431 
L 0 1884 
L 6400 1884 
L 6400 1431 
L 0 1431 
z
" transform="scale(0.015625)"/>
    </defs>
    <use xlink:href="#ArialMT-48"/>
    <use xlink:href="#ArialMT-69" transform="translate(72.216797 0)"/>
    <use xlink:href="#ArialMT-73" transform="translate(94.433594 0)"/>
    <use xlink:href="#ArialMT-74" transform="translate(144.433594 0)"/>
    <use xlink:href="#ArialMT-6f" transform="translate(172.216797 0)"/>
    <use xlink:href="#ArialMT-67" transform="translate(227.832031 0)"/>
    <use xlink:href="#ArialMT-72" transform="translate(283.447266 0)"/>
    <use xlink:href="#ArialMT-61" transform="translate(316.748047 0)"/>
    <use xlink:href="#ArialMT-6d" transform="translate(372.363281 0)"/>
    <use xlink:href="#ArialMT-61" transform="translate(455.664062 0)"/>
    <use xlink:href="#ArialMT-73" transform="translate(511.279297 0)"/>
    <use xlink:href="#ArialMT-20" transform="translate(561.279297 0)"/>
    <use xlink:href="#ArialMT-48" transform="translate(589.0625 0)"/>
    <use xlink:href="#ArialMT-53" transform="translate(661.279297 0)"/>
    <use xlink:href="#ArialMT-56" transform="translate(727.978516 0)"/>
    <use xlink:href="#ArialMT-20" transform="translate(794.677734 0)"/>
    <use xlink:href="#ArialMT-70" transform="translate(822.460938 0)"/>
    <use xlink:href="#ArialMT-72" transform="translate(878.076172 0)"/>
    <use xlink:href="#ArialMT-6f" transform="translate(911.376953 0)"/>
    <use xlink:href="#ArialMT-6d" transform="translate(966.992188 0)"/>
    <use xlink:href="#ArialMT-65" transform="translate(1050.292969 0)"/>
    <use xlink:href="#ArialMT-64" transform="translate(1105.908203 0)"/>
    <use xlink:href="#ArialMT-69" transform="translate(1161.523438 0)"/>
    <use xlink:href="#ArialMT-6f" transform="translate(1183.740234 0)"/>
    <use xlink:href="#ArialMT-20" transform="translate(1239.355469 0)"/>
    <use xlink:href="#ArialMT-2014" transform="translate(1267.138672 0)"/>
    <use xlink:href="#ArialMT-20" transform="translate(1367.138672 0)"/>
    <use xlink:href="#ArialMT-41" transform="translate(1389.421875 0)"/>
    <use xlink:href="#ArialMT-70" transform="translate(1456.121094 0)"/>
    <use xlink:href="#ArialMT-70" transform="translate(1511.736328 0)"/>
    <use xlink:href="#ArialMT-6c" transform="translate(1567.351562 0)"/>
    <use xlink:href="#ArialMT-65" transform="translate(1589.568359 0)"/>
   </g>
  </g>
 </g>
 <defs>
  <clipPath id="p744375cb8d">
   <rect x="41.245313" y="48.53625" width="268.236667" height="163.66375"/>
  </clipPath>
  <clipPath id="p0d41822e77">
   <rect x="346.811979" y="48.53625" width="268.236667" height="163.66375"/>
  </clipPath>
  <clipPath id="p8d7e8e7f35">
   <rect x="652.378646" y="48.53625" width="268.236667" height="163.66375"/>
  </clipPath>
 </defs>
</svg>
